<svg width="96" height="96" viewBox="0 0 96 96" fill="none" xmlns="http://www.w3.org/2000/svg">
<path d="M48.6201 0.00390625C74.8439 0.335994 96 21.6975 96 48L95.9961 48.6201C95.664 74.8438 74.3025 95.9999 48 96L47.3799 95.9961C21.3625 95.6668 0.33338 74.6375 0.00390625 48.6201L0 48C0 21.4904 21.4904 0 48 0L48.6201 0.00390625ZM48 2C22.595 2 2 22.595 2 48C2.00007 73.405 22.595 94 48 94C73.4049 93.9999 93.9999 73.4049 94 48C94 22.595 73.405 2.00007 48 2ZM49.1611 3.01465C73.4772 3.63059 93 23.5355 93 48L92.9854 49.1611C92.3693 73.4771 72.4644 92.9999 48 93L46.8389 92.9854C22.9088 92.3792 3.6209 73.0912 3.01465 49.1611L3 48C3 23.1473 23.1474 3.00012 48 3L49.1611 3.01465ZM48 3.5C23.4235 3.50012 3.5 23.4235 3.5 48C3.50017 72.5764 23.4236 92.4999 48 92.5C72.5764 92.4999 92.4998 72.5764 92.5 48C92.5 23.4234 72.5765 3.50007 48 3.5ZM43.8721 84.6279L47.5947 84.6289L47.6582 81.5205H48.5039L48.3613 88.501H47.5156L47.5791 85.3789L43.8564 85.377L43.793 88.499H42.9473L43.0898 81.5186H43.9355L43.8721 84.6279ZM57.7559 87.1514L56.8906 87.3428L55.7715 85.5654L53.0156 86.1768L52.7637 88.2588L51.8984 88.4502L52.8721 81.083L53.7246 80.8936L57.7559 87.1514ZM66.3613 83.833L65.6211 84.1816L59.7236 80.8984L59.6621 80.9277L62.1162 85.8291L61.3506 86.1885L58.2256 79.9453L58.9658 79.5977L64.8809 82.8877L64.9434 82.8584L62.4824 77.9443L63.2354 77.5898L66.3613 83.833ZM32.0391 78.1533L32.5518 81.8311L32.6279 81.8604L35.7354 79.5586L36.6406 79.9023L32.6484 82.7715L31.5029 85.4111L30.7129 85.1104L31.8584 82.4717L31.1338 77.8096L32.0391 78.1533ZM53.5137 82.0723L53.1113 85.3867L55.3477 84.8916L53.5664 82.0605L53.5137 82.0723ZM27.418 76.3926C27.8749 76.6903 28.1952 77.0107 28.3789 77.3525C28.5638 77.6924 28.6326 78.0388 28.584 78.3916C28.5353 78.7446 28.3901 79.088 28.1484 79.4209C27.9068 79.7538 27.6217 80.0033 27.2939 80.1689C26.9662 80.3346 26.6031 80.3962 26.2051 80.3535C26.1059 80.3424 26.005 80.3227 25.9023 80.2959L25.5332 83.4873L24.7109 82.9512L25.0801 79.9365C25.0305 79.9069 24.98 79.8765 24.9297 79.8438L23.6504 79.0088L22.0488 81.2168L21.3398 80.7549L25.4414 75.1045L27.418 76.3926ZM69.3711 74.123C69.6995 74.1178 70.0215 74.1692 70.3359 74.2764C70.6488 74.3818 70.9409 74.543 71.2119 74.7598L70.5273 75.3018C70.3186 75.1746 70.1065 75.08 69.8916 75.0186C69.677 74.9541 69.4614 74.9253 69.2451 74.9316C69.0306 74.9366 68.8185 74.9791 68.6084 75.0586C68.3983 75.1382 68.1937 75.2556 67.9961 75.4121C67.672 75.6688 67.4472 75.9837 67.3213 76.3555C67.1954 76.7274 67.1897 77.1333 67.3047 77.5723C67.4196 78.0112 67.6745 78.4595 68.0693 78.917C68.4643 79.3747 68.8773 79.6984 69.3076 79.8877C69.7378 80.0769 70.1581 80.1455 70.5684 80.0928C70.9786 80.04 71.353 79.8793 71.6914 79.6113C72.0049 79.363 72.2262 79.0798 72.3535 78.7617C72.4811 78.4405 72.5088 78.1079 72.4375 77.7646C72.3695 77.4329 72.2052 77.1124 71.9463 76.8018L70.5049 77.9443L70.0146 77.376L72.0996 75.7256L72.5889 76.293C72.9646 76.7283 73.195 77.1831 73.2803 77.6572C73.3673 78.13 73.3195 78.5883 73.1357 79.0322C72.9523 79.473 72.6427 79.8656 72.208 80.21C71.7237 80.5936 71.2033 80.8211 70.6465 80.8916C70.0914 80.9607 69.5356 80.8735 68.9805 80.6299C68.4269 80.3847 67.9089 79.9832 67.4277 79.4258C67.067 79.0078 66.8012 78.5856 66.6289 78.1602C66.4569 77.7315 66.3754 77.3142 66.3857 76.9092C66.3961 76.5044 66.4932 76.1234 66.6768 75.7666C66.8605 75.4096 67.1285 75.0915 67.4795 74.8135C67.768 74.585 68.0735 74.414 68.3955 74.3008C68.7179 74.1844 69.0431 74.1252 69.3711 74.123ZM24.0986 78.3906L25.3555 79.21C25.6677 79.4135 25.9516 79.5335 26.2061 79.5693C26.4624 79.6063 26.6924 79.5718 26.8955 79.4658C27.1018 79.3592 27.2871 79.1929 27.4512 78.9668C27.6153 78.7407 27.7147 78.5142 27.75 78.2881C27.7852 78.0618 27.7408 77.8394 27.6152 77.6221C27.491 77.4029 27.2702 77.1903 26.9541 76.9844L25.709 76.1729L24.0986 78.3906ZM18.0771 39.9004C22.5505 23.3745 39.5737 13.604 56.0996 18.0771L56.8691 18.2949C72.9275 23.0813 82.3264 39.8317 77.9229 56.0996L77.7041 56.8691C72.9177 72.9274 56.1682 82.3263 39.9004 77.9229L39.1309 77.7041C23.3274 72.9937 13.9737 56.6965 17.8779 40.6748L18.0771 39.9004ZM18.7383 70.5146C19.3254 70.3524 19.889 70.3422 20.4287 70.4844C20.9684 70.6267 21.4449 70.9126 21.8574 71.3418C22.27 71.7711 22.5282 72.2491 22.6309 72.7754C22.7335 73.3017 22.6748 73.8381 22.4561 74.3838C22.2374 74.9292 21.8517 75.4449 21.2988 75.9307C20.7456 76.4166 20.1751 76.7411 19.5879 76.9033C19.0007 77.0655 18.4372 77.0758 17.8975 76.9336C17.3577 76.7913 16.8813 76.5054 16.4688 76.0762C16.0563 75.6469 15.799 75.1687 15.6963 74.6426C15.5936 74.1163 15.6514 73.5799 15.8701 73.0342C16.0889 72.4886 16.4742 71.9722 17.0273 71.4863C17.5805 71.0004 18.1511 70.6769 18.7383 70.5146ZM55.5771 20.0068C40.1175 15.8223 24.1926 24.9632 20.0078 40.4229C15.8232 55.8825 24.9632 71.8073 40.4229 75.9922C55.8826 80.1769 71.8083 71.0369 75.9932 55.5771C80.1779 40.1174 71.0369 24.1917 55.5771 20.0068ZM20.2266 71.2471C19.8299 71.1423 19.4048 71.1546 18.9521 71.2832C18.5013 71.4135 18.0488 71.6783 17.5947 72.0771C17.1406 72.4761 16.8262 72.8851 16.6523 73.3037C16.4802 73.7238 16.4322 74.1271 16.5078 74.5137C16.5851 74.902 16.7697 75.249 17.0625 75.5537C17.3554 75.8585 17.7009 76.0632 18.0977 76.168C18.4958 76.2743 18.9202 76.263 19.3711 76.1328C19.8237 76.0042 20.2773 75.7398 20.7314 75.3408C21.1856 74.9419 21.4996 74.5326 21.6719 74.1123C21.8458 73.6936 21.8937 73.2898 21.8164 72.9014C21.7407 72.5147 21.5564 72.169 21.2637 71.8643C20.9708 71.5595 20.6249 71.3535 20.2266 71.2471ZM74.7598 68.8545L72.6338 71.4678L74.5352 72.8633L76.5234 70.4199L77.1279 70.8633L75.1396 73.3066L77.0527 74.7109L79.2129 72.0557L79.8174 72.5L77.124 75.8105L71.4951 71.6797L74.1553 68.4111L74.7598 68.8545ZM79.6436 63.3203C80.0142 63.303 80.3876 63.3789 80.7627 63.5479C81.1375 63.7168 81.4319 63.9413 81.6455 64.2217C81.8592 64.5022 81.9697 64.8353 81.9775 65.2197C81.9789 65.315 81.9721 65.4133 81.958 65.5146L85.2998 65.293L84.8535 66.168L81.6943 66.3574C81.67 66.41 81.6456 66.4638 81.6182 66.5176L80.9238 67.8779L83.4111 68.998L83.0264 69.751L76.6611 66.8838L77.7324 64.7822C77.9802 64.2963 78.2688 63.9355 78.5977 63.7002C78.9244 63.4641 79.273 63.3376 79.6436 63.3203ZM18.9229 67.707L18.2656 68.0674L17.1523 66.1748L11.6885 69.1709L11.2598 68.4424L16.7236 65.4463L15.6113 63.5537L16.2686 63.1934L18.9229 67.707ZM79.6445 64.127C79.4065 64.1343 79.1834 64.2173 78.9756 64.375C78.7658 64.5318 78.5756 64.7784 78.4043 65.1143L77.7285 66.4385L80.2275 67.5635L80.9092 66.2285C81.0784 65.8966 81.1651 65.6066 81.1689 65.3594C81.1737 65.1101 81.1076 64.8988 80.9717 64.7256C80.8348 64.5495 80.6394 64.4038 80.3848 64.2891C80.1299 64.1742 79.8827 64.1197 79.6445 64.127ZM12.5107 57.3027C12.8843 57.1887 13.2421 57.1893 13.584 57.3057C13.929 57.4237 14.2332 57.6306 14.4961 57.9258C14.7618 58.2224 14.962 58.5832 15.0967 59.0078C15.2327 59.4367 15.2761 59.842 15.2275 60.2227C15.1812 60.6024 15.0567 60.9303 14.8535 61.2061C14.6509 61.4842 14.3823 61.6802 14.0488 61.7939L13.8018 61.0146C14.1198 60.8747 14.3263 60.6378 14.4209 60.3047C14.5155 59.9718 14.4987 59.6039 14.3711 59.2012C14.2777 58.9065 14.1481 58.6625 13.9824 58.4707C13.8174 58.2812 13.6313 58.1505 13.4248 58.0781C13.2191 58.008 13.0098 58.0053 12.7969 58.0703C12.6186 58.1248 12.4784 58.2142 12.377 58.3379C12.2785 58.463 12.2082 58.6056 12.166 58.7656C12.126 58.9252 12.1023 59.0871 12.0947 59.251C12.0893 59.4142 12.0901 59.5629 12.0967 59.6963L12.1279 60.4277C12.1372 60.6149 12.1351 60.8268 12.1221 61.0635C12.1097 61.3024 12.0655 61.541 11.9883 61.7783C11.9139 62.0173 11.7889 62.2342 11.6143 62.4277C11.4396 62.6212 11.1957 62.7657 10.8828 62.8613C10.5221 62.9715 10.1663 62.9764 9.81543 62.877C9.46519 62.7796 9.14702 62.5775 8.86133 62.2705C8.57626 61.9655 8.35257 61.5572 8.19043 61.0459C8.03929 60.5693 7.98559 60.1332 8.0293 59.7373C8.0737 59.3435 8.2022 59.0043 8.41504 58.7207C8.62853 58.4394 8.91376 58.2303 9.27051 58.0928L9.53418 58.9248C9.289 59.0235 9.10673 59.1714 8.98828 59.3691C8.87275 59.5683 8.81105 59.794 8.80273 60.0459C8.79731 60.2994 8.83611 60.5589 8.91992 60.8232C9.01744 61.1307 9.15552 61.3913 9.33301 61.6055C9.51275 61.819 9.71572 61.9697 9.94141 62.0576C10.1693 62.1448 10.405 62.1515 10.6484 62.0771C10.8701 62.0094 11.0309 61.8925 11.1309 61.7266C11.2308 61.5606 11.2924 61.3637 11.3154 61.1357C11.3385 60.9078 11.3459 60.6669 11.3369 60.4131L11.3115 59.5225C11.2966 58.9567 11.3805 58.4791 11.5625 58.0908C11.7446 57.7027 12.0609 57.4401 12.5107 57.3027ZM81.7305 56.4873C82.0526 56.3453 82.3873 56.3061 82.7344 56.3691L82.5322 57.1621C82.1844 57.129 81.8807 57.2329 81.6221 57.4746C81.3635 57.7163 81.1827 58.0426 81.0781 58.4521C81.0017 58.7515 80.983 59.0239 81.0234 59.2695C81.0644 59.513 81.1549 59.7156 81.2939 59.8779C81.4335 60.0381 81.6123 60.1416 81.8301 60.1885C82.012 60.2276 82.1792 60.2186 82.332 60.1611C82.4834 60.1008 82.6207 60.0114 82.7422 59.8936C82.8613 59.7753 82.9678 59.6474 83.0615 59.5098C83.153 59.3716 83.2315 59.2433 83.2969 59.125L83.6592 58.4775C83.7508 58.3116 83.8648 58.1295 84.002 57.9316C84.1398 57.7314 84.3053 57.5474 84.498 57.3799C84.6892 57.2096 84.9119 57.0835 85.165 57.001C85.4181 56.9185 85.7046 56.9116 86.0244 56.9805C86.3929 57.0599 86.7015 57.227 86.9502 57.4824C87.1995 57.7359 87.366 58.0646 87.4482 58.4678C87.531 58.8689 87.5057 59.3299 87.373 59.8496C87.2494 60.3338 87.0635 60.7362 86.8154 61.0566C86.5677 61.375 86.2763 61.6052 85.9424 61.7471C85.6092 61.8866 85.2528 61.9298 84.873 61.876L85.0889 61.0303C85.352 61.0637 85.587 61.0234 85.7939 60.9102C85.9994 60.7941 86.1732 60.6295 86.3145 60.416C86.454 60.1998 86.5584 59.9571 86.627 59.6885C86.7067 59.3759 86.7271 59.0842 86.6885 58.8135C86.6476 58.5423 86.5534 58.3139 86.4062 58.1289C86.2568 57.9434 86.0573 57.8241 85.8086 57.7705C85.582 57.7217 85.3813 57.744 85.207 57.8389C85.0329 57.9337 84.8755 58.0743 84.7344 58.2598C84.5932 58.4454 84.4584 58.6506 84.3311 58.874L83.8789 59.6543C83.5907 60.1498 83.2645 60.5215 82.9014 60.7686C82.5384 61.0154 82.1267 61.0892 81.667 60.9902C81.285 60.9079 80.9781 60.7337 80.7461 60.4678C80.5124 60.1992 80.3609 59.8739 80.292 59.4922C80.2214 59.1076 80.2414 58.6992 80.3516 58.2676C80.4629 57.8316 80.6404 57.4604 80.8848 57.1553C81.1268 56.8498 81.4089 56.6271 81.7305 56.4873ZM54.2461 34.5469C55.0732 34.4282 55.8919 34.5328 56.4941 34.8975C56.8003 35.0829 57.058 35.3416 57.2148 35.6758C57.3727 36.0125 57.4129 36.3938 57.335 36.7949C57.1828 37.5766 56.5861 38.4384 55.5244 39.3535C55.3153 39.5333 54.9995 39.5096 54.8193 39.3008C54.6392 39.0918 54.6624 38.7761 54.8711 38.5957C55.8677 37.7367 56.2647 37.06 56.3535 36.6045C56.3957 36.3874 56.3675 36.2243 56.3096 36.1006C56.2503 35.9743 56.1429 35.8543 55.9756 35.7529C55.6304 35.5441 55.0653 35.4388 54.3877 35.5361C53.7201 35.632 52.9898 35.9199 52.3447 36.4297C50.9685 37.5176 50.8809 38.1254 50.9473 38.4453C50.9879 38.6398 51.1011 38.8343 51.2793 39.0645C51.3692 39.1805 51.4604 39.2877 51.5635 39.4131C51.6609 39.5316 51.7668 39.6644 51.8574 39.8037C51.8914 39.8556 51.9998 39.9742 52.2197 40.1719C52.427 40.3581 52.6944 40.5806 53.0029 40.8369C53.6137 41.3444 54.376 41.9716 55.0732 42.6357C55.7645 43.2942 56.4284 44.0232 56.8203 44.7422C57.21 45.4573 57.3987 46.306 56.8535 47.0439C56.4034 47.6529 55.7282 48.0679 54.9922 48.332C54.253 48.5972 53.4194 48.7224 52.6064 48.7305C51.7934 48.7385 50.9803 48.6292 50.2773 48.4111C49.5851 48.1963 48.9461 47.8587 48.5449 47.3691C48.3456 47.1258 48.2134 46.8645 48.1631 46.5869C48.1126 46.3076 48.1506 46.0433 48.2402 45.8047C48.4115 45.3496 48.7799 44.9687 49.1182 44.667C49.2934 44.5107 49.479 44.3611 49.6504 44.2227C49.8255 44.0812 49.9846 43.9528 50.125 43.8291C50.1516 43.8056 50.1761 43.7809 50.2002 43.7588C49.7946 43.8114 49.2617 43.9252 48.6953 44.0674C48.0633 44.226 47.4139 44.4111 46.8965 44.5615C46.6399 44.6361 46.4114 44.7036 46.2393 44.7529C46.0859 44.7969 45.9285 44.8415 45.8438 44.8545C45.7858 44.8634 45.5703 44.9149 45.2393 45.001C44.9233 45.0831 44.5339 45.1876 44.1543 45.291C43.775 45.3944 43.4065 45.4964 43.1328 45.5723C42.996 45.6102 42.8825 45.6421 42.8037 45.6641C42.7644 45.675 42.7329 45.6836 42.7119 45.6895C42.7041 45.6916 42.6973 45.6929 42.6924 45.6943C42.2701 45.8302 40.6498 46.358 39.1299 46.8535C38.3665 47.1024 37.6287 47.3431 37.082 47.5215C36.8088 47.6106 36.583 47.684 36.4258 47.7354C36.3474 47.7609 36.286 47.7813 36.2441 47.7949C36.2235 47.8017 36.2071 47.807 36.1963 47.8105C36.191 47.8123 36.1863 47.8136 36.1836 47.8145C36.1824 47.8148 36.1813 47.8152 36.1807 47.8154L36.1797 47.8164L36.167 47.8203H36.166C36.1649 47.8207 36.1632 47.8216 36.1611 47.8223C36.1568 47.8236 36.1501 47.8256 36.1416 47.8281C36.1244 47.8333 36.0987 47.8406 36.0654 47.8506C35.9984 47.8707 35.8992 47.9004 35.7734 47.9385C35.5217 48.0147 35.1609 48.125 34.7246 48.2598C33.8511 48.5295 32.6754 48.8986 31.4668 49.2959C30.2573 49.6935 29.0193 50.1173 28.0186 50.498C27.5178 50.6886 27.0816 50.8666 26.7412 51.0225C26.3846 51.1858 26.1798 51.3043 26.1016 51.3701C25.8404 51.5899 25.6751 51.7575 25.5801 51.8838C25.5486 51.9256 25.5295 51.9582 25.5176 51.9805L25.5186 51.9814C25.5884 52.0364 25.7187 52.107 25.9395 52.1934C25.9612 52.1969 25.9952 52.2011 26.043 52.2061C26.1411 52.2162 26.2793 52.2268 26.458 52.2373C26.8149 52.2582 27.3143 52.2781 27.9385 52.2969C29.186 52.3344 30.9182 52.3673 32.9746 52.3945C37.0866 52.4491 42.4882 52.4829 47.8906 52.4951C53.2931 52.5074 58.6952 52.4982 62.8076 52.4668C64.864 52.4511 66.5965 52.4291 67.8447 52.4023C68.4691 52.3889 68.9699 52.3744 69.3281 52.3584C69.5073 52.3504 69.647 52.3421 69.7471 52.334C69.8714 52.3239 69.8835 52.3173 69.8516 52.3271C70.1153 52.2458 70.395 52.3936 70.4766 52.6572C70.5577 52.921 70.4102 53.2019 70.1465 53.2832C70.0527 53.3121 69.9217 53.3235 69.8281 53.3311C69.7104 53.3406 69.5564 53.3492 69.3721 53.3574C69.0024 53.3739 68.493 53.3889 67.8662 53.4023C66.6111 53.4293 64.8725 53.4511 62.8145 53.4668C58.6979 53.4982 53.2929 53.5074 47.8887 53.4951C42.4841 53.4829 37.078 53.4491 32.9609 53.3945C30.9028 53.3672 29.1641 53.3346 27.9082 53.2969C27.281 53.278 26.7705 53.2571 26.3994 53.2354C26.2145 53.2245 26.0592 53.2136 25.9395 53.2012C25.8798 53.195 25.8233 53.1877 25.7744 53.1797C25.7354 53.1733 25.6662 53.1604 25.5996 53.1348C25.3382 53.0339 25.0896 52.9174 24.8984 52.7666C24.6997 52.6097 24.5157 52.3758 24.5 52.0527C24.4857 51.7534 24.6243 51.4918 24.7812 51.2832C24.9431 51.0682 25.1747 50.8438 25.458 50.6055C25.6521 50.4421 25.9721 50.2746 26.3242 50.1133C26.6929 49.9444 27.1516 49.7577 27.6621 49.5635C28.6841 49.1746 29.9393 48.7451 31.1543 48.3457C32.3705 47.9459 33.5526 47.5745 34.4297 47.3037C34.8682 47.1683 35.2312 47.0581 35.4844 46.9814C35.6107 46.9432 35.7097 46.9129 35.7773 46.8926C35.8108 46.8825 35.837 46.8754 35.8545 46.8701C35.8632 46.8675 35.8705 46.8646 35.875 46.8633C35.8765 46.8628 35.8779 46.8626 35.8789 46.8623C35.8808 46.8617 35.8833 46.8612 35.8857 46.8604C35.8965 46.8568 35.9127 46.8515 35.9336 46.8447C35.9754 46.8311 36.0369 46.8107 36.1152 46.7852C36.2725 46.7338 36.4991 46.6605 36.7725 46.5713C37.3192 46.3929 38.057 46.1522 38.8203 45.9033C40.3463 45.4058 41.9777 44.8737 42.3926 44.7402L42.4014 44.7373L42.4111 44.7354L42.4131 44.7344C42.4145 44.734 42.4164 44.7331 42.4189 44.7324C42.4244 44.7309 42.4328 44.7285 42.4434 44.7256C42.4645 44.7197 42.4958 44.7112 42.5352 44.7002C42.6143 44.6781 42.7281 44.6464 42.8652 44.6084C43.1398 44.5322 43.5103 44.4301 43.8916 44.3262C44.2726 44.2224 44.6667 44.1168 44.9883 44.0332C45.2942 43.9537 45.5707 43.8839 45.6924 43.8652C45.6981 43.8639 45.7186 43.8596 45.7598 43.8486C45.8112 43.835 45.8794 43.8152 45.9639 43.791C46.1338 43.7423 46.3554 43.6777 46.6172 43.6016C47.1366 43.4505 47.8003 43.2601 48.4512 43.0967C49.0956 42.9349 49.7534 42.7925 50.252 42.7441C50.4909 42.721 50.7494 42.7131 50.9619 42.7646C51.0678 42.7904 51.2214 42.845 51.3457 42.9746C51.4925 43.1279 51.5428 43.3273 51.5146 43.5156C51.4781 43.7583 51.3557 43.9638 51.2314 44.123C51.1045 44.2857 50.9452 44.4389 50.7861 44.5791C50.6261 44.7201 50.4476 44.8632 50.2783 45C50.1053 45.1398 49.9379 45.2761 49.7832 45.4141C49.4616 45.7009 49.2567 45.9443 49.1768 46.1562C49.1412 46.2509 49.1335 46.3321 49.1475 46.4092C49.1619 46.4882 49.2047 46.5966 49.3184 46.7354C49.5439 47.0105 49.9717 47.2694 50.5732 47.4561C51.1644 47.6395 51.8732 47.7377 52.5967 47.7305C53.3204 47.7233 54.0396 47.6111 54.6543 47.3906C55.2718 47.1691 55.7529 46.8495 56.0488 46.4492C56.2495 46.1776 56.2591 45.8018 55.9424 45.2207C55.6275 44.6432 55.0566 44.0022 54.3828 43.3604C53.7151 42.7243 52.9814 42.12 52.3633 41.6064C52.0575 41.3524 51.7759 41.1164 51.5518 40.915C51.3412 40.7259 51.1342 40.5264 51.0186 40.3486C50.9602 40.2589 50.8851 40.1623 50.791 40.0479C50.7024 39.94 50.5901 39.8083 50.4883 39.6768C50.2831 39.4117 50.0555 39.0702 49.9678 38.6484C49.7781 37.7346 50.2871 36.7808 51.7246 35.6445C52.5119 35.0223 53.4087 34.6671 54.2461 34.5469ZM10.6738 47.0732H12.8535L11.0898 48.3545L11.7637 50.4268L10 49.1455L8.23633 50.4268L8.91016 48.3545L7.14648 47.0732H9.32617L10 45L10.6738 47.0732ZM86.6729 47.0732H88.8525L87.0889 48.3545L87.7627 50.4268L85.999 49.1465L84.2354 50.4268L84.9092 48.3545L83.1465 47.0732H85.3252L85.999 45L86.6729 47.0732ZM8.49316 38.5254C8.74393 38.4015 9.01058 38.3603 9.29199 38.4023L9.1709 39.0518C8.89049 39.0342 8.65266 39.1278 8.45801 39.3311C8.26347 39.5342 8.13478 39.8033 8.07227 40.1387C8.02655 40.384 8.02617 40.6062 8.07129 40.8047C8.11675 41.0011 8.19969 41.163 8.31934 41.291C8.43947 41.4174 8.58781 41.497 8.76465 41.5293C8.91266 41.5563 9.04641 41.5441 9.16602 41.4932C9.28414 41.4401 9.38924 41.3646 9.48047 41.2656C9.56985 41.1664 9.64884 41.0597 9.7168 40.9453C9.78296 40.8306 9.83853 40.7238 9.88477 40.626L10.1416 40.0908C10.2064 39.9535 10.289 39.8022 10.3887 39.6377C10.4886 39.4715 10.6113 39.3178 10.7568 39.1768C10.9011 39.0334 11.073 38.9244 11.2715 38.8506C11.47 38.7768 11.6991 38.7641 11.959 38.8115C12.2586 38.8662 12.515 38.9933 12.7275 39.1943C12.9404 39.3935 13.09 39.6561 13.1768 39.9814C13.2639 40.3051 13.2678 40.6798 13.1885 41.1055C13.1145 41.5023 12.987 41.8346 12.8047 42.1016C12.6227 42.3668 12.4008 42.5614 12.1406 42.6855C11.8809 42.8077 11.5971 42.852 11.29 42.8184L11.4199 42.126C11.6324 42.146 11.8186 42.1072 11.9785 42.0098C12.1371 41.91 12.268 41.771 12.3701 41.5938C12.4706 41.4146 12.541 41.2149 12.582 40.9951C12.6298 40.739 12.631 40.5012 12.5859 40.2822C12.5391 40.063 12.4518 39.8797 12.3242 39.7334C12.1948 39.5869 12.0291 39.4949 11.8271 39.458C11.6431 39.4244 11.4833 39.4485 11.3486 39.5303C11.2141 39.6119 11.0956 39.7304 10.9922 39.8848C10.8887 40.0393 10.7916 40.2096 10.7012 40.3945L10.3789 41.041C10.1737 41.451 9.93136 41.7614 9.65332 41.9717C9.37531 42.1818 9.04921 42.2527 8.67578 42.1846C8.36564 42.1279 8.11077 41.9948 7.91113 41.7852C7.7099 41.5731 7.57112 41.3123 7.49609 41.0039C7.41974 40.6937 7.4147 40.3619 7.48047 40.0088C7.54704 39.6517 7.67066 39.3452 7.85059 39.0908C8.02867 38.8362 8.24279 38.6475 8.49316 38.5254ZM86.6602 38.5752L84.3145 40.5547L84.3252 40.6201L87.1689 41.7266L87.293 42.498L83.7012 41.0371L81.4102 41.4229L81.3018 40.749L83.5928 40.3633L86.5352 37.8037L86.6602 38.5752ZM10.3174 32.4873L9.41113 35.0508L11.207 35.6826L12.0557 33.2852L12.627 33.4863L11.7783 35.8828L13.585 36.5186L14.5068 33.9141L15.0781 34.1152L13.9287 37.3633L8.6123 35.4932L9.74707 32.2861L10.3174 32.4873ZM85.9102 35.5605L85.3379 35.7598L84.7686 34.0811L80.0156 35.7305L79.7969 35.084L84.5488 33.4346L83.9795 31.7568L84.5518 31.5576L85.9102 35.5605ZM17.8682 28.6035L17.5254 29.2314L15.8525 28.9639L14.7617 30.9658L15.8916 32.2275L15.5488 32.8564L11.5918 28.3389L11.9297 27.7207L17.8682 28.6035ZM83.6602 29.6904L78.585 32.1436L78.292 31.5264L83.3672 29.0742L83.6602 29.6904ZM12.5332 28.4766L14.333 30.4863L15.2188 28.8623L12.5537 28.4375L12.5332 28.4766ZM78.8291 23.8574C79.308 23.803 79.7469 23.869 80.1455 24.0566C80.5442 24.2444 80.873 24.5412 81.1318 24.9463C81.285 25.1859 81.3939 25.4334 81.459 25.6885C81.525 25.9451 81.5458 26.2022 81.5205 26.459C81.4967 26.7146 81.4254 26.9613 81.3076 27.1992C81.1913 27.4363 81.0253 27.6556 80.8096 27.8564L80.4424 27.2812C80.5854 27.1406 80.6923 26.9871 80.7627 26.8213C80.834 26.6571 80.8732 26.4869 80.8809 26.3115C80.891 26.1368 80.8709 25.9631 80.8213 25.79C80.7715 25.6168 80.6965 25.4507 80.5957 25.293C80.412 25.0055 80.1728 24.792 79.8789 24.6523C79.586 24.5143 79.2544 24.4678 78.8848 24.5127C78.5162 24.5592 78.1272 24.7145 77.7178 24.9795C77.3081 25.2447 77.0055 25.5369 76.8105 25.8555C76.6166 26.1755 76.521 26.4986 76.5244 26.8242C76.5288 27.1512 76.623 27.4586 76.8066 27.7461C76.9074 27.9038 77.0261 28.0418 77.1621 28.1592C77.2981 28.2765 77.4467 28.3675 77.6074 28.4316C77.7706 28.4963 77.9412 28.5295 78.1191 28.5322C78.2998 28.5355 78.483 28.5014 78.668 28.4297L79.0352 29.0049C78.7658 29.1181 78.4993 29.1792 78.2354 29.1885C77.9713 29.1977 77.7173 29.1605 77.4746 29.0771C77.2338 28.9929 77.011 28.8678 76.8066 28.7012C76.603 28.5358 76.4246 28.3324 76.2715 28.0928C76.0127 27.6878 75.8804 27.2642 75.876 26.8213C75.8716 26.3783 75.9934 25.9484 76.2412 25.5322C76.4891 25.1161 76.8624 24.7459 77.3613 24.4229C77.8603 24.0998 78.35 23.9119 78.8291 23.8574ZM18.7217 26.3418L20.3174 24.2627L20.7969 24.6328L18.7861 27.2529L14.3223 23.8105L14.7383 23.2695L18.7217 26.3418ZM78.2959 21.1826L73.9844 24.8125L73.5469 24.2891L77.8584 20.6582L78.2959 21.1826ZM76.3887 18.9619L75.9727 19.4023L74.6885 18.1807L71.2344 21.8389L70.7402 21.3682L74.1934 17.71L72.9092 16.4883L73.3252 16.0488L76.3887 18.9619ZM23.0127 15.1826C23.4504 15.131 23.888 15.2068 24.3252 15.4102C24.7624 15.6136 25.1671 15.9477 25.5381 16.4121C25.909 16.8764 26.1458 17.3454 26.249 17.8184C26.3522 18.2914 26.3321 18.7377 26.1875 19.1562C26.0428 19.5748 25.7832 19.9354 25.4092 20.2373C25.0352 20.5392 24.6292 20.716 24.1914 20.7676C23.7537 20.8192 23.3161 20.7434 22.8789 20.54C22.4417 20.3366 22.037 20.0025 21.666 19.5381C21.295 19.0736 21.0583 18.604 20.9551 18.1309C20.852 17.658 20.8721 17.2123 21.0166 16.7939C21.1613 16.3754 21.4209 16.0148 21.7949 15.7129C22.1689 15.411 22.5749 15.2342 23.0127 15.1826ZM24.0625 16.0156C23.7273 15.8547 23.3974 15.7937 23.0742 15.833C22.7525 15.8712 22.4588 15.9976 22.1934 16.2119C21.9279 16.4262 21.7407 16.6875 21.6328 16.9961C21.5263 17.3036 21.5152 17.6401 21.5977 18.0049C21.6816 18.3686 21.8751 18.7418 22.1797 19.123C22.4843 19.5044 22.8045 19.7756 23.1396 19.9365C23.4761 20.0962 23.8053 20.1571 24.127 20.1191C24.4502 20.0799 24.7452 19.9526 25.0107 19.7383C25.2762 19.524 25.4619 19.2626 25.5684 18.9551C25.6762 18.6464 25.6884 18.31 25.6045 17.9463C25.522 17.5815 25.3289 17.2083 25.0244 16.8271C24.7199 16.4459 24.399 16.1754 24.0625 16.0156ZM67.9766 12.2617L68.1133 17.666L68.1592 17.6963L70.5957 13.9893L71.1562 14.3584L68.0605 19.0684L67.5088 18.7051L67.376 13.3164L67.3301 13.2861L64.8984 16.9834L64.3291 16.6084L67.4248 11.8984L67.9766 12.2617ZM29.3994 11.5293L27.0459 12.8447L27.9639 14.5127L30.0977 13.3203L30.3896 13.8506L28.2568 15.043L29.4727 17.252L28.877 17.585L26.1582 12.6475L29.1074 10.998L29.3994 11.5293ZM64.9443 10.6318L64.7002 11.1855L62.2109 10.0908L61.4434 11.834L63.7705 12.8574L63.5264 13.4111L61.1992 12.3877L60.4258 14.1406L62.9551 15.2529L62.7109 15.8066L59.5576 14.4199L61.8311 9.26172L64.9443 10.6318ZM39.8848 13.0244L39.1973 13.2236L38.2178 11.8457L36.0293 12.4814L35.9199 14.1758L35.2334 14.376L35.6846 8.375L36.3613 8.17871L39.8848 13.0244ZM55.4209 7.38672L54.8047 9.81934L57.7207 10.5479L58.3359 8.11523L58.998 8.28027L57.6152 13.7441L56.9531 13.5791L57.5723 11.1348L54.6562 10.4062L54.0381 12.8506L53.375 12.6855L54.7588 7.2207L55.4209 7.38672ZM45.5117 10.3525C45.5501 10.7359 45.4942 11.0878 45.3438 11.4082C45.195 11.7265 44.9662 11.99 44.6572 12.1982C44.3479 12.4046 43.9729 12.5313 43.5332 12.5781C43.0937 12.625 42.7021 12.5801 42.3584 12.4434C42.0146 12.3048 41.737 12.0955 41.5264 11.8154C41.3174 11.5333 41.1937 11.1998 41.1553 10.8164L40.7832 7.10352L41.4619 7.03125L41.8281 10.6895C41.8555 10.9632 41.9403 11.2007 42.082 11.4014C42.2236 11.6002 42.4119 11.7491 42.6465 11.8477C42.883 11.9442 43.1578 11.9766 43.4697 11.9434C43.7815 11.9101 44.0436 11.8211 44.2559 11.6768C44.468 11.5305 44.6233 11.3445 44.7207 11.1201C44.8195 10.8938 44.8555 10.6437 44.8281 10.3701L44.4609 6.71191L45.1396 6.63965L45.5117 10.3525ZM52.1035 6.84473L52.0586 7.44824L50.29 7.32617L49.9189 12.3438L49.2383 12.2969L49.6094 7.2793L47.8418 7.15723L47.8857 6.55371L52.1035 6.84473ZM36.2451 9.14062L36.0703 11.8398L37.8467 11.3232L36.2871 9.12891L36.2451 9.14062Z" fill="#5B5B5B"/>
</svg>
