<svg width="101" height="99" viewBox="0 0 101 99" fill="none" xmlns="http://www.w3.org/2000/svg">
<path d="M81.5589 30.0799C81.5589 30.0799 74.5 19.6214 64.2793 15.0406" stroke="#5B5B5B" stroke-width="5" stroke-linecap="round" stroke-linejoin="round"/>
<path d="M69.0065 27.4089L69.5335 27.304C72.7365 26.6776 75.5513 24.8601 77.3634 22.2484C79.1755 19.6366 79.8377 16.4427 79.2054 13.3639C78.8932 11.8438 78.2709 10.398 77.3744 9.10969C76.4779 7.82138 75.3249 6.71599 73.9816 5.85713C72.6384 4.99828 71.1315 4.40292 69.5477 4.10532C67.9638 3.80773 66.3343 3.81376 64.7529 4.12309L52.9967 6.41591C52.634 6.48661 52.3152 6.69229 52.1101 6.98798C51.9049 7.28367 51.8301 7.64531 51.9019 7.99383L53.9155 17.7599C54.2413 19.347 54.891 20.8565 55.8271 22.2016C56.7631 23.5466 57.9671 24.7006 59.3697 25.5971C60.7722 26.4936 62.3457 27.1149 63.9994 27.4253C65.6531 27.7356 67.3556 27.7325 69.0065 27.4089Z" stroke="#5B5B5B" stroke-width="5" stroke-linecap="round" stroke-linejoin="round"/>
<path d="M2.5 82.9582H19.9545M67.9545 48.1806L87.7279 47.9746C89.0121 47.9612 90.2246 48.5652 90.9874 49.5984L97.7179 58.7139C98.2259 59.4019 98.5 60.2346 98.5 61.0898V78.9582C98.5 81.1674 96.7091 82.9582 94.5 82.9582H83.2273M67.9545 48.1806V82.9582M67.9545 48.1806V38.3994M83.2273 82.9582H67.9545M83.2273 82.9582C89.7727 100.347 63.5909 100.347 67.9545 82.9582M67.9545 82.9582H35.2273M35.2273 82.9582H19.9545M35.2273 82.9582C41.7727 100.347 15.5909 100.347 19.9545 82.9582M13.4091 64.0004V23.1992C13.4091 20.9901 15.2 19.1992 17.4091 19.1992H42.5" stroke="#5B5B5B" stroke-width="5" stroke-linecap="round"/>
</svg>
