<svg width="40" height="40" viewBox="0 0 40 40" fill="none" xmlns="http://www.w3.org/2000/svg">
<path d="M20 17C22.4853 17 24.5 14.9853 24.5 12.5C24.5 10.0147 22.4853 8 20 8C17.5147 8 15.5 10.0147 15.5 12.5C15.5 14.9853 17.5147 17 20 17Z" stroke="#242424" stroke-width="2"/>
<path d="M8 28.5C8 26.9087 8.63214 25.8826 9.75736 24.7574C10.8826 23.6321 12.4087 23 14 23H26C27.5913 23 29.1174 23.6321 30.2426 24.7574C31.3679 25.8826 32 27.4087 32 29C32 29.7956 31.6839 30.5587 31.1213 31.1213C30.5587 31.6839 29.7956 32 29 32H11.5" stroke="#242424" stroke-width="2" stroke-linecap="round" stroke-linejoin="round"/>
</svg>
