<svg width="40" height="40" viewBox="0 0 40 40" fill="none" xmlns="http://www.w3.org/2000/svg">
<path d="M21 8L27.6187 15.6362M12.3812 15.6362L18 11M30.0567 15.6362H9.94325C9.65758 15.6296 9.37427 15.6967 9.11431 15.8325C8.85434 15.9683 8.62438 16.1694 8.44147 16.4208C8.25855 16.6722 8.12736 16.9676 8.05761 17.285C7.98787 17.6024 7.98136 17.9337 8.03856 18.2544L10.1337 30.2541C10.2228 30.7544 10.4621 31.203 10.8102 31.5219C11.1582 31.8408 11.5928 32.0098 12.0384 31.9996H27.9616C28.4072 32.0098 28.8418 31.8408 29.1898 31.5219C29.5379 31.203 29.7772 30.7544 29.8663 30.2541L31.9614 18.2544C32.0186 17.9337 32.0121 17.6024 31.9424 17.285C31.8726 16.9676 31.7415 16.6722 31.5585 16.4208C31.3756 16.1694 31.1457 15.9683 30.8857 15.8325C30.6257 15.6967 30.3424 15.6296 30.0567 15.6362Z" stroke="#242424" stroke-width="2" stroke-linecap="round" stroke-linejoin="round"/>
</svg>
