<svg width="26" height="26" viewBox="0 0 26 26" fill="none" xmlns="http://www.w3.org/2000/svg">
<path d="M14 1L20.6187 8.63622M5.38125 8.63622L11 4M23.0567 8.63622H2.94325C2.65758 8.6296 2.37427 8.69668 2.11431 8.83249C1.85434 8.96831 1.62438 9.16938 1.44147 9.42081C1.25855 9.67225 1.12736 9.9676 1.05761 10.285C0.98787 10.6024 0.981358 10.9337 1.03856 11.2544L3.13372 23.2541C3.22276 23.7544 3.46213 24.203 3.81015 24.5219C4.15818 24.8408 4.59281 25.0098 5.03841 24.9996H20.9616C21.4072 25.0098 21.8418 24.8408 22.1898 24.5219C22.5379 24.203 22.7772 23.7544 22.8663 23.2541L24.9614 11.2544C25.0186 10.9337 25.0121 10.6024 24.9424 10.285C24.8726 9.9676 24.7415 9.67225 24.5585 9.42081C24.3756 9.16938 24.1457 8.96831 23.8857 8.83249C23.6257 8.69668 23.3424 8.6296 23.0567 8.63622Z" stroke="black" stroke-width="2" stroke-linecap="round" stroke-linejoin="round"/>
</svg>
