<svg width="26" height="26" viewBox="0 0 26 26" fill="none" xmlns="http://www.w3.org/2000/svg">
<path d="M1 21.5C1 19.9087 1.63214 18.8826 2.75736 17.7574C3.88258 16.6321 5.4087 16 7 16H19C20.5913 16 22.1174 16.6321 23.2426 17.7574C24.3679 18.8826 25 20.4087 25 22C25 22.7956 24.6839 23.5587 24.1213 24.1213C23.5587 24.6839 22.7956 25 22 25H4.5" stroke="black" stroke-width="2" stroke-linecap="round" stroke-linejoin="round"/>
<path d="M13 10C15.4853 10 17.5 7.98528 17.5 5.5C17.5 3.01472 15.4853 1 13 1C10.5147 1 8.5 3.01472 8.5 5.5C8.5 7.98528 10.5147 10 13 10Z" stroke="black" stroke-width="2"/>
</svg>
