<svg width="1428" height="298" viewBox="0 0 1428 298" fill="none" xmlns="http://www.w3.org/2000/svg">
<path d="M438.865 66.8029C498.164 25.8982 434.568 6.85631 393.316 32.9507C352.786 58.5879 376.127 68.9191 384.721 79.4978C393.316 90.0765 478.398 133.097 456.912 156.371C435.427 179.644 366.674 177.528 348.626 159.897C330.578 142.265 376.59 129.571 378.706 118.287C380.424 109.118 308.233 128.235 303.077 128.866C297.92 129.496 256.669 138.739 256.669 138.739C244.761 141.804 162.766 163.22 162.766 163.22C162.766 163.22 30.9342 194.683 15.2413 205.249C-0.451579 215.815 0.975301 220.218 15.2413 224.621C29.5074 229.023 621.633 231.96 635.9 228.438" stroke="black" stroke-width="8" stroke-linecap="round"/>
<path d="M503.112 186.92C498.881 186.92 495.515 185.51 493.015 182.691C490.514 179.683 488.591 176.018 487.244 171.695C486.09 167.184 485.321 162.768 484.936 158.445C484.552 153.934 484.359 150.269 484.359 147.449C484.359 137.3 484.744 127.056 485.513 116.719C486.475 106.382 487.437 96.1381 488.398 85.9886C485.129 87.3043 481.955 88.8079 478.878 90.4995C475.992 92.1911 473.3 94.3526 470.799 96.9839C470.415 97.3598 469.934 97.7357 469.357 98.1116C468.972 98.4875 468.395 98.6755 467.626 98.6755C466.279 98.6755 464.933 98.0177 463.587 96.702C462.432 95.3863 461.855 94.0706 461.855 92.755C461.855 91.0634 463.01 89.3718 465.318 87.6802C467.626 85.8007 470.415 84.1091 473.684 82.6055C477.147 80.9139 480.32 79.5043 483.205 78.3765C486.283 77.2488 488.398 76.497 489.552 76.1211C489.745 74.6175 490.129 71.7982 490.707 67.6632C491.476 63.3403 492.341 58.5475 493.303 53.2848C494.265 47.8341 495.323 42.6654 496.477 37.7786C497.823 32.7039 499.169 28.5689 500.516 25.3737C501.862 21.9905 503.209 20.299 504.555 20.299C505.901 20.299 507.248 20.7688 508.594 21.7086C509.941 22.6484 510.614 23.7761 510.614 25.0918C510.614 25.6556 510.133 28.005 509.171 32.14C508.209 36.275 506.959 41.1618 505.421 46.8004C504.074 52.251 502.824 57.4197 501.67 62.3065C500.708 67.1933 500.035 70.5765 499.65 72.456C508.113 70.0126 516.192 68.0391 523.885 66.5355C531.771 65.0319 540.042 64.28 548.697 64.28C549.466 64.28 550.909 64.28 553.025 64.28C555.14 64.28 557.16 64.374 559.083 64.562C561.199 64.7499 562.257 65.1258 562.257 65.6897C560.334 66.4415 558.218 67.0054 555.91 67.3813C553.794 67.7572 551.678 68.0391 549.563 68.2271C540.33 68.9789 531.579 70.6704 523.308 73.3018C515.23 75.9331 506.959 78.8464 498.496 82.0416C497.15 92.755 495.996 103.656 495.034 114.746C494.072 125.647 493.592 136.454 493.592 147.167C493.592 149.235 493.688 152.054 493.88 155.625C494.072 159.009 494.457 162.486 495.034 166.057C495.611 169.44 496.573 172.353 497.919 174.797C499.266 177.24 501.189 178.462 503.689 178.462C506.959 178.462 510.325 176.676 513.787 173.105C517.249 169.346 520.712 164.835 524.174 159.572C527.636 154.122 530.809 148.671 533.695 143.22C536.58 137.77 539.08 133.165 541.196 129.406C543.504 125.647 545.043 123.673 545.812 123.485V124.331C545.812 127.15 544.85 131.097 542.927 136.172C541.003 141.247 538.407 146.698 535.137 152.524C532.06 158.163 528.598 163.613 524.751 168.876C521.096 174.139 517.346 178.462 513.499 181.845C509.844 185.228 506.382 186.92 503.112 186.92Z" fill="black"/>
<path d="M566.961 196.223C563.307 196.223 560.229 194.908 557.729 192.276C555.421 189.645 553.593 186.45 552.247 182.691C550.901 178.744 549.939 174.797 549.362 170.85C548.977 166.903 548.785 163.613 548.785 160.982C548.785 158.163 549.073 153.652 549.651 147.449C550.42 141.059 551.574 134.011 553.113 126.305C554.651 118.599 556.575 111.174 558.883 104.032C561.191 96.702 563.884 90.5935 566.961 85.7067C570.231 80.8199 573.982 78.1886 578.213 77.8127C578.79 76.1211 579.656 74.7114 580.81 73.5837C581.964 72.2681 583.502 71.6102 585.426 71.6102C589.273 71.6102 592.639 73.2078 595.524 76.403C598.409 79.5982 600.813 83.5453 602.736 88.2441C604.66 92.9429 606.102 97.5478 607.064 102.059C608.218 106.57 608.795 110.235 608.795 113.054C608.795 121.7 607.93 130.252 606.199 138.71L608.507 138.991C614.084 138.991 618.412 138.146 621.49 136.454C624.567 134.763 626.971 133.165 628.702 131.661C630.433 129.97 631.876 129.124 633.03 129.124C634.184 129.124 634.761 129.782 634.761 131.097C634.761 133.353 633.511 135.42 631.01 137.3C628.702 138.991 625.817 140.589 622.355 142.093C618.893 143.408 615.527 144.348 612.257 144.912C608.987 145.476 606.487 145.57 604.756 145.194C603.794 149.141 602.159 154.028 599.851 159.854C597.736 165.493 595.043 171.132 591.773 176.77C588.696 182.221 585.041 186.826 580.81 190.585C576.578 194.344 571.962 196.223 566.961 196.223ZM598.409 133.071C599.563 126.493 600.14 119.82 600.14 113.054C600.14 111.55 599.755 109.013 598.986 105.442C598.409 101.683 597.447 97.7357 596.101 93.6008C594.947 89.4658 593.504 85.8947 591.773 82.8874C590.042 79.8802 588.215 78.3765 586.291 78.3765C585.33 78.3765 584.56 79.1283 583.983 80.632C583.599 81.9476 583.31 83.4513 583.118 85.1429C583.118 86.8344 583.118 87.9622 583.118 88.526C583.118 96.0442 584.272 103.938 586.58 112.208C589.08 120.29 593.023 127.244 598.409 133.071ZM567.827 188.893C570.712 188.893 573.693 187.014 576.77 183.255C579.848 179.307 582.733 174.609 585.426 169.158C588.311 163.519 590.715 158.163 592.639 153.088C594.562 148.013 595.812 144.254 596.389 141.811C589.08 136.924 583.599 130.346 579.944 122.076C576.482 113.806 574.751 105.348 574.751 96.702C574.751 92.9429 575.039 89.3718 575.616 85.9886C571.577 92.755 568.211 100.743 565.519 109.953C562.826 119.162 560.806 128.56 559.46 138.146C558.306 147.731 557.729 156.471 557.729 164.365C557.729 166.245 557.921 169.158 558.306 173.105C558.883 177.052 559.941 180.717 561.479 184.1C563.018 187.296 565.134 188.893 567.827 188.893Z" fill="black"/>
<path d="M642.226 190.867C640.88 190.867 639.822 190.397 639.053 189.457C638.283 188.517 637.899 187.389 637.899 186.074C637.899 178.932 638.187 171.789 638.764 164.647C639.533 157.317 639.918 150.081 639.918 142.939C639.918 138.24 639.726 132.319 639.341 125.177C639.149 117.847 638.476 110.705 637.322 103.75C636.36 96.608 634.629 91.1574 632.128 87.3983C631.936 87.0224 631.744 86.7405 631.551 86.5525C631.359 86.1766 631.263 85.8007 631.263 85.4248C631.263 84.2971 631.84 83.5453 632.994 83.1693C634.148 82.6055 635.11 82.3236 635.879 82.3236C638.572 82.3236 640.688 83.8272 642.226 86.8344C643.765 89.8417 644.919 93.6947 645.688 98.3936C646.458 103.092 646.939 107.979 647.131 113.054C647.516 117.941 647.708 122.452 647.708 126.587C647.708 130.534 647.708 133.259 647.708 134.763C647.708 136.642 647.708 138.428 647.708 140.119C647.9 141.811 647.996 143.596 647.996 145.476C648.766 142.845 650.112 138.804 652.036 133.353C653.959 127.902 656.267 121.888 658.96 115.309C661.653 108.543 664.538 102.153 667.615 96.1381C670.885 89.9357 674.059 84.8609 677.136 80.9139C680.406 76.9669 683.483 74.9934 686.368 74.9934C689.253 74.9934 691.369 76.7789 692.716 80.3501C694.062 83.9212 694.927 87.7742 695.312 91.9092C695.889 96.0442 696.178 99.1454 696.178 101.213C696.178 102.529 696.082 104.784 695.889 107.979C695.697 110.986 695.216 113.806 694.447 116.437C693.87 119.068 692.716 120.384 690.984 120.384C689.446 120.384 688.676 118.693 688.676 115.309C688.676 113.806 688.773 112.396 688.965 111.08C689.157 109.765 689.253 108.731 689.253 107.979C689.253 107.039 689.157 104.878 688.965 101.495C688.773 97.9237 688.292 94.5405 687.522 91.3453C686.945 88.1501 686.08 86.5525 684.926 86.5525C683.772 86.5525 682.329 87.6802 680.598 89.9357C679.059 92.0032 677.424 94.5405 675.693 97.5478C674.155 100.367 672.712 103.186 671.366 106.006C670.212 108.637 669.442 110.517 669.058 111.644C666.173 118.599 663.095 126.493 659.825 135.326C656.748 144.16 654.055 153.088 651.747 162.11C649.631 170.944 648.573 179.214 648.573 186.92C647.227 189.551 645.111 190.867 642.226 190.867Z" fill="black"/>
<path d="M695.889 294.617C691.273 294.617 687.907 293.019 685.791 289.824C683.676 286.817 682.329 283.152 681.752 278.829C680.983 274.506 680.598 270.747 680.598 267.552C680.598 259.845 681.656 251.012 683.772 241.05C685.695 231.277 688.773 221.597 693.004 212.011C697.236 202.614 702.621 194.438 709.161 187.483C715.7 180.341 723.394 175.736 732.241 173.669C732.818 173.481 733.684 173.387 734.838 173.387C738.685 173.387 741.185 174.985 742.339 178.18C743.686 181.375 744.359 184.476 744.359 187.483C744.359 188.611 744.167 190.679 743.782 193.686C743.397 196.881 742.628 199.794 741.474 202.426C740.512 205.057 739.166 206.373 737.435 206.373C736.665 206.373 735.992 205.997 735.415 205.245C735.03 204.681 734.838 204.023 734.838 203.272C734.838 200.64 735.319 198.009 736.281 195.377C737.242 192.746 737.723 190.115 737.723 187.483C737.723 185.416 737.435 183.818 736.858 182.691C736.473 181.563 735.127 180.999 732.818 180.999C731.28 180.999 729.068 181.939 726.183 183.818C723.298 185.51 721.278 186.826 720.124 187.765C713.2 193.404 707.333 200.358 702.525 208.628C697.909 217.086 694.35 225.92 691.85 235.13C689.542 244.527 688.388 253.643 688.388 262.477C688.388 264.168 688.484 266.894 688.676 270.653C688.869 274.412 689.446 277.889 690.407 281.084C691.561 284.467 693.389 286.159 695.889 286.159C699.351 286.159 703.102 284.279 707.141 280.52C711.18 276.761 715.123 272.156 718.97 266.706C722.817 261.443 726.183 256.18 729.068 250.918C731.953 245.843 733.973 241.802 735.127 238.795C741.474 221.691 746.667 204.681 750.706 187.765C754.745 170.85 756.765 153.276 756.765 135.044C756.765 128.09 756.476 121.136 755.899 114.182C754.745 117.189 752.918 121.136 750.418 126.023C748.109 130.722 745.321 135.796 742.051 141.247C738.973 146.698 735.607 151.866 731.953 156.753C728.491 161.64 724.836 165.681 720.99 168.876C717.335 171.883 713.681 173.387 710.026 173.387C707.718 173.387 705.987 172.541 704.833 170.85C703.871 168.97 703.198 166.903 702.813 164.647C702.621 162.204 702.525 160.23 702.525 158.727C702.525 156.659 702.813 153.182 703.39 148.295C703.967 143.408 704.737 137.864 705.698 131.661C706.66 125.459 707.718 119.256 708.872 113.054C710.026 106.851 711.084 101.307 712.046 96.42C713.2 91.3453 714.161 87.7742 714.931 85.7067C715.893 83.4513 717.335 82.3236 719.258 82.3236C720.605 82.3236 721.855 82.7934 723.009 83.7332C724.163 84.673 724.74 85.8947 724.74 87.3983C724.74 93.7887 723.586 100.743 721.278 108.261C719.162 115.779 717.047 123.391 714.931 131.097C712.815 138.616 711.757 146.04 711.757 153.37C711.757 153.934 711.853 155.531 712.046 158.163C712.238 160.794 712.719 162.11 713.488 162.11C713.873 162.11 714.161 162.204 714.354 162.392C714.546 162.392 714.738 162.298 714.931 162.11C720.124 160.23 724.933 156.377 729.356 150.551C733.78 144.536 737.723 137.676 741.185 129.97C744.84 122.264 747.821 114.652 750.129 107.133C752.63 99.6153 754.457 93.5068 755.611 88.808C755.803 88.0561 756.092 87.3043 756.476 86.5525C756.861 85.8007 757.534 85.4248 758.496 85.4248C760.227 85.4248 761.573 87.4923 762.535 91.6273C763.689 95.5743 764.458 100.367 764.843 106.006C765.42 111.456 765.805 116.531 765.997 121.23C766.19 125.741 766.286 128.466 766.286 129.406C766.286 149.329 763.881 169.064 759.073 188.611C754.457 208.158 748.013 227.048 739.743 245.279C738.204 248.662 735.8 253.079 732.53 258.53C729.453 263.98 725.798 269.431 721.567 274.882C717.527 280.52 713.2 285.219 708.584 288.978C704.16 292.737 699.928 294.617 695.889 294.617Z" fill="black"/>
<path d="M864.499 189.739C862.191 189.739 860.46 188.141 859.305 184.946C858.151 181.563 857.286 177.616 856.709 173.105C856.132 168.406 855.747 164.083 855.555 160.136C855.555 156.001 855.555 153.276 855.555 151.96C855.555 140.495 856.036 128.278 856.997 115.309C858.151 102.153 859.882 88.9019 862.191 75.5572C864.691 62.0246 867.961 49.1498 872 36.9328C876.039 24.5279 881.04 13.3447 887.002 3.38315C888.349 1.12772 890.368 0 893.061 0C894.215 0 895.273 0.375902 896.235 1.12771C897.197 1.69157 897.677 2.63134 897.677 3.94702C897.677 5.07474 897.293 6.39041 896.523 7.89404C890.945 20.4869 885.656 32.7979 880.655 44.8269C875.654 56.6679 871.615 69.3548 868.538 82.8874C864.499 100.931 862.479 119.256 862.479 137.864C862.479 146.886 863.056 155.813 864.21 164.647C865.172 161.64 867.095 157.035 869.98 150.833C872.865 144.63 876.231 137.77 880.078 130.252C884.117 122.734 888.349 115.497 892.773 108.543C897.389 101.589 901.813 95.9502 906.044 91.6273C910.276 87.1164 914.026 84.8609 917.296 84.8609C920.758 84.8609 922.97 86.5525 923.932 89.9357C925.086 93.1309 925.663 96.0441 925.663 98.6755C925.663 106.194 925.086 113.712 923.932 121.23C922.778 128.748 922.201 136.36 922.201 144.066C922.201 144.818 922.297 146.886 922.489 150.269C922.682 153.464 923.066 156.565 923.643 159.572C924.413 162.58 925.374 164.083 926.528 164.083C928.259 164.083 929.99 163.05 931.722 160.982C933.453 158.727 934.991 156.283 936.338 153.652C937.876 150.833 939.223 148.389 940.377 146.322C941.531 144.066 942.396 142.939 942.973 142.939C943.55 142.939 943.935 143.408 944.127 144.348C944.32 145.1 944.416 145.664 944.416 146.04C944.416 148.483 943.454 151.866 941.531 156.189C939.8 160.324 937.492 164.177 934.607 167.748C931.722 171.132 928.836 172.823 925.951 172.823C923.259 172.823 921.047 171.695 919.316 169.44C917.777 167.184 916.623 164.459 915.853 161.264C915.084 158.069 914.507 154.968 914.122 151.96C913.93 148.953 913.834 146.604 913.834 144.912C913.834 138.146 914.122 131.379 914.699 124.613C915.469 117.847 915.853 111.08 915.853 104.314V102.059C915.853 100.931 915.757 99.8972 915.565 98.9574C915.373 97.8297 914.892 97.2658 914.122 97.2658C912.968 97.2658 911.333 98.5815 909.218 101.213C907.102 103.656 905.659 105.348 904.89 106.288C899.697 112.678 894.696 120.29 889.888 129.124C885.271 137.958 881.232 147.073 877.77 156.471C874.308 165.681 871.808 174.327 870.269 182.409C870.076 183.912 869.499 185.51 868.538 187.202C867.768 188.893 866.422 189.739 864.499 189.739Z" fill="black"/>
<path d="M958.528 199.606C955.258 199.606 952.854 198.009 951.315 194.814C949.777 191.806 948.815 188.329 948.43 184.382C948.046 180.435 947.853 177.428 947.853 175.36C947.853 168.218 948.526 160.7 949.873 152.806C951.219 144.724 952.95 137.206 955.066 130.252C956.028 127.056 957.759 122.452 960.259 116.437C962.76 110.235 965.741 103.938 969.203 97.5478C972.858 91.1574 976.704 85.8007 980.744 81.4778C984.975 76.9669 989.206 74.7114 993.438 74.7114C996.708 74.7114 1000.27 76.1211 1004.11 78.9404C1007.96 81.7597 1009.88 84.8609 1009.88 88.2441C1009.88 89.5598 1009.4 90.6875 1008.44 91.6273C1008.63 91.4393 1009.11 91.3453 1009.88 91.3453C1013.54 91.3453 1015.36 93.2248 1015.36 96.9839C1015.36 101.307 1014.69 106.476 1013.35 112.49C1012.19 118.505 1010.94 124.895 1009.59 131.661C1008.25 138.24 1007.57 144.63 1007.57 150.833C1007.57 153.088 1007.77 155.813 1008.15 159.009C1008.54 162.016 1009.4 164.741 1010.75 167.184C1012.29 169.628 1014.69 170.85 1017.96 170.85C1021.04 170.85 1024.31 169.252 1027.77 166.057C1031.23 162.862 1034.6 158.915 1037.87 154.216C1041.14 149.517 1044.22 144.818 1047.1 140.119C1049.99 135.42 1052.39 131.473 1054.31 128.278C1056.43 125.083 1057.87 123.485 1058.64 123.485C1059.99 123.485 1060.66 124.331 1060.66 126.023C1060.66 128.278 1059.6 131.567 1057.49 135.89C1055.56 140.025 1052.97 144.63 1049.7 149.705C1046.43 154.592 1042.77 159.384 1038.73 164.083C1034.89 168.594 1030.94 172.353 1026.91 175.36C1023.06 178.18 1019.6 179.589 1016.52 179.589C1011.52 179.589 1007.67 177.616 1004.98 173.669C1002.48 169.534 1000.75 164.647 999.785 159.009C999.016 153.37 998.631 148.107 998.631 143.22C998.631 141.529 998.631 139.931 998.631 138.428C998.631 136.924 998.727 135.608 998.92 134.481C997.766 137.112 996.131 141.059 994.015 146.322C991.899 151.396 989.399 157.035 986.514 163.237C983.821 169.252 980.84 175.079 977.57 180.717C974.492 186.168 971.319 190.679 968.049 194.25C964.779 197.821 961.606 199.606 958.528 199.606ZM960.836 187.765C963.337 187.765 966.126 185.51 969.203 180.999C972.28 176.488 975.454 170.756 978.724 163.801C982.186 156.659 985.456 149.047 988.533 140.965C991.611 132.883 994.4 125.271 996.9 118.129C999.593 110.798 1001.8 104.784 1003.54 100.085C1005.27 95.1984 1006.42 92.567 1007 92.1911L1005.27 92.473C1003.92 92.473 1002.86 91.8152 1002.09 90.4995C1001.32 88.9959 1000.36 87.5863 999.208 86.2706C998.054 84.9549 996.131 84.2971 993.438 84.2971C989.976 84.2971 986.61 86.2706 983.34 90.2176C980.07 94.1646 976.897 98.9574 973.819 104.596C970.934 110.047 968.434 115.403 966.318 120.666C964.395 125.929 963.048 129.876 962.279 132.507C958.432 145.476 956.509 158.821 956.509 172.541C956.509 173.293 956.509 174.985 956.509 177.616C956.701 180.059 957.086 182.409 957.663 184.664C958.432 186.732 959.49 187.765 960.836 187.765Z" fill="black"/>
<path d="M1055.15 192.84C1053.81 192.84 1052.75 192.37 1051.98 191.43C1051.4 190.303 1051.12 189.081 1051.12 187.765C1051.12 177.24 1051.69 166.715 1052.85 156.189C1054.19 145.476 1054.87 134.857 1054.87 124.331C1054.87 123.203 1054.77 121.042 1054.58 117.847C1054.58 114.464 1054.39 110.892 1054 107.133C1053.81 103.186 1053.42 99.7092 1052.85 96.702C1052.46 93.5068 1051.88 91.5333 1051.12 90.7815C1050.35 90.2176 1049.58 89.5598 1048.81 88.808C1048.23 88.0561 1047.94 87.1164 1047.94 85.9886C1047.94 84.8609 1048.42 84.0151 1049.38 83.4513C1050.54 82.6995 1051.69 82.3236 1052.85 82.3236C1056.12 82.3236 1058.42 83.8272 1059.77 86.8344C1061.31 89.6537 1062.27 93.1309 1062.66 97.2658C1063.23 101.401 1063.52 105.348 1063.52 109.107C1063.52 126.775 1062.94 144.536 1061.79 162.392C1062.56 160.324 1064.1 156.659 1066.41 151.396C1068.71 146.134 1071.5 140.213 1074.77 133.635C1078.04 127.056 1081.41 120.76 1084.87 114.746C1088.53 108.543 1091.89 103.468 1094.97 99.5213C1098.05 95.3863 1100.55 93.3188 1102.47 93.3188C1105.16 93.3188 1107.09 95.0104 1108.24 98.3936C1109.59 101.589 1110.26 104.22 1110.26 106.288C1110.26 114.933 1109.78 123.579 1108.82 132.225C1108.05 140.871 1107.66 149.611 1107.66 158.445C1107.66 159.572 1107.76 161.734 1107.95 164.929C1108.34 167.936 1108.91 170.85 1109.68 173.669C1110.64 176.3 1112.09 177.616 1114.01 177.616C1115.55 177.616 1117.57 175.924 1120.07 172.541C1122.57 169.158 1125.17 165.211 1127.86 160.7C1130.55 156.001 1132.96 151.584 1135.07 147.449C1137.19 143.314 1138.63 140.401 1139.4 138.71C1139.59 138.334 1139.78 137.958 1139.98 137.582C1140.17 137.018 1140.46 136.736 1140.84 136.736C1141.8 136.736 1142.38 137.488 1142.57 138.991C1142.77 140.307 1142.86 141.153 1142.86 141.529C1142.86 143.408 1141.8 146.698 1139.69 151.396C1137.57 156.095 1134.88 161.076 1131.61 166.339C1128.53 171.601 1125.26 176.112 1121.8 179.871C1118.53 183.63 1115.55 185.51 1112.86 185.51C1109.01 185.51 1106.12 184.006 1104.2 180.999C1102.47 177.992 1101.32 174.609 1100.74 170.85C1100.16 166.903 1099.87 163.613 1099.87 160.982C1099.87 154.78 1100.16 148.577 1100.74 142.375C1101.51 136.172 1101.89 129.97 1101.89 123.767C1101.89 123.203 1101.8 121.794 1101.6 119.538C1101.6 117.283 1101.51 115.121 1101.32 113.054C1101.12 110.986 1100.64 109.953 1099.87 109.953C1097.95 109.953 1095.45 112.302 1092.37 117.001C1089.49 121.7 1086.31 127.62 1082.85 134.763C1079.58 141.905 1076.31 149.329 1073.04 157.035C1069.77 164.553 1066.89 171.319 1064.39 177.334C1062.08 183.348 1060.44 187.389 1059.48 189.457C1059.1 190.209 1058.52 190.961 1057.75 191.712C1057.17 192.464 1056.31 192.84 1055.15 192.84Z" fill="black"/>
<path d="M1139.73 298C1135.49 298 1132.32 296.778 1130.21 294.335C1128.28 292.079 1126.94 289.26 1126.17 285.877C1125.59 282.494 1125.3 279.205 1125.3 276.009C1125.3 268.867 1126.45 260.879 1128.76 252.045C1131.07 243.212 1134.24 234.19 1138.28 224.98C1142.52 215.77 1147.32 207.031 1152.71 198.761C1158.29 190.491 1164.25 183.161 1170.6 176.77C1176.94 170.38 1183.48 165.681 1190.22 162.674L1190.5 151.678C1190.5 149.611 1190.41 146.134 1190.22 141.247C1190.22 136.172 1190.02 130.722 1189.64 124.895C1189.25 119.068 1188.77 113.9 1188.2 109.389C1187.62 104.878 1187.04 102.153 1186.46 101.213C1184.73 103.844 1182.62 108.449 1180.12 115.027C1177.62 121.606 1174.83 128.936 1171.75 137.018C1168.67 144.912 1165.4 152.618 1161.94 160.136C1158.67 167.654 1155.21 173.857 1151.56 178.744C1148.09 183.63 1144.63 186.074 1141.17 186.074C1137.13 186.074 1134.05 184.852 1131.94 182.409C1130.01 179.965 1128.67 177.052 1127.9 173.669C1127.32 170.098 1127.03 166.809 1127.03 163.801C1127.03 160.23 1127.9 154.874 1129.63 147.731C1131.36 140.589 1133.67 132.883 1136.55 124.613C1139.63 116.155 1143.09 108.167 1146.94 100.649C1150.98 92.9429 1155.21 86.6465 1159.63 81.7597C1164.06 76.8729 1168.58 74.4295 1173.19 74.4295C1175.89 74.4295 1178.1 75.3693 1179.83 77.2488C1181.75 79.1283 1183.2 81.1958 1184.16 83.4513C1184.54 82.8874 1185.21 82.6055 1186.18 82.6055C1189.06 82.6055 1191.37 85.0489 1193.1 89.9357C1194.83 94.8224 1196.08 100.931 1196.85 108.261C1197.81 115.403 1198.49 122.827 1198.87 130.534C1199.26 138.24 1199.45 144.912 1199.45 150.551C1199.45 152.806 1199.35 154.874 1199.16 156.753C1199.16 158.445 1199.16 159.76 1199.16 160.7H1200.02C1201.37 160.7 1202.62 161.076 1203.78 161.828C1205.12 162.58 1205.8 163.707 1205.8 165.211C1205.8 168.03 1204.26 169.44 1201.18 169.44C1200.02 169.44 1199.16 169.346 1198.58 169.158C1196.85 185.134 1194.16 201.11 1190.5 217.086C1187.04 233.25 1181.66 248.662 1174.35 263.323C1173.19 265.766 1171.27 268.867 1168.58 272.626C1166.08 276.573 1163.19 280.426 1159.92 284.185C1156.65 288.132 1153.19 291.422 1149.54 294.053C1146.07 296.684 1142.8 298 1139.73 298ZM1141.17 176.77C1143.67 176.77 1146.36 174.515 1149.25 170.004C1152.32 165.305 1155.4 159.478 1158.48 152.524C1161.56 145.57 1164.44 138.334 1167.13 130.816C1169.83 123.109 1172.14 116.249 1174.06 110.235C1176.17 104.032 1177.62 99.7092 1178.39 97.2658C1178 96.514 1177.71 95.8562 1177.52 95.2923C1177.52 94.7285 1177.52 94.1646 1177.52 93.6008C1177.52 92.8489 1177.52 91.7212 1177.52 90.2176C1177.52 88.526 1177.23 87.0224 1176.66 85.7067C1176.08 84.2031 1174.92 83.4513 1173.19 83.4513C1169.73 83.4513 1166.17 85.8007 1162.52 90.4995C1159.06 95.1984 1155.69 101.119 1152.42 108.261C1149.34 115.403 1146.55 122.921 1144.05 130.816C1141.75 138.522 1139.82 145.57 1138.28 151.96C1136.94 158.351 1136.26 162.956 1136.26 165.775C1136.26 167.466 1136.46 169.722 1136.84 172.541C1137.23 175.36 1138.67 176.77 1141.17 176.77ZM1139.73 289.542C1142.03 289.542 1144.53 288.32 1147.23 285.877C1150.11 283.622 1152.81 280.708 1155.31 277.137C1158 273.754 1160.31 270.371 1162.23 266.988C1164.35 263.793 1165.88 261.255 1166.85 259.376C1173.96 245.843 1179.25 231.559 1182.71 216.522C1186.18 201.674 1188.58 186.732 1189.93 171.695C1184.54 174.515 1179.16 179.026 1173.77 185.228C1168.58 191.243 1163.58 198.197 1158.77 206.091C1153.96 213.985 1149.63 222.161 1145.78 230.619C1142.13 239.265 1139.25 247.441 1137.13 255.147C1135.01 263.041 1133.96 269.901 1133.96 275.728C1133.96 276.855 1134.05 278.453 1134.24 280.52C1134.44 282.776 1134.92 284.843 1135.69 286.723C1136.65 288.602 1138 289.542 1139.73 289.542Z" fill="black"/>
<path d="M1240.87 191.712C1235.68 191.712 1231.64 189.457 1228.75 184.946C1226.06 180.435 1224.23 174.985 1223.27 168.594C1222.31 162.016 1221.83 155.907 1221.83 150.269C1221.83 147.637 1221.83 145.288 1221.83 143.22C1222.02 140.965 1222.21 139.085 1222.4 137.582H1221.54C1219.23 137.582 1218.08 136.736 1218.08 135.044C1218.46 134.105 1219.14 133.353 1220.1 132.789C1221.25 132.037 1222.31 131.567 1223.27 131.379C1224.23 123.109 1226.06 114.652 1228.75 106.006C1231.44 97.3598 1235.1 89.5598 1239.72 82.6055V80.9139C1239.72 79.0344 1240.87 77.9067 1243.18 77.5307C1244.14 76.591 1245.1 75.5572 1246.06 74.4295C1247.22 73.1138 1248.47 72.456 1249.81 72.456C1251.35 72.456 1252.51 73.1138 1253.28 74.4295C1254.24 75.5572 1254.33 76.7789 1253.56 78.0946C1257.22 78.8464 1260.49 80.35 1263.37 82.6055C1266.45 84.673 1267.99 87.7742 1267.99 91.9092C1267.99 97.3598 1265.87 102.998 1261.64 108.825C1257.6 114.464 1252.7 119.632 1246.93 124.331C1241.35 128.842 1236.25 132.225 1231.64 134.481C1231.06 138.991 1230.68 143.596 1230.48 148.295C1230.48 152.806 1230.48 157.317 1230.48 161.828C1230.48 164.083 1230.58 166.903 1230.77 170.286C1231.16 173.669 1232.02 176.676 1233.37 179.307C1234.91 181.939 1237.41 183.255 1240.87 183.255C1244.52 183.255 1248.08 181.657 1251.54 178.462C1255.2 175.266 1258.66 171.225 1261.93 166.339C1265.39 161.264 1268.57 156.001 1271.45 150.551C1274.34 145.1 1276.84 139.931 1278.95 135.044C1281.07 130.158 1282.61 126.399 1283.57 123.767C1283.95 122.828 1284.43 121.982 1285.01 121.23C1285.59 120.29 1286.45 119.82 1287.61 119.82C1289.15 119.82 1289.92 120.76 1289.92 122.64C1289.92 125.647 1288.86 129.97 1286.74 135.608C1284.63 141.059 1281.74 146.98 1278.09 153.37C1274.63 159.76 1270.68 165.869 1266.26 171.695C1262.03 177.522 1257.7 182.315 1253.28 186.074C1248.85 189.833 1244.72 191.712 1240.87 191.712ZM1233.08 125.741C1236.73 123.485 1240.39 120.666 1244.04 117.283C1247.7 113.9 1250.77 110.047 1253.28 105.724C1255.78 101.401 1257.03 97.0779 1257.03 92.755C1257.03 90.4995 1255.87 88.9019 1253.56 87.9622C1251.26 86.8344 1249.24 86.1766 1247.51 85.9886C1243.85 91.8152 1240.77 98.2056 1238.27 105.16C1235.96 112.114 1234.23 118.974 1233.08 125.741Z" fill="black"/>
<path d="M1296.73 190.867C1295.38 190.867 1294.32 190.397 1293.55 189.457C1292.78 188.517 1292.4 187.389 1292.4 186.074C1292.4 178.932 1292.69 171.789 1293.27 164.647C1294.04 157.317 1294.42 150.081 1294.42 142.939C1294.42 138.24 1294.23 132.319 1293.84 125.177C1293.65 117.847 1292.98 110.705 1291.82 103.75C1290.86 96.608 1289.13 91.1574 1286.63 87.3983C1286.44 87.0224 1286.25 86.7405 1286.05 86.5525C1285.86 86.1766 1285.76 85.8007 1285.76 85.4248C1285.76 84.2971 1286.34 83.5453 1287.5 83.1693C1288.65 82.6055 1289.61 82.3236 1290.38 82.3236C1293.07 82.3236 1295.19 83.8272 1296.73 86.8344C1298.27 89.8417 1299.42 93.6947 1300.19 98.3936C1300.96 103.092 1301.44 107.979 1301.63 113.054C1302.02 117.941 1302.21 122.452 1302.21 126.587C1302.21 130.534 1302.21 133.259 1302.21 134.763C1302.21 136.642 1302.21 138.428 1302.21 140.119C1302.4 141.811 1302.5 143.596 1302.5 145.476C1303.27 142.845 1304.61 138.804 1306.54 133.353C1308.46 127.902 1310.77 121.888 1313.46 115.309C1316.15 108.543 1319.04 102.153 1322.12 96.1381C1325.39 89.9357 1328.56 84.8609 1331.64 80.9139C1334.91 76.9669 1337.98 74.9934 1340.87 74.9934C1343.75 74.9934 1345.87 76.7789 1347.22 80.3501C1348.56 83.9212 1349.43 87.7742 1349.81 91.9092C1350.39 96.0442 1350.68 99.1454 1350.68 101.213C1350.68 102.529 1350.58 104.784 1350.39 107.979C1350.2 110.986 1349.72 113.806 1348.95 116.437C1348.37 119.068 1347.22 120.384 1345.49 120.384C1343.95 120.384 1343.18 118.693 1343.18 115.309C1343.18 113.806 1343.27 112.396 1343.47 111.08C1343.66 109.765 1343.75 108.731 1343.75 107.979C1343.75 107.039 1343.66 104.878 1343.47 101.495C1343.27 97.9237 1342.79 94.5405 1342.02 91.3453C1341.45 88.1501 1340.58 86.5525 1339.43 86.5525C1338.27 86.5525 1336.83 87.6802 1335.1 89.9357C1333.56 92.0032 1331.93 94.5405 1330.19 97.5478C1328.66 100.367 1327.21 103.186 1325.87 106.006C1324.71 108.637 1323.94 110.517 1323.56 111.644C1320.67 118.599 1317.6 126.493 1314.33 135.326C1311.25 144.16 1308.56 153.088 1306.25 162.11C1304.13 170.944 1303.08 179.214 1303.08 186.92C1301.73 189.551 1299.61 190.867 1296.73 190.867Z" fill="black"/>
<path d="M1368.57 192.558C1365.1 192.558 1363.37 190.867 1363.37 187.483C1363.37 184.288 1364.53 180.717 1366.84 176.77C1369.34 172.635 1372.32 168.5 1375.78 164.365C1379.24 160.042 1382.7 156.095 1386.17 152.524C1389.82 148.953 1392.8 146.04 1395.11 143.784C1392.42 142.469 1389.05 141.341 1385.01 140.401C1381.17 139.273 1377.22 138.052 1373.18 136.736C1369.34 135.232 1366.07 133.353 1363.37 131.097C1360.87 128.654 1359.62 125.459 1359.62 121.512C1359.62 117.377 1361.16 112.678 1364.24 107.415C1367.51 102.153 1371.64 97.0779 1376.65 92.1911C1381.65 87.1164 1386.74 82.9814 1391.94 79.7862C1397.13 76.403 1401.75 74.7114 1405.78 74.7114C1408.29 74.7114 1410.69 75.3693 1413 76.685C1415.5 77.8127 1416.75 79.7862 1416.75 82.6055C1416.75 83.3573 1416.56 84.391 1416.17 85.7067C1415.79 87.0224 1415.11 87.6802 1414.15 87.6802C1412.81 87.6802 1411.65 87.0224 1410.69 85.7067C1409.92 84.2031 1408.96 83.4513 1407.8 83.4513C1404.53 83.4513 1400.59 84.7669 1395.98 87.3983C1391.55 90.0296 1387.22 93.4128 1382.99 97.5478C1378.76 101.495 1375.2 105.63 1372.32 109.953C1369.62 114.276 1368.28 118.129 1368.28 121.512C1368.28 123.767 1369.62 125.741 1372.32 127.432C1375.01 129.124 1378.18 130.534 1381.84 131.661C1385.69 132.789 1389.44 133.917 1393.09 135.044C1396.74 135.984 1399.44 137.018 1401.17 138.146C1402.13 137.206 1403.77 135.702 1406.07 133.635C1408.38 131.567 1410.98 129.312 1413.86 126.868C1416.75 124.425 1419.34 122.358 1421.65 120.666C1424.15 118.974 1425.88 118.129 1426.85 118.129C1427.62 118.129 1428 118.505 1428 119.256C1428 120.196 1427.04 121.794 1425.11 124.049C1423.38 126.117 1421.17 128.372 1418.48 130.816C1415.98 133.259 1413.57 135.608 1411.27 137.864C1408.96 139.931 1407.32 141.435 1406.36 142.375C1408.09 145.194 1408.96 148.201 1408.96 151.396C1408.96 154.592 1407.52 158.539 1404.63 163.237C1401.75 167.748 1398.09 172.259 1393.67 176.77C1389.44 181.281 1385.01 185.04 1380.4 188.047C1375.78 191.055 1371.84 192.558 1368.57 192.558ZM1379.53 178.18C1381.26 178.18 1383.28 177.24 1385.59 175.36C1388.09 173.481 1390.49 171.132 1392.8 168.312C1395.11 165.493 1397.03 162.768 1398.57 160.136C1400.3 157.317 1401.17 155.062 1401.17 153.37C1401.17 151.49 1400.78 150.081 1400.01 149.141C1398.86 150.269 1397.03 152.054 1394.53 154.498C1392.22 156.941 1389.72 159.666 1387.03 162.674C1384.53 165.493 1382.32 168.218 1380.4 170.85C1378.66 173.293 1377.8 175.173 1377.8 176.488C1377.8 177.616 1378.38 178.18 1379.53 178.18Z" fill="black"/>
<path d="M648.18 234.726C648.18 233.554 648.326 232.536 648.619 231.674C648.912 230.795 649.368 230.022 649.986 229.354C650.621 228.671 651.337 228.069 652.135 227.548C652.932 227.027 653.925 226.555 655.113 226.132C657.278 225.367 659.923 224.675 663.048 224.057C663.048 221.485 662.551 219.768 661.559 218.905C660.68 218.14 659.402 217.758 657.726 217.758C655.675 217.758 653.909 218.539 652.428 220.102C651.793 220.736 651.354 221.306 651.109 221.811L648.79 220.272C650.613 216.773 653.714 215.023 658.092 215.023C662.014 215.023 664.521 216.529 665.611 219.54C666.051 220.761 666.271 222.242 666.271 223.983V237.387C666.271 237.859 666.36 238.502 666.539 239.315C666.718 240.129 666.881 240.691 667.027 241H663.78C663.292 240.756 663.048 239.389 663.048 236.898C660.753 239.844 658.222 241.317 655.455 241.317C652.395 241.317 650.271 240.243 649.083 238.095C648.481 237.004 648.18 235.881 648.18 234.726ZM652.013 231.918C651.606 232.667 651.402 233.643 651.402 234.848C651.402 236.052 651.826 236.98 652.672 237.631C653.518 238.266 654.454 238.583 655.479 238.583C656.521 238.583 657.433 238.428 658.214 238.119C659.011 237.81 659.736 237.411 660.387 236.923C661.575 236.028 662.462 235.23 663.048 234.53V226.791C659.955 227.589 658.124 228.077 657.555 228.256C654.69 229.184 652.843 230.404 652.013 231.918ZM770.909 228.305C770.909 219.418 774.368 214.975 781.285 214.975C782.994 214.975 784.435 215.382 785.606 216.195C786.762 217.009 787.527 217.742 787.901 218.393C788.552 219.499 789 220.419 789.244 221.151L786.656 222.323C786.624 221.998 786.445 221.518 786.119 220.883C785.81 220.248 785.476 219.727 785.118 219.32C784.76 218.913 784.239 218.547 783.556 218.222C782.888 217.88 782.132 217.709 781.285 217.709C776.516 217.709 774.132 221.168 774.132 228.085C774.132 231.438 774.758 234.018 776.012 235.824C777.281 237.631 779.039 238.534 781.285 238.534C782.831 238.534 784.117 237.94 785.143 236.752C786.038 235.727 786.64 234.815 786.949 234.018L787.169 233.48L789.708 234.701C789.138 236.28 788.202 237.712 786.9 238.998C786.314 239.568 785.517 240.089 784.508 240.561C783.499 241.033 782.424 241.269 781.285 241.269C777.737 241.269 775.117 240.137 773.424 237.875C771.747 235.596 770.909 232.406 770.909 228.305ZM793.272 227.963C793.272 224.024 794.151 220.875 795.909 218.515C797.683 216.155 800.157 214.975 803.331 214.975C806.505 214.975 808.963 216.163 810.704 218.539C812.462 220.915 813.341 224.089 813.341 228.061C813.341 232.032 812.454 235.23 810.68 237.655C808.922 240.08 806.472 241.293 803.331 241.293C800.125 241.293 797.634 240.04 795.86 237.533C794.135 235.076 793.272 231.885 793.272 227.963ZM796.495 228.109C796.495 233.269 797.838 236.54 800.523 237.924C801.337 238.347 802.273 238.559 803.331 238.559C804.389 238.559 805.325 238.347 806.139 237.924C806.969 237.501 807.628 236.955 808.116 236.288C808.604 235.621 809.003 234.815 809.312 233.871C809.85 232.227 810.118 230.315 810.118 228.134C810.118 221.184 807.848 217.709 803.307 217.709C798.766 217.709 796.495 221.176 796.495 228.109ZM818.321 241.049V204.013H821.544V241.049H818.321ZM828.526 241.049V204.013H831.749V241.049H828.526ZM839.854 237.387C839.057 236.199 838.447 234.872 838.023 233.407C837.617 231.942 837.413 230.404 837.413 228.793C837.413 227.182 837.527 225.717 837.755 224.398C837.983 223.064 838.284 221.933 838.658 221.005C839.033 220.077 839.488 219.255 840.025 218.539C840.562 217.807 841.116 217.221 841.686 216.781C842.255 216.342 842.874 215.984 843.541 215.707C844.697 215.219 845.795 214.975 846.837 214.975C847.879 214.975 848.766 215.072 849.498 215.268C850.23 215.447 851.012 215.829 851.842 216.415C852.688 216.985 853.412 217.742 854.015 218.686C855.414 220.899 856.114 224.162 856.114 228.476H840.636C840.636 232.821 841.734 235.784 843.932 237.362C845.022 238.144 846.235 238.534 847.569 238.534C850.076 238.534 852.208 236.98 853.966 233.871L856.188 235.409C855.553 236.581 854.723 237.639 853.697 238.583C851.744 240.373 849.815 241.269 847.911 241.269C846.007 241.269 844.387 240.919 843.053 240.219C841.718 239.519 840.652 238.575 839.854 237.387ZM840.782 225.741H852.892C852.892 223.316 852.33 221.306 851.207 219.711C850.263 218.376 848.92 217.709 847.179 217.709C844.33 217.709 842.426 219.027 841.466 221.664C841.01 222.901 840.782 224.26 840.782 225.741ZM860.021 228.305C860.021 219.418 863.479 214.975 870.396 214.975C872.105 214.975 873.546 215.382 874.718 216.195C875.873 217.009 876.638 217.742 877.013 218.393C877.664 219.499 878.111 220.419 878.355 221.151L875.768 222.323C875.735 221.998 875.556 221.518 875.23 220.883C874.921 220.248 874.588 219.727 874.229 219.32C873.871 218.913 873.351 218.547 872.667 218.222C872 217.88 871.243 217.709 870.396 217.709C865.628 217.709 863.243 221.168 863.243 228.085C863.243 231.438 863.87 234.018 865.123 235.824C866.393 237.631 868.15 238.534 870.396 238.534C871.943 238.534 873.229 237.94 874.254 236.752C875.149 235.727 875.751 234.815 876.061 234.018L876.28 233.48L878.819 234.701C878.25 236.28 877.314 237.712 876.012 238.998C875.426 239.568 874.628 240.089 873.619 240.561C872.61 241.033 871.536 241.269 870.396 241.269C866.848 241.269 864.228 240.137 862.535 237.875C860.859 235.596 860.021 232.406 860.021 228.305ZM881.676 217.978V215.243H886.021V205.844H889.244V215.243H895.152V217.978H889.244V234.311C889.244 235.954 889.496 237.077 890.001 237.68C890.506 238.282 891.336 238.583 892.491 238.583C892.963 238.583 893.525 238.542 894.176 238.461C894.827 238.38 895.152 238.331 895.152 238.314V240.731C894.078 241.122 893.028 241.317 892.003 241.317C890.994 241.317 890.302 241.293 889.928 241.244C889.553 241.195 889.098 241.041 888.561 240.78C888.023 240.52 887.584 240.154 887.242 239.682C886.428 238.542 886.021 236.752 886.021 234.311V217.978H881.676ZM898.521 211.996V208.334H902.184V211.996H898.521ZM898.741 241V215.243H901.964V241H898.741ZM907.628 227.963C907.628 224.024 908.507 220.875 910.265 218.515C912.039 216.155 914.513 214.975 917.687 214.975C920.86 214.975 923.318 216.163 925.06 218.539C926.817 220.915 927.696 224.089 927.696 228.061C927.696 232.032 926.809 235.23 925.035 237.655C923.277 240.08 920.828 241.293 917.687 241.293C914.48 241.293 911.99 240.04 910.216 237.533C908.491 235.076 907.628 231.885 907.628 227.963ZM910.851 228.109C910.851 233.269 912.193 236.54 914.879 237.924C915.693 238.347 916.629 238.559 917.687 238.559C918.744 238.559 919.68 238.347 920.494 237.924C921.324 237.501 921.983 236.955 922.472 236.288C922.96 235.621 923.359 234.815 923.668 233.871C924.205 232.227 924.474 230.315 924.474 228.134C924.474 221.184 922.203 217.709 917.662 217.709C913.121 217.709 910.851 221.176 910.851 228.109ZM932.457 241V215.243H935.68V219.467C937.112 218.051 938.471 216.952 939.757 216.171C941.043 215.373 942.556 214.975 944.298 214.975C946.039 214.975 947.512 215.544 948.717 216.684C949.921 217.823 950.523 219.532 950.523 221.811V241H947.301V221.811C947.301 220.59 946.861 219.605 945.982 218.856C945.12 218.091 944.184 217.709 943.175 217.709C940.766 217.709 938.268 219.117 935.68 221.933V241H932.457ZM967.54 227.963C967.54 224.024 968.419 220.875 970.177 218.515C971.951 216.155 974.425 214.975 977.599 214.975C980.772 214.975 983.23 216.163 984.972 218.539C986.729 220.915 987.608 224.089 987.608 228.061C987.608 232.032 986.721 235.23 984.947 237.655C983.189 240.08 980.74 241.293 977.599 241.293C974.392 241.293 971.902 240.04 970.128 237.533C968.403 235.076 967.54 231.885 967.54 227.963ZM970.763 228.109C970.763 233.269 972.105 236.54 974.791 237.924C975.605 238.347 976.541 238.559 977.599 238.559C978.657 238.559 979.592 238.347 980.406 237.924C981.236 237.501 981.896 236.955 982.384 236.288C982.872 235.621 983.271 234.815 983.58 233.871C984.117 232.227 984.386 230.315 984.386 228.134C984.386 221.184 982.115 217.709 977.574 217.709C973.033 217.709 970.763 221.176 970.763 228.109ZM1002.55 204.013V206.723H1000.38C997.936 206.723 996.715 207.748 996.715 209.799V215.243H1002.55V217.978H996.715V241H993.492V217.978H989.269V215.243H993.492V209.799C993.492 207.146 994.64 205.355 996.935 204.428C998.009 204.005 999.173 203.793 1000.43 203.793C1001.7 203.793 1002.4 203.866 1002.55 204.013ZM1017.32 236.117L1019.74 234.555C1020.6 235.889 1021.56 236.89 1022.62 237.558C1023.68 238.209 1024.97 238.534 1026.5 238.534C1028.1 238.534 1029.39 238.103 1030.38 237.24C1031.21 236.524 1031.63 235.645 1031.63 234.604C1031.63 233.562 1031.45 232.732 1031.09 232.113C1030.73 231.495 1030.23 230.99 1029.58 230.6C1028.49 229.981 1027.35 229.534 1026.16 229.257C1024.99 228.964 1024.06 228.703 1023.38 228.476C1022.71 228.231 1022.02 227.906 1021.3 227.499C1020.58 227.092 1019.97 226.636 1019.44 226.132C1018.26 224.976 1017.66 223.454 1017.66 221.566C1017.66 219.662 1018.42 218.091 1019.93 216.854C1021.46 215.601 1023.41 214.975 1025.77 214.975C1028.55 214.975 1030.9 215.976 1032.82 217.978C1033.18 218.352 1033.48 218.718 1033.73 219.076L1031.5 220.736C1031.39 220.622 1031.16 220.386 1030.82 220.028C1030.48 219.654 1030.26 219.418 1030.16 219.32L1029.53 218.808C1029.23 218.547 1028.99 218.376 1028.79 218.295L1027.96 218.002C1027.44 217.807 1026.57 217.709 1025.33 217.709C1024.09 217.709 1023.03 218.067 1022.13 218.783C1021.23 219.483 1020.79 220.256 1020.79 221.103C1020.79 221.949 1020.93 222.632 1021.23 223.153C1021.52 223.658 1021.96 224.097 1022.54 224.472C1023.49 225.058 1024.58 225.538 1025.82 225.912C1027.05 226.286 1027.87 226.539 1028.26 226.669C1028.66 226.799 1029.2 227.003 1029.87 227.279C1030.55 227.54 1031.08 227.792 1031.46 228.036C1031.85 228.28 1032.29 228.606 1032.77 229.013C1033.26 229.403 1033.64 229.818 1033.9 230.258C1034.53 231.365 1034.85 232.569 1034.85 233.871C1034.85 236.036 1034.03 237.81 1032.38 239.193C1030.74 240.577 1028.84 241.269 1026.67 241.269C1024.51 241.269 1022.68 240.862 1021.2 240.048C1019.74 239.218 1018.44 237.908 1017.32 236.117ZM1038.56 234.726C1038.56 233.554 1038.71 232.536 1039 231.674C1039.29 230.795 1039.75 230.022 1040.37 229.354C1041 228.671 1041.72 228.069 1042.52 227.548C1043.31 227.027 1044.31 226.555 1045.49 226.132C1047.66 225.367 1050.3 224.675 1053.43 224.057C1053.43 221.485 1052.93 219.768 1051.94 218.905C1051.06 218.14 1049.78 217.758 1048.11 217.758C1046.06 217.758 1044.29 218.539 1042.81 220.102C1042.17 220.736 1041.73 221.306 1041.49 221.811L1039.17 220.272C1040.99 216.773 1044.09 215.023 1048.47 215.023C1052.4 215.023 1054.9 216.529 1055.99 219.54C1056.43 220.761 1056.65 222.242 1056.65 223.983V237.387C1056.65 237.859 1056.74 238.502 1056.92 239.315C1057.1 240.129 1057.26 240.691 1057.41 241H1054.16C1053.67 240.756 1053.43 239.389 1053.43 236.898C1051.13 239.844 1048.6 241.317 1045.84 241.317C1042.78 241.317 1040.65 240.243 1039.46 238.095C1038.86 237.004 1038.56 235.881 1038.56 234.726ZM1042.39 231.918C1041.99 232.667 1041.78 233.643 1041.78 234.848C1041.78 236.052 1042.21 236.98 1043.05 237.631C1043.9 238.266 1044.83 238.583 1045.86 238.583C1046.9 238.583 1047.81 238.428 1048.59 238.119C1049.39 237.81 1050.12 237.411 1050.77 236.923C1051.96 236.028 1052.84 235.23 1053.43 234.53V226.791C1050.34 227.589 1048.51 228.077 1047.94 228.256C1045.07 229.184 1043.22 230.404 1042.39 231.918ZM1059.73 215.243H1063.1L1069.88 237.436H1070.35L1077.13 215.243H1080.5L1072.59 241H1067.64L1059.73 215.243ZM1085.12 237.387C1084.32 236.199 1083.71 234.872 1083.29 233.407C1082.88 231.942 1082.68 230.404 1082.68 228.793C1082.68 227.182 1082.79 225.717 1083.02 224.398C1083.25 223.064 1083.55 221.933 1083.92 221.005C1084.3 220.077 1084.75 219.255 1085.29 218.539C1085.83 217.807 1086.38 217.221 1086.95 216.781C1087.52 216.342 1088.14 215.984 1088.8 215.707C1089.96 215.219 1091.06 214.975 1092.1 214.975C1093.14 214.975 1094.03 215.072 1094.76 215.268C1095.49 215.447 1096.28 215.829 1097.11 216.415C1097.95 216.985 1098.68 217.742 1099.28 218.686C1100.68 220.899 1101.38 224.162 1101.38 228.476H1085.9C1085.9 232.821 1087 235.784 1089.2 237.362C1090.29 238.144 1091.5 238.534 1092.83 238.534C1095.34 238.534 1097.47 236.98 1099.23 233.871L1101.45 235.409C1100.82 236.581 1099.99 237.639 1098.96 238.583C1097.01 240.373 1095.08 241.269 1093.17 241.269C1091.27 241.269 1089.65 240.919 1088.32 240.219C1086.98 239.519 1085.92 238.575 1085.12 237.387ZM1086.05 225.741H1098.16C1098.16 223.316 1097.59 221.306 1096.47 219.711C1095.53 218.376 1094.18 217.709 1092.44 217.709C1089.59 217.709 1087.69 219.027 1086.73 221.664C1086.27 222.901 1086.05 224.26 1086.05 225.741ZM1121.57 236.947C1119.91 239.828 1117.6 241.269 1114.63 241.269C1113.15 241.269 1111.8 240.902 1110.58 240.17C1109.36 239.421 1108.38 238.437 1107.63 237.216C1106.07 234.66 1105.28 231.771 1105.28 228.549C1105.28 226.156 1105.67 223.935 1106.43 221.884C1107.21 219.833 1108.35 218.173 1109.85 216.903C1111.35 215.618 1112.94 214.975 1114.63 214.975C1116.34 214.975 1117.85 215.414 1119.15 216.293C1120.45 217.172 1121.26 217.945 1121.57 218.612V204.013H1124.79V237.436C1124.79 237.924 1124.86 238.567 1124.99 239.364C1125.13 240.146 1125.28 240.691 1125.43 241H1122.18C1121.77 240.805 1121.57 239.454 1121.57 236.947ZM1108.51 228.549C1108.51 231.43 1109.02 233.79 1110.04 235.629C1111.12 237.566 1112.82 238.534 1115.15 238.534C1116.69 238.534 1117.96 238.095 1118.96 237.216C1119.75 236.516 1120.62 235.515 1121.57 234.213V221.396C1119.84 218.938 1117.91 217.709 1115.78 217.709C1110.93 217.709 1108.51 221.322 1108.51 228.549ZM1229.43 236.117L1231.85 234.555C1232.71 235.889 1233.67 236.89 1234.73 237.558C1235.79 238.209 1237.08 238.534 1238.61 238.534C1240.2 238.534 1241.5 238.103 1242.49 237.24C1243.32 236.524 1243.74 235.645 1243.74 234.604C1243.74 233.562 1243.56 232.732 1243.2 232.113C1242.84 231.495 1242.34 230.99 1241.69 230.6C1240.6 229.981 1239.46 229.534 1238.27 229.257C1237.1 228.964 1236.17 228.703 1235.48 228.476C1234.82 228.231 1234.13 227.906 1233.41 227.499C1232.69 227.092 1232.07 226.636 1231.55 226.132C1230.37 224.976 1229.77 223.454 1229.77 221.566C1229.77 219.662 1230.53 218.091 1232.04 216.854C1233.57 215.601 1235.52 214.975 1237.88 214.975C1240.66 214.975 1243.01 215.976 1244.93 217.978C1245.29 218.352 1245.59 218.718 1245.84 219.076L1243.61 220.736C1243.5 220.622 1243.27 220.386 1242.93 220.028C1242.59 219.654 1242.37 219.418 1242.27 219.32L1241.64 218.808C1241.34 218.547 1241.1 218.376 1240.9 218.295L1240.07 218.002C1239.55 217.807 1238.67 217.709 1237.44 217.709C1236.2 217.709 1235.13 218.067 1234.24 218.783C1233.34 219.483 1232.9 220.256 1232.9 221.103C1232.9 221.949 1233.04 222.632 1233.34 223.153C1233.63 223.658 1234.07 224.097 1234.65 224.472C1235.6 225.058 1236.69 225.538 1237.93 225.912C1239.16 226.286 1239.98 226.539 1240.37 226.669C1240.77 226.799 1241.31 227.003 1241.98 227.279C1242.66 227.54 1243.19 227.792 1243.57 228.036C1243.96 228.28 1244.4 228.606 1244.88 229.013C1245.37 229.403 1245.75 229.818 1246.01 230.258C1246.64 231.365 1246.96 232.569 1246.96 233.871C1246.96 236.036 1246.14 237.81 1244.49 239.193C1242.85 240.577 1240.94 241.269 1238.78 241.269C1236.62 241.269 1234.79 240.862 1233.31 240.048C1231.85 239.218 1230.55 237.908 1229.43 236.117ZM1249.79 217.978V215.243H1254.14V205.844H1257.36V215.243H1263.27V217.978H1257.36V234.311C1257.36 235.954 1257.61 237.077 1258.12 237.68C1258.62 238.282 1259.45 238.583 1260.61 238.583C1261.08 238.583 1261.64 238.542 1262.29 238.461C1262.94 238.38 1263.27 238.331 1263.27 238.314V240.731C1262.19 241.122 1261.14 241.317 1260.12 241.317C1259.11 241.317 1258.42 241.293 1258.04 241.244C1257.67 241.195 1257.21 241.041 1256.68 240.78C1256.14 240.52 1255.7 240.154 1255.36 239.682C1254.54 238.542 1254.14 236.752 1254.14 234.311V217.978H1249.79ZM1265.34 227.963C1265.34 224.024 1266.22 220.875 1267.98 218.515C1269.75 216.155 1272.23 214.975 1275.4 214.975C1278.58 214.975 1281.03 216.163 1282.77 218.539C1284.53 220.915 1285.41 224.089 1285.41 228.061C1285.41 232.032 1284.52 235.23 1282.75 237.655C1280.99 240.08 1278.54 241.293 1275.4 241.293C1272.19 241.293 1269.7 240.04 1267.93 237.533C1266.21 235.076 1265.34 231.885 1265.34 227.963ZM1268.57 228.109C1268.57 233.269 1269.91 236.54 1272.59 237.924C1273.41 238.347 1274.34 238.559 1275.4 238.559C1276.46 238.559 1277.4 238.347 1278.21 237.924C1279.04 237.501 1279.7 236.955 1280.19 236.288C1280.67 235.621 1281.07 234.815 1281.38 233.871C1281.92 232.227 1282.19 230.315 1282.19 228.134C1282.19 221.184 1279.92 217.709 1275.38 217.709C1270.84 217.709 1268.57 221.176 1268.57 228.109ZM1290.17 241C1290.17 241 1290.17 232.414 1290.17 215.243H1293.39V222.177C1294.16 220.484 1294.75 219.32 1295.15 218.686C1296.75 216.212 1298.81 214.975 1301.35 214.975C1301.55 214.975 1301.84 214.991 1302.23 215.023V217.758C1301.13 217.904 1300.21 218.116 1299.47 218.393C1298.74 218.653 1298.03 219.076 1297.33 219.662C1296.1 220.671 1294.79 222.681 1293.39 225.692V241H1290.17ZM1305.8 211.996V208.334H1309.46V211.996H1305.8ZM1306.02 241V215.243H1309.24V241H1306.02ZM1317.34 237.387C1316.55 236.199 1315.94 234.872 1315.51 233.407C1315.11 231.942 1314.9 230.404 1314.9 228.793C1314.9 227.182 1315.02 225.717 1315.25 224.398C1315.47 223.064 1315.77 221.933 1316.15 221.005C1316.52 220.077 1316.98 219.255 1317.52 218.539C1318.05 217.807 1318.61 217.221 1319.18 216.781C1319.75 216.342 1320.36 215.984 1321.03 215.707C1322.19 215.219 1323.29 214.975 1324.33 214.975C1325.37 214.975 1326.26 215.072 1326.99 215.268C1327.72 215.447 1328.5 215.829 1329.33 216.415C1330.18 216.985 1330.9 217.742 1331.5 218.686C1332.9 220.899 1333.6 224.162 1333.6 228.476H1318.13C1318.13 232.821 1319.22 235.784 1321.42 237.362C1322.51 238.144 1323.72 238.534 1325.06 238.534C1327.57 238.534 1329.7 236.98 1331.46 233.871L1333.68 235.409C1333.04 236.581 1332.21 237.639 1331.19 238.583C1329.23 240.373 1327.31 241.269 1325.4 241.269C1323.5 241.269 1321.88 240.919 1320.54 240.219C1319.21 239.519 1318.14 238.575 1317.34 237.387ZM1318.27 225.741H1330.38C1330.38 223.316 1329.82 221.306 1328.7 219.711C1327.75 218.376 1326.41 217.709 1324.67 217.709C1321.82 217.709 1319.92 219.027 1318.96 221.664C1318.5 222.901 1318.27 224.26 1318.27 225.741ZM1337.63 236.117L1340.05 234.555C1340.91 235.889 1341.87 236.89 1342.93 237.558C1343.99 238.209 1345.28 238.534 1346.81 238.534C1348.41 238.534 1349.7 238.103 1350.69 237.24C1351.52 236.524 1351.94 235.645 1351.94 234.604C1351.94 233.562 1351.76 232.732 1351.4 232.113C1351.04 231.495 1350.54 230.99 1349.89 230.6C1348.8 229.981 1347.66 229.534 1346.47 229.257C1345.3 228.964 1344.37 228.703 1343.69 228.476C1343.02 228.231 1342.33 227.906 1341.61 227.499C1340.9 227.092 1340.28 226.636 1339.76 226.132C1338.57 224.976 1337.97 223.454 1337.97 221.566C1337.97 219.662 1338.73 218.091 1340.25 216.854C1341.78 215.601 1343.72 214.975 1346.08 214.975C1348.86 214.975 1351.22 215.976 1353.14 217.978C1353.49 218.352 1353.79 218.718 1354.04 219.076L1351.82 220.736C1351.7 220.622 1351.48 220.386 1351.13 220.028C1350.79 219.654 1350.57 219.418 1350.47 219.32L1349.84 218.808C1349.55 218.547 1349.3 218.376 1349.11 218.295L1348.28 218.002C1347.76 217.807 1346.88 217.709 1345.64 217.709C1344.4 217.709 1343.34 218.067 1342.44 218.783C1341.55 219.483 1341.1 220.256 1341.1 221.103C1341.1 221.949 1341.25 222.632 1341.54 223.153C1341.83 223.658 1342.27 224.097 1342.86 224.472C1343.8 225.058 1344.89 225.538 1346.13 225.912C1347.37 226.286 1348.18 226.539 1348.57 226.669C1348.98 226.799 1349.51 227.003 1350.18 227.279C1350.87 227.54 1351.39 227.792 1351.77 228.036C1352.16 228.28 1352.6 228.606 1353.09 229.013C1353.58 229.403 1353.95 229.818 1354.21 230.258C1354.84 231.365 1355.16 232.569 1355.16 233.871C1355.16 236.036 1354.34 237.81 1352.7 239.193C1351.05 240.577 1349.15 241.269 1346.98 241.269C1344.82 241.269 1343 240.862 1341.51 240.048C1340.05 239.218 1338.76 237.908 1337.63 236.117Z" fill="black"/>
</svg>
