<svg width="359" height="73" viewBox="0 0 359 73" fill="none" xmlns="http://www.w3.org/2000/svg">
<path d="M108.945 16.261C123.679 6.20426 107.878 1.52268 97.6285 7.93816C87.5587 14.2413 93.3579 16.7812 95.4932 19.3821C97.6285 21.9829 118.768 32.5598 113.43 38.2818C108.091 44.0037 91.0091 43.4835 86.5251 39.1487C82.041 34.8139 93.4729 31.6929 93.9985 28.9186C94.4256 26.6645 76.4892 31.3645 75.2081 31.5195C73.9269 31.6744 63.6776 33.947 63.6776 33.947C60.7191 34.7005 40.3468 39.9657 40.3468 39.9657C40.3468 39.9657 7.5923 47.7012 3.69328 50.299C-0.20573 52.8967 0.148788 53.9791 3.69328 55.0615C7.23778 56.1439 154.356 56.8659 157.9 56" stroke="black" stroke-width="1.8" stroke-linecap="round"/>
<path d="M125.149 45.789C124.098 45.789 123.262 45.4437 122.641 44.7531C122.02 44.0164 121.542 43.1186 121.207 42.0596C120.921 40.9546 120.729 39.8726 120.634 38.8136C120.538 37.7086 120.491 36.8108 120.491 36.1202C120.491 33.6339 120.586 31.1246 120.777 28.5922C121.016 26.0599 121.255 23.5506 121.494 21.0643C120.682 21.3866 119.893 21.755 119.129 22.1693C118.412 22.5837 117.743 23.1132 117.122 23.7578C117.027 23.8499 116.907 23.942 116.764 24.0341C116.668 24.1261 116.525 24.1722 116.334 24.1722C115.999 24.1722 115.665 24.011 115.33 23.6887C115.044 23.3664 114.9 23.0441 114.9 22.7219C114.9 22.3075 115.187 21.8931 115.76 21.4787C116.334 21.0183 117.027 20.6039 117.839 20.2356C118.699 19.8212 119.487 19.4759 120.204 19.1996C120.968 18.9234 121.494 18.7392 121.781 18.6471C121.828 18.2788 121.924 17.5881 122.067 16.5752C122.258 15.5162 122.473 14.3422 122.712 13.053C122.951 11.7178 123.214 10.4516 123.501 9.25449C123.835 8.01135 124.17 6.99842 124.504 6.2157C124.838 5.38694 125.173 4.97256 125.507 4.97256C125.842 4.97256 126.176 5.08767 126.511 5.31788C126.845 5.54809 127.012 5.82434 127.012 6.14664C127.012 6.28477 126.893 6.8603 126.654 7.87322C126.415 8.88615 126.105 10.0833 125.722 11.4645C125.388 12.7997 125.077 14.0659 124.791 15.263C124.552 16.4601 124.385 17.2889 124.289 17.7493C126.391 17.1507 128.398 16.6673 130.309 16.299C132.268 15.9306 134.323 15.7465 136.473 15.7465C136.664 15.7465 137.022 15.7465 137.548 15.7465C138.073 15.7465 138.575 15.7695 139.053 15.8155C139.578 15.8616 139.841 15.9536 139.841 16.0918C139.363 16.2759 138.838 16.4141 138.264 16.5061C137.739 16.5982 137.213 16.6673 136.688 16.7133C134.394 16.8975 132.22 17.3119 130.166 17.9565C128.159 18.6011 126.105 19.3147 124.002 20.0974C123.668 22.7219 123.381 25.3923 123.142 28.1088C122.903 30.7792 122.784 33.4267 122.784 36.0511C122.784 36.5576 122.808 37.2482 122.856 38.123C122.903 38.9518 122.999 39.8035 123.142 40.6783C123.286 41.5071 123.525 42.2207 123.859 42.8193C124.193 43.4178 124.671 43.7171 125.292 43.7171C126.105 43.7171 126.941 43.2797 127.801 42.4049C128.661 41.4841 129.521 40.3791 130.381 39.0899C131.241 37.7547 132.029 36.4194 132.746 35.0842C133.463 33.749 134.084 32.6209 134.609 31.7001C135.183 30.7792 135.565 30.2958 135.756 30.2498V30.457C135.756 31.1476 135.517 32.1145 135.039 33.3576C134.562 34.6008 133.917 35.936 133.104 37.3633C132.34 38.7446 131.48 40.0798 130.524 41.369C129.616 42.6582 128.685 43.7171 127.729 44.5459C126.821 45.3746 125.961 45.789 125.149 45.789Z" fill="black"/>
<path d="M141.01 48.0681C140.102 48.0681 139.337 47.7458 138.716 47.1012C138.143 46.4566 137.689 45.6739 137.355 44.7531C137.02 43.7862 136.781 42.8193 136.638 41.8524C136.542 40.8855 136.495 40.0798 136.495 39.4352C136.495 38.7446 136.566 37.6395 136.71 36.1202C136.901 34.5547 137.187 32.8281 137.57 30.9404C137.952 29.0527 138.43 27.234 139.003 25.4844C139.576 23.6887 140.245 22.1924 141.01 20.9953C141.822 19.7982 142.754 19.1536 143.805 19.0615C143.948 18.6471 144.163 18.3018 144.45 18.0255C144.736 17.7032 145.119 17.5421 145.597 17.5421C146.552 17.5421 147.388 17.9335 148.105 18.7162C148.822 19.4989 149.419 20.4658 149.897 21.6168C150.374 22.7679 150.733 23.8959 150.972 25.0009C151.258 26.106 151.402 27.0038 151.402 27.6944C151.402 29.8124 151.187 31.9073 150.757 33.9792L151.33 34.0482C152.716 34.0482 153.791 33.8411 154.555 33.4267C155.32 33.0123 155.917 32.6209 156.347 32.2526C156.777 31.8382 157.135 31.631 157.422 31.631C157.709 31.631 157.852 31.7922 157.852 32.1145C157.852 32.667 157.541 33.1734 156.92 33.6339C156.347 34.0482 155.63 34.4396 154.77 34.8079C153.91 35.1302 153.074 35.3605 152.262 35.4986C151.449 35.6367 150.828 35.6597 150.398 35.5676C150.159 36.5345 149.753 37.7316 149.18 39.1589C148.654 40.5402 147.985 41.9215 147.173 43.3027C146.409 44.638 145.501 45.766 144.45 46.6868C143.399 47.6077 142.252 48.0681 141.01 48.0681ZM148.822 32.5979C149.108 30.9864 149.252 29.3519 149.252 27.6944C149.252 27.3261 149.156 26.7045 148.965 25.8297C148.822 24.9089 148.583 23.942 148.248 22.929C147.962 21.9161 147.603 21.0413 147.173 20.3046C146.743 19.568 146.289 19.1996 145.812 19.1996C145.573 19.1996 145.381 19.3838 145.238 19.7521C145.143 20.0744 145.071 20.4428 145.023 20.8571C145.023 21.2715 145.023 21.5478 145.023 21.6859C145.023 23.5276 145.31 25.4614 145.883 27.4872C146.504 29.467 147.484 31.1706 148.822 32.5979ZM141.225 46.2725C141.941 46.2725 142.682 45.812 143.446 44.8912C144.211 43.9243 144.928 42.7733 145.597 41.438C146.313 40.0568 146.91 38.7446 147.388 37.5014C147.866 36.2583 148.177 35.3374 148.32 34.7389C146.504 33.5418 145.143 31.9303 144.235 29.9044C143.375 27.8786 142.945 25.8067 142.945 23.6887C142.945 22.7679 143.016 21.8931 143.16 21.0643C142.156 22.7219 141.32 24.6786 140.651 26.9347C139.982 29.1908 139.481 31.4929 139.146 33.8411C138.86 36.1892 138.716 38.3302 138.716 40.264C138.716 40.7244 138.764 41.438 138.86 42.4049C139.003 43.3718 139.266 44.2696 139.648 45.0984C140.03 45.8811 140.556 46.2725 141.225 46.2725Z" fill="black"/>
<path d="M159.706 46.7559C159.372 46.7559 159.109 46.6408 158.918 46.4106C158.727 46.1804 158.631 45.9041 158.631 45.5818C158.631 43.8322 158.703 42.0826 158.846 40.333C159.037 38.5374 159.133 36.7647 159.133 35.0151C159.133 33.8641 159.085 32.4137 158.99 30.6641C158.942 28.8685 158.775 27.1189 158.488 25.4153C158.249 23.6657 157.819 22.3305 157.198 21.4096C157.15 21.3176 157.102 21.2485 157.055 21.2025C157.007 21.1104 156.983 21.0183 156.983 20.9262C156.983 20.65 157.126 20.4658 157.413 20.3737C157.7 20.2356 157.938 20.1665 158.13 20.1665C158.798 20.1665 159.324 20.5348 159.706 21.2715C160.089 22.0082 160.375 22.9521 160.566 24.1031C160.757 25.2542 160.877 26.4513 160.925 27.6944C161.02 28.8915 161.068 29.9965 161.068 31.0095C161.068 31.9763 161.068 32.644 161.068 33.0123C161.068 33.4727 161.068 33.9101 161.068 34.3245C161.116 34.7389 161.14 35.1763 161.14 35.6367C161.331 34.9921 161.665 34.0022 162.143 32.667C162.621 31.3318 163.194 29.8584 163.863 28.2469C164.532 26.5894 165.249 25.024 166.013 23.5506C166.825 22.0312 167.614 20.7881 168.378 19.8212C169.19 18.8543 169.955 18.3709 170.672 18.3709C171.388 18.3709 171.914 18.8083 172.248 19.6831C172.583 20.5579 172.798 21.5017 172.893 22.5147C173.037 23.5276 173.108 24.2873 173.108 24.7938C173.108 25.1161 173.084 25.6686 173.037 26.4513C172.989 27.188 172.869 27.8786 172.678 28.5232C172.535 29.1678 172.248 29.4901 171.818 29.4901C171.436 29.4901 171.245 29.0757 171.245 28.2469C171.245 27.8786 171.269 27.5333 171.317 27.211C171.364 26.8887 171.388 26.6354 171.388 26.4513C171.388 26.2211 171.364 25.6916 171.317 24.8628C171.269 23.988 171.149 23.1593 170.958 22.3765C170.815 21.5938 170.6 21.2025 170.313 21.2025C170.027 21.2025 169.668 21.4787 169.238 22.0312C168.856 22.5377 168.45 23.1593 168.02 23.8959C167.638 24.5866 167.279 25.2772 166.945 25.9678C166.658 26.6124 166.467 27.0728 166.372 27.3491C165.655 29.0527 164.89 30.9864 164.078 33.1504C163.314 35.3144 162.645 37.5014 162.071 39.7114C161.546 41.8754 161.283 43.9013 161.283 45.789C160.949 46.4336 160.423 46.7559 159.706 46.7559Z" fill="black"/>
<path d="M173.037 72.1712C171.89 72.1712 171.054 71.7799 170.528 70.9972C170.003 70.2605 169.668 69.3627 169.525 68.3037C169.334 67.2447 169.238 66.3239 169.238 65.5412C169.238 63.6534 169.501 61.4894 170.027 59.0492C170.504 56.655 171.269 54.2838 172.32 51.9357C173.371 49.6336 174.709 47.6307 176.333 45.9272C177.958 44.1775 179.869 43.0495 182.067 42.543C182.21 42.497 182.425 42.474 182.712 42.474C183.668 42.474 184.289 42.8653 184.575 43.6481C184.91 44.4308 185.077 45.1905 185.077 45.9272C185.077 46.2034 185.029 46.7099 184.934 47.4466C184.838 48.2293 184.647 48.9429 184.36 49.5875C184.121 50.2321 183.787 50.5544 183.357 50.5544C183.166 50.5544 182.999 50.4623 182.855 50.2781C182.76 50.14 182.712 49.9789 182.712 49.7947C182.712 49.1501 182.831 48.5055 183.07 47.8609C183.309 47.2163 183.429 46.5717 183.429 45.9272C183.429 45.4207 183.357 45.0293 183.214 44.7531C183.118 44.4768 182.784 44.3387 182.21 44.3387C181.828 44.3387 181.279 44.5689 180.562 45.0293C179.845 45.4437 179.344 45.766 179.057 45.9962C177.337 47.3775 175.88 49.0811 174.685 51.1069C173.538 53.1788 172.654 55.3428 172.033 57.5989C171.46 59.901 171.173 62.134 171.173 64.298C171.173 64.7124 171.197 65.38 171.245 66.3009C171.293 67.2217 171.436 68.0735 171.675 68.8562C171.962 69.685 172.416 70.0993 173.037 70.0993C173.897 70.0993 174.828 69.6389 175.832 68.7181C176.835 67.7972 177.815 66.6692 178.77 65.334C179.726 64.0448 180.562 62.7556 181.279 61.4664C181.995 60.2233 182.497 59.2334 182.784 58.4967C184.36 54.3068 185.65 50.14 186.654 45.9962C187.657 41.8524 188.159 37.5475 188.159 33.0814C188.159 31.3778 188.087 29.6742 187.944 27.9707C187.657 28.7073 187.203 29.6742 186.582 30.8713C186.009 32.0224 185.316 33.2655 184.504 34.6008C183.739 35.936 182.903 37.2021 181.995 38.3992C181.135 39.5963 180.227 40.5863 179.272 41.369C178.364 42.1056 177.456 42.474 176.548 42.474C175.975 42.474 175.545 42.2668 175.258 41.8524C175.02 41.392 174.852 40.8855 174.757 40.333C174.709 39.7345 174.685 39.251 174.685 38.8827C174.685 38.3762 174.757 37.5244 174.9 36.3273C175.043 35.1302 175.235 33.772 175.473 32.2526C175.712 30.7332 175.975 29.2138 176.262 27.6944C176.548 26.175 176.811 24.8168 177.05 23.6197C177.337 22.3765 177.576 21.5017 177.767 20.9953C178.006 20.4428 178.364 20.1665 178.842 20.1665C179.176 20.1665 179.487 20.2816 179.774 20.5118C180.06 20.742 180.204 21.0413 180.204 21.4096C180.204 22.9751 179.917 24.6786 179.344 26.5203C178.818 28.362 178.292 30.2267 177.767 32.1145C177.241 33.9562 176.979 35.7748 176.979 37.5705C176.979 37.7086 177.002 38.1 177.05 38.7446C177.098 39.3892 177.217 39.7114 177.409 39.7114C177.504 39.7114 177.576 39.7345 177.624 39.7805C177.671 39.7805 177.719 39.7575 177.767 39.7114C179.057 39.251 180.251 38.3072 181.35 36.8798C182.449 35.4065 183.429 33.726 184.289 31.8382C185.197 29.9505 185.937 28.0858 186.51 26.2441C187.132 24.4024 187.585 22.906 187.872 21.755C187.92 21.5708 187.992 21.3866 188.087 21.2025C188.183 21.0183 188.35 20.9262 188.589 20.9262C189.019 20.9262 189.353 21.4327 189.592 22.4456C189.879 23.4125 190.07 24.5866 190.166 25.9678C190.309 27.3031 190.404 28.5462 190.452 29.6973C190.5 30.8023 190.524 31.4699 190.524 31.7001C190.524 36.5806 189.927 41.415 188.732 46.2034C187.585 50.9918 185.985 55.6191 183.93 60.0852C183.548 60.9139 182.951 61.9959 182.139 63.3311C181.374 64.6664 180.466 66.0016 179.415 67.3368C178.412 68.7181 177.337 69.8691 176.19 70.79C175.091 71.7108 174.04 72.1712 173.037 72.1712Z" fill="black"/>
<path d="M214.921 46.4797C214.348 46.4797 213.918 46.0883 213.631 45.3056C213.344 44.4768 213.129 43.5099 212.986 42.4049C212.843 41.2539 212.747 40.1949 212.699 39.228C212.699 38.2151 212.699 37.5475 212.699 37.2252C212.699 34.4166 212.819 31.4238 213.058 28.2469C213.344 25.024 213.774 21.778 214.348 18.509C214.969 15.1939 215.781 12.04 216.784 9.0473C217.788 6.00851 219.03 3.269 220.511 0.828758C220.846 0.276253 221.347 0 222.016 0C222.303 0 222.566 0.0920833 222.805 0.27625C223.043 0.414378 223.163 0.64459 223.163 0.966887C223.163 1.24314 223.067 1.56544 222.876 1.93377C221.491 5.0186 220.177 8.03437 218.934 10.9811C217.692 13.8817 216.689 16.9896 215.924 20.3046C214.921 24.7247 214.419 29.2138 214.419 33.772C214.419 35.982 214.563 38.169 214.849 40.333C215.088 39.5963 215.566 38.4683 216.283 36.9489C216.999 35.4295 217.836 33.749 218.791 31.9073C219.794 30.0656 220.846 28.293 221.945 26.5894C223.091 24.8858 224.19 23.5046 225.241 22.4456C226.292 21.3406 227.224 20.7881 228.036 20.7881C228.896 20.7881 229.446 21.2025 229.685 22.0312C229.971 22.8139 230.115 23.5276 230.115 24.1722C230.115 26.0139 229.971 27.8556 229.685 29.6973C229.398 31.5389 229.255 33.4037 229.255 35.2914C229.255 35.4756 229.279 35.982 229.326 36.8108C229.374 37.5935 229.47 38.3532 229.613 39.0899C229.804 39.8266 230.043 40.1949 230.33 40.1949C230.76 40.1949 231.19 39.9417 231.62 39.4352C232.05 38.8827 232.432 38.2841 232.767 37.6395C233.149 36.9489 233.483 36.3504 233.77 35.8439C234.057 35.2914 234.272 35.0151 234.415 35.0151C234.558 35.0151 234.654 35.1302 234.702 35.3605C234.749 35.5446 234.773 35.6828 234.773 35.7748C234.773 36.3734 234.534 37.2021 234.057 38.2611C233.627 39.274 233.053 40.2179 232.337 41.0927C231.62 41.9215 230.903 42.3359 230.186 42.3359C229.518 42.3359 228.968 42.0596 228.538 41.5071C228.156 40.9546 227.869 40.287 227.678 39.5043C227.487 38.7215 227.344 37.9618 227.248 37.2252C227.2 36.4885 227.176 35.913 227.176 35.4986C227.176 33.8411 227.248 32.1835 227.391 30.526C227.582 28.8685 227.678 27.211 227.678 25.5535V25.0009C227.678 24.7247 227.654 24.4715 227.606 24.2412C227.559 23.965 227.439 23.8269 227.248 23.8269C226.961 23.8269 226.555 24.1492 226.03 24.7938C225.504 25.3923 225.146 25.8067 224.955 26.0369C223.665 27.6023 222.422 29.467 221.228 31.631C220.081 33.795 219.078 36.0281 218.218 38.3302C217.358 40.5863 216.737 42.7042 216.354 44.684C216.307 45.0524 216.163 45.4437 215.924 45.8581C215.733 46.2725 215.399 46.4797 214.921 46.4797Z" fill="black"/>
<path d="M238.279 48.8969C237.467 48.8969 236.869 48.5055 236.487 47.7228C236.105 46.9861 235.866 46.1343 235.77 45.1675C235.675 44.2006 235.627 43.4639 235.627 42.9574C235.627 41.2078 235.794 39.3661 236.129 37.4324C236.463 35.4525 236.893 33.6108 237.419 31.9073C237.658 31.1246 238.088 29.9965 238.709 28.5232C239.33 27.0038 240.071 25.4614 240.931 23.8959C241.838 22.3305 242.794 21.0183 243.797 19.9593C244.849 18.8543 245.9 18.3018 246.951 18.3018C247.763 18.3018 248.647 18.6471 249.603 19.3377C250.558 20.0284 251.036 20.7881 251.036 21.6168C251.036 21.9391 250.917 22.2154 250.678 22.4456C250.725 22.3996 250.845 22.3765 251.036 22.3765C251.944 22.3765 252.398 22.837 252.398 23.7578C252.398 24.8168 252.23 26.0829 251.896 27.5563C251.609 29.0296 251.299 30.5951 250.964 32.2526C250.63 33.8641 250.463 35.4295 250.463 36.9489C250.463 37.5014 250.51 38.169 250.606 38.9517C250.702 39.6884 250.917 40.356 251.251 40.9546C251.633 41.5531 252.23 41.8524 253.043 41.8524C253.807 41.8524 254.619 41.4611 255.479 40.6783C256.339 39.8956 257.176 38.9287 257.988 37.7777C258.8 36.6266 259.565 35.4756 260.281 34.3245C260.998 33.1734 261.595 32.2066 262.073 31.4238C262.599 30.6411 262.957 30.2498 263.148 30.2498C263.482 30.2498 263.65 30.457 263.65 30.8713C263.65 31.4238 263.387 32.2296 262.861 33.2886C262.384 34.3015 261.738 35.4295 260.926 36.6727C260.114 37.8698 259.206 39.0438 258.203 40.1949C257.247 41.2999 256.268 42.2207 255.264 42.9574C254.309 43.6481 253.449 43.9934 252.684 43.9934C251.442 43.9934 250.486 43.5099 249.818 42.543C249.196 41.5301 248.766 40.333 248.528 38.9517C248.336 37.5705 248.241 36.2813 248.241 35.0842C248.241 34.6698 248.241 34.2785 248.241 33.9101C248.241 33.5418 248.265 33.2195 248.313 32.9432C248.026 33.5878 247.62 34.5547 247.094 35.8439C246.569 37.087 245.947 38.4683 245.231 39.9877C244.562 41.4611 243.821 42.8884 243.009 44.2696C242.245 45.6049 241.456 46.7099 240.644 47.5847C239.832 48.4595 239.043 48.8969 238.279 48.8969ZM238.852 45.9962C239.473 45.9962 240.166 45.4437 240.931 44.3387C241.695 43.2337 242.483 41.8294 243.296 40.1258C244.156 38.3762 244.968 36.5115 245.732 34.5317C246.497 32.5519 247.19 30.6872 247.811 28.9376C248.48 27.1419 249.029 25.6686 249.459 24.5175C249.889 23.3204 250.176 22.6758 250.319 22.5837L249.889 22.6528C249.555 22.6528 249.292 22.4916 249.101 22.1693C248.91 21.801 248.671 21.4557 248.384 21.1334C248.098 20.8111 247.62 20.65 246.951 20.65C246.091 20.65 245.255 21.1334 244.442 22.1003C243.63 23.0672 242.842 24.2412 242.077 25.6225C241.361 26.9577 240.74 28.2699 240.214 29.5591C239.736 30.8483 239.402 31.8152 239.211 32.4598C238.255 35.6367 237.777 38.9057 237.777 42.2668C237.777 42.451 237.777 42.8653 237.777 43.5099C237.825 44.1085 237.921 44.684 238.064 45.2365C238.255 45.743 238.518 45.9962 238.852 45.9962Z" fill="black"/>
<path d="M262.282 47.2394C261.947 47.2394 261.685 47.1243 261.493 46.894C261.35 46.6178 261.278 46.3185 261.278 45.9962C261.278 43.4179 261.422 40.8395 261.708 38.2611C262.043 35.6367 262.21 33.0353 262.21 30.457C262.21 30.1807 262.186 29.6512 262.138 28.8685C262.138 28.0397 262.091 27.1649 261.995 26.2441C261.947 25.2772 261.852 24.4254 261.708 23.6887C261.613 22.906 261.47 22.4226 261.278 22.2384C261.087 22.1003 260.896 21.9391 260.705 21.755C260.562 21.5708 260.49 21.3406 260.49 21.0643C260.49 20.7881 260.61 20.5809 260.848 20.4428C261.135 20.2586 261.422 20.1665 261.708 20.1665C262.521 20.1665 263.094 20.5348 263.428 21.2715C263.811 21.9622 264.05 22.8139 264.145 23.8269C264.289 24.8398 264.36 25.8067 264.36 26.7275C264.36 31.0555 264.217 35.4065 263.93 39.7805C264.121 39.274 264.504 38.3762 265.077 37.087C265.65 35.7979 266.343 34.3475 267.155 32.736C267.968 31.1246 268.804 29.5822 269.664 28.1088C270.571 26.5894 271.408 25.3463 272.172 24.3794C272.937 23.3664 273.558 22.86 274.036 22.86C274.704 22.86 275.182 23.2744 275.469 24.1031C275.803 24.8858 275.971 25.5304 275.971 26.0369C275.971 28.1548 275.851 30.2728 275.612 32.3907C275.421 34.5087 275.326 36.6496 275.326 38.8136C275.326 39.0899 275.349 39.6194 275.397 40.4021C275.493 41.1388 275.636 41.8524 275.827 42.543C276.066 43.1876 276.424 43.5099 276.902 43.5099C277.285 43.5099 277.786 43.0956 278.407 42.2668C279.028 41.438 279.673 40.4711 280.342 39.3661C281.011 38.2151 281.609 37.1331 282.134 36.1202C282.66 35.1072 283.018 34.3936 283.209 33.9792C283.257 33.8871 283.305 33.795 283.352 33.7029C283.4 33.5648 283.472 33.4957 283.567 33.4957C283.806 33.4957 283.95 33.6799 283.997 34.0482C284.045 34.3705 284.069 34.5777 284.069 34.6698C284.069 35.1302 283.806 35.936 283.281 37.087C282.755 38.2381 282.086 39.4582 281.274 40.7474C280.51 42.0366 279.697 43.1416 278.837 44.0624C278.025 44.9833 277.284 45.4437 276.616 45.4437C275.66 45.4437 274.943 45.0754 274.465 44.3387C274.035 43.602 273.749 42.7733 273.605 41.8524C273.462 40.8855 273.39 40.0798 273.39 39.4352C273.39 37.9158 273.462 36.3964 273.605 34.877C273.797 33.3576 273.892 31.8382 273.892 30.3188C273.892 30.1807 273.868 29.8354 273.82 29.2829C273.82 28.7304 273.797 28.2009 273.749 27.6944C273.701 27.188 273.582 26.9347 273.39 26.9347C272.913 26.9347 272.292 27.5103 271.527 28.6613C270.81 29.8124 270.022 31.2627 269.162 33.0123C268.35 34.7619 267.538 36.5806 266.725 38.4683C265.913 40.31 265.196 41.9675 264.575 43.4409C264.002 44.9142 263.596 45.9041 263.357 46.4106C263.261 46.5948 263.118 46.7789 262.927 46.9631C262.783 47.1473 262.568 47.2394 262.282 47.2394Z" fill="black"/>
<path d="M283.29 73C282.239 73 281.451 72.7007 280.925 72.1022C280.447 71.5497 280.113 70.859 279.922 70.0303C279.779 69.2015 279.707 68.3958 279.707 67.6131C279.707 65.8635 279.994 63.9067 280.567 61.7427C281.14 59.5787 281.929 57.3687 282.932 55.1126C283.983 52.8565 285.178 50.7155 286.515 48.6897C287.901 46.6638 289.382 44.8682 290.959 43.3027C292.536 41.7373 294.16 40.5862 295.832 39.8496L295.904 37.1561C295.904 36.6496 295.88 35.7979 295.832 34.6008C295.832 33.3576 295.785 32.0224 295.689 30.5951C295.593 29.1678 295.474 27.9016 295.331 26.7966C295.187 25.6916 295.044 25.024 294.901 24.7938C294.471 25.4383 293.945 26.5664 293.324 28.1779C292.703 29.7893 292.01 31.585 291.246 33.5648C290.481 35.4986 289.669 37.3863 288.809 39.228C287.997 41.0697 287.137 42.5891 286.229 43.7862C285.369 44.9833 284.509 45.5818 283.649 45.5818C282.645 45.5818 281.881 45.2826 281.355 44.684C280.877 44.0855 280.543 43.3718 280.352 42.543C280.209 41.6682 280.137 40.8625 280.137 40.1258C280.137 39.251 280.352 37.9388 280.782 36.1892C281.212 34.4396 281.785 32.5519 282.502 30.526C283.266 28.4541 284.126 26.4973 285.082 24.6556C286.085 22.7679 287.137 21.2255 288.235 20.0284C289.334 18.8313 290.457 18.2327 291.604 18.2327C292.273 18.2327 292.822 18.4629 293.252 18.9234C293.73 19.3838 294.088 19.8903 294.327 20.4428C294.423 20.3046 294.59 20.2356 294.829 20.2356C295.546 20.2356 296.119 20.8341 296.549 22.0312C296.979 23.2283 297.29 24.7247 297.481 26.5203C297.72 28.2699 297.887 30.0886 297.982 31.9763C298.078 33.8641 298.126 35.4986 298.126 36.8798C298.126 37.4324 298.102 37.9388 298.054 38.3992C298.054 38.8136 298.054 39.1359 298.054 39.3661H298.269C298.604 39.3661 298.914 39.4582 299.201 39.6424C299.535 39.8266 299.702 40.1028 299.702 40.4711C299.702 41.1618 299.32 41.5071 298.556 41.5071C298.269 41.5071 298.054 41.4841 297.911 41.438C297.481 45.3516 296.812 49.2652 295.904 53.1788C295.044 57.1384 293.706 60.9139 291.891 64.5052C291.604 65.1038 291.126 65.8635 290.457 66.7843C289.836 67.7512 289.119 68.6951 288.307 69.6159C287.495 70.5828 286.635 71.3885 285.727 72.0331C284.867 72.6777 284.055 73 283.29 73ZM283.649 43.3027C284.27 43.3027 284.939 42.7502 285.655 41.6452C286.42 40.4942 287.184 39.0669 287.949 37.3633C288.713 35.6597 289.43 33.8871 290.099 32.0454C290.768 30.1577 291.341 28.4771 291.819 27.0038C292.344 25.4844 292.703 24.4254 292.894 23.8269C292.798 23.6427 292.727 23.4816 292.679 23.3434C292.679 23.2053 292.679 23.0672 292.679 22.929C292.679 22.7449 292.679 22.4686 292.679 22.1003C292.679 21.6859 292.607 21.3176 292.464 20.9953C292.321 20.6269 292.034 20.4428 291.604 20.4428C290.744 20.4428 289.86 21.0183 288.952 22.1693C288.092 23.3204 287.256 24.7707 286.444 26.5203C285.679 28.2699 284.986 30.1116 284.365 32.0454C283.792 33.9331 283.314 35.6597 282.932 37.2252C282.597 38.7906 282.43 39.9186 282.43 40.6093C282.43 41.0237 282.478 41.5762 282.574 42.2668C282.669 42.9574 283.027 43.3027 283.649 43.3027ZM283.29 70.9281C283.864 70.9281 284.485 70.6288 285.154 70.0303C285.87 69.4778 286.539 68.7641 287.16 67.8893C287.829 67.0605 288.403 66.2318 288.88 65.403C289.406 64.6203 289.788 63.9987 290.027 63.5383C291.795 60.2233 293.109 56.7241 293.969 53.0407C294.829 49.4033 295.426 45.743 295.761 42.0596C294.423 42.7502 293.085 43.8553 291.747 45.3746C290.457 46.848 289.215 48.5516 288.02 50.4853C286.826 52.4191 285.751 54.4219 284.795 56.4938C283.888 58.6118 283.171 60.6146 282.645 62.5024C282.12 64.4361 281.857 66.1167 281.857 67.544C281.857 67.8203 281.881 68.2116 281.929 68.7181C281.976 69.2706 282.096 69.777 282.287 70.2375C282.526 70.6979 282.86 70.9281 283.29 70.9281Z" fill="black"/>
<path d="M308.415 46.9631C307.125 46.9631 306.122 46.4106 305.405 45.3056C304.736 44.2006 304.282 42.8653 304.043 41.2999C303.805 39.6884 303.685 38.1921 303.685 36.8108C303.685 36.1662 303.685 35.5907 303.685 35.0842C303.733 34.5317 303.781 34.0713 303.828 33.7029H303.613C303.04 33.7029 302.753 33.4957 302.753 33.0814C302.849 32.8512 303.016 32.667 303.255 32.5289C303.542 32.3447 303.805 32.2296 304.043 32.1835C304.282 30.1577 304.736 28.0858 305.405 25.9678C306.074 23.8499 306.982 21.9391 308.129 20.2356V19.8212C308.129 19.3608 308.415 19.0845 308.989 18.9924C309.228 18.7622 309.466 18.509 309.705 18.2327C309.992 17.9104 310.303 17.7493 310.637 17.7493C311.019 17.7493 311.306 17.9104 311.497 18.2327C311.736 18.509 311.76 18.8083 311.569 19.1306C312.477 19.3147 313.289 19.6831 314.005 20.2356C314.77 20.742 315.152 21.5017 315.152 22.5147C315.152 23.8499 314.627 25.2312 313.575 26.6585C312.572 28.0397 311.354 29.3059 309.92 30.457C308.535 31.562 307.269 32.3907 306.122 32.9432C305.979 34.0482 305.883 35.1763 305.835 36.3273C305.835 37.4324 305.835 38.5374 305.835 39.6424C305.835 40.1949 305.859 40.8855 305.907 41.7143C306.002 42.543 306.217 43.2797 306.552 43.9243C306.934 44.5689 307.555 44.8912 308.415 44.8912C309.323 44.8912 310.207 44.4998 311.067 43.7171C311.975 42.9344 312.835 41.9445 313.647 40.7474C314.507 39.5043 315.296 38.2151 316.012 36.8798C316.729 35.5446 317.35 34.2785 317.876 33.0814C318.401 31.8843 318.783 30.9634 319.022 30.3188C319.118 30.0886 319.237 29.8814 319.381 29.6973C319.524 29.467 319.739 29.3519 320.026 29.3519C320.408 29.3519 320.599 29.5821 320.599 30.0426C320.599 30.7792 320.336 31.8382 319.811 33.2195C319.285 34.5547 318.568 36.005 317.661 37.5705C316.801 39.1359 315.821 40.6323 314.722 42.0596C313.671 43.4869 312.596 44.661 311.497 45.5818C310.398 46.5027 309.371 46.9631 308.415 46.9631ZM306.48 30.8023C307.388 30.2498 308.296 29.5591 309.204 28.7304C310.111 27.9016 310.876 26.9577 311.497 25.8988C312.118 24.8398 312.429 23.7808 312.429 22.7219C312.429 22.1693 312.142 21.778 311.569 21.5478C310.995 21.2715 310.494 21.1104 310.064 21.0643C309.156 22.4916 308.391 24.0571 307.77 25.7606C307.197 27.4642 306.767 29.1447 306.48 30.8023Z" fill="black"/>
<path d="M322.291 46.7559C321.957 46.7559 321.694 46.6408 321.503 46.4106C321.312 46.1804 321.216 45.9041 321.216 45.5818C321.216 43.8322 321.288 42.0826 321.431 40.333C321.622 38.5374 321.718 36.7647 321.718 35.0151C321.718 33.8641 321.67 32.4137 321.574 30.6641C321.527 28.8685 321.359 27.1189 321.073 25.4153C320.834 23.6657 320.404 22.3305 319.783 21.4096C319.735 21.3176 319.687 21.2485 319.639 21.2025C319.592 21.1104 319.568 21.0183 319.568 20.9262C319.568 20.65 319.711 20.4658 319.998 20.3737C320.284 20.2356 320.523 20.1665 320.714 20.1665C321.383 20.1665 321.909 20.5348 322.291 21.2715C322.673 22.0082 322.96 22.9521 323.151 24.1031C323.342 25.2542 323.462 26.4513 323.509 27.6944C323.605 28.8915 323.653 29.9965 323.653 31.0095C323.653 31.9763 323.653 32.644 323.653 33.0123C323.653 33.4727 323.653 33.9101 323.653 34.3245C323.701 34.7389 323.724 35.1763 323.724 35.6367C323.916 34.9921 324.25 34.0022 324.728 32.667C325.206 31.3318 325.779 29.8584 326.448 28.2469C327.117 26.5894 327.833 25.024 328.598 23.5506C329.41 22.0312 330.199 20.7881 330.963 19.8212C331.775 18.8543 332.54 18.3709 333.256 18.3709C333.973 18.3709 334.499 18.8083 334.833 19.6831C335.168 20.5579 335.383 21.5017 335.478 22.5147C335.621 23.5276 335.693 24.2873 335.693 24.7938C335.693 25.1161 335.669 25.6686 335.621 26.4513C335.574 27.188 335.454 27.8786 335.263 28.5232C335.12 29.1678 334.833 29.4901 334.403 29.4901C334.021 29.4901 333.83 29.0757 333.83 28.2469C333.83 27.8786 333.854 27.5333 333.901 27.211C333.949 26.8887 333.973 26.6354 333.973 26.4513C333.973 26.2211 333.949 25.6916 333.901 24.8628C333.854 23.988 333.734 23.1593 333.543 22.3765C333.4 21.5938 333.185 21.2025 332.898 21.2025C332.611 21.2025 332.253 21.4787 331.823 22.0312C331.441 22.5377 331.035 23.1593 330.605 23.8959C330.222 24.5866 329.864 25.2772 329.53 25.9678C329.243 26.6124 329.052 27.0728 328.956 27.3491C328.24 29.0527 327.475 30.9864 326.663 33.1504C325.898 35.3144 325.229 37.5014 324.656 39.7114C324.131 41.8754 323.868 43.9013 323.868 45.789C323.533 46.4336 323.008 46.7559 322.291 46.7559Z" fill="black"/>
<path d="M340.137 47.1703C339.277 47.1703 338.847 46.7559 338.847 45.9272C338.847 45.1444 339.133 44.2696 339.707 43.3027C340.328 42.2898 341.068 41.2769 341.928 40.264C342.788 39.205 343.648 38.2381 344.508 37.3633C345.416 36.4885 346.157 35.7748 346.73 35.2223C346.061 34.9 345.225 34.6238 344.222 34.3936C343.266 34.1173 342.287 33.818 341.283 33.4957C340.328 33.1274 339.515 32.667 338.847 32.1145C338.225 31.5159 337.915 30.7332 337.915 29.7663C337.915 28.7534 338.297 27.6023 339.062 26.3132C339.874 25.024 340.901 23.7808 342.143 22.5837C343.386 21.3406 344.652 20.3277 345.942 19.5449C347.232 18.7162 348.379 18.3018 349.382 18.3018C350.003 18.3018 350.6 18.4629 351.174 18.7852C351.795 19.0615 352.105 19.5449 352.105 20.2356C352.105 20.4197 352.058 20.673 351.962 20.9953C351.866 21.3176 351.699 21.4787 351.46 21.4787C351.126 21.4787 350.839 21.3176 350.6 20.9953C350.409 20.6269 350.17 20.4428 349.884 20.4428C349.071 20.4428 348.092 20.7651 346.945 21.4096C345.846 22.0542 344.771 22.883 343.72 23.8959C342.669 24.8628 341.785 25.8757 341.068 26.9347C340.399 27.9937 340.065 28.9376 340.065 29.7663C340.065 30.3188 340.399 30.8023 341.068 31.2167C341.737 31.631 342.526 31.9763 343.433 32.2526C344.389 32.5289 345.321 32.8051 346.228 33.0814C347.136 33.3116 347.805 33.5648 348.235 33.8411C348.474 33.6109 348.88 33.2425 349.454 32.736C350.027 32.2296 350.672 31.6771 351.389 31.0785C352.105 30.48 352.75 29.9735 353.324 29.5591C353.945 29.1447 354.375 28.9376 354.614 28.9376C354.805 28.9376 354.9 29.0296 354.9 29.2138C354.9 29.444 354.662 29.8354 354.184 30.3879C353.754 30.8944 353.204 31.4469 352.535 32.0454C351.914 32.644 351.317 33.2195 350.744 33.772C350.17 34.2785 349.764 34.6468 349.525 34.877C349.955 35.5676 350.17 36.3043 350.17 37.087C350.17 37.8698 349.812 38.8366 349.095 39.9877C348.379 41.0927 347.471 42.1977 346.372 43.3027C345.321 44.4078 344.222 45.3286 343.075 46.0653C341.928 46.802 340.949 47.1703 340.137 47.1703ZM342.86 43.6481C343.29 43.6481 343.792 43.4178 344.365 42.9574C344.986 42.497 345.583 41.9215 346.157 41.2308C346.73 40.5402 347.208 39.8726 347.59 39.228C348.02 38.5374 348.235 37.9849 348.235 37.5705C348.235 37.1101 348.14 36.7647 347.949 36.5345C347.662 36.8108 347.208 37.2482 346.587 37.8467C346.013 38.4453 345.392 39.1129 344.723 39.8496C344.102 40.5402 343.553 41.2078 343.075 41.8524C342.645 42.451 342.43 42.9114 342.43 43.2337C342.43 43.5099 342.573 43.6481 342.86 43.6481Z" fill="black"/>
<path d="M161.322 57.4941C161.322 57.2129 161.357 56.9688 161.428 56.7617C161.498 56.5508 161.607 56.3652 161.756 56.2051C161.908 56.041 162.08 55.8965 162.271 55.7715C162.463 55.6465 162.701 55.5332 162.986 55.4316C163.506 55.248 164.141 55.082 164.891 54.9336C164.891 54.3164 164.771 53.9043 164.533 53.6973C164.322 53.5137 164.016 53.4219 163.613 53.4219C163.121 53.4219 162.697 53.6094 162.342 53.9844C162.189 54.1367 162.084 54.2734 162.025 54.3945L161.469 54.0254C161.906 53.1855 162.65 52.7656 163.701 52.7656C164.643 52.7656 165.244 53.127 165.506 53.8496C165.611 54.1426 165.664 54.498 165.664 54.916V58.1328C165.664 58.2461 165.686 58.4004 165.729 58.5957C165.771 58.791 165.811 58.9258 165.846 59H165.066C164.949 58.9414 164.891 58.6133 164.891 58.0156C164.34 58.7227 163.732 59.0762 163.068 59.0762C162.334 59.0762 161.824 58.8184 161.539 58.3027C161.395 58.041 161.322 57.7715 161.322 57.4941ZM162.242 56.8203C162.145 57 162.096 57.2344 162.096 57.5234C162.096 57.8125 162.197 58.0352 162.4 58.1914C162.604 58.3438 162.828 58.4199 163.074 58.4199C163.324 58.4199 163.543 58.3828 163.73 58.3086C163.922 58.2344 164.096 58.1387 164.252 58.0215C164.537 57.8066 164.75 57.6152 164.891 57.4473V55.5898C164.148 55.7812 163.709 55.8984 163.572 55.9414C162.885 56.1641 162.441 56.457 162.242 56.8203ZM190.777 55.9531C190.777 53.8203 191.607 52.7539 193.268 52.7539C193.678 52.7539 194.023 52.8516 194.305 53.0469C194.582 53.2422 194.766 53.418 194.855 53.5742C195.012 53.8398 195.119 54.0605 195.178 54.2363L194.557 54.5176C194.549 54.4395 194.506 54.3242 194.428 54.1719C194.354 54.0195 194.273 53.8945 194.188 53.7969C194.102 53.6992 193.977 53.6113 193.812 53.5332C193.652 53.4512 193.471 53.4102 193.268 53.4102C192.123 53.4102 191.551 54.2402 191.551 55.9004C191.551 56.7051 191.701 57.3242 192.002 57.7578C192.307 58.1914 192.729 58.4082 193.268 58.4082C193.639 58.4082 193.947 58.2656 194.193 57.9805C194.408 57.7344 194.553 57.5156 194.627 57.3242L194.68 57.1953L195.289 57.4883C195.152 57.8672 194.928 58.2109 194.615 58.5195C194.475 58.6562 194.283 58.7812 194.041 58.8945C193.799 59.0078 193.541 59.0645 193.268 59.0645C192.416 59.0645 191.787 58.793 191.381 58.25C190.979 57.7031 190.777 56.9375 190.777 55.9531ZM196.145 55.8711C196.145 54.9258 196.355 54.1699 196.777 53.6035C197.203 53.0371 197.797 52.7539 198.559 52.7539C199.32 52.7539 199.91 53.0391 200.328 53.6094C200.75 54.1797 200.961 54.9414 200.961 55.8945C200.961 56.8477 200.748 57.6152 200.322 58.1973C199.9 58.7793 199.312 59.0703 198.559 59.0703C197.789 59.0703 197.191 58.7695 196.766 58.168C196.352 57.5781 196.145 56.8125 196.145 55.8711ZM196.918 55.9062C196.918 57.1445 197.24 57.9297 197.885 58.2617C198.08 58.3633 198.305 58.4141 198.559 58.4141C198.812 58.4141 199.037 58.3633 199.232 58.2617C199.432 58.1602 199.59 58.0293 199.707 57.8691C199.824 57.709 199.92 57.5156 199.994 57.2891C200.123 56.8945 200.188 56.4355 200.188 55.9121C200.188 54.2441 199.643 53.4102 198.553 53.4102C197.463 53.4102 196.918 54.2422 196.918 55.9062ZM202.156 59.0117V50.123H202.93V59.0117H202.156ZM204.605 59.0117V50.123H205.379V59.0117H204.605ZM207.324 58.1328C207.133 57.8477 206.986 57.5293 206.885 57.1777C206.787 56.8262 206.738 56.457 206.738 56.0703C206.738 55.6836 206.766 55.332 206.82 55.0156C206.875 54.6953 206.947 54.4238 207.037 54.2012C207.127 53.9785 207.236 53.7812 207.365 53.6094C207.494 53.4336 207.627 53.293 207.764 53.1875C207.9 53.082 208.049 52.9961 208.209 52.9297C208.486 52.8125 208.75 52.7539 209 52.7539C209.25 52.7539 209.463 52.7773 209.639 52.8242C209.814 52.8672 210.002 52.959 210.201 53.0996C210.404 53.2363 210.578 53.418 210.723 53.6445C211.059 54.1758 211.227 54.959 211.227 55.9941H207.512C207.512 57.0371 207.775 57.748 208.303 58.127C208.564 58.3145 208.855 58.4082 209.176 58.4082C209.777 58.4082 210.289 58.0352 210.711 57.2891L211.244 57.6582C211.092 57.9395 210.893 58.1934 210.646 58.4199C210.178 58.8496 209.715 59.0645 209.258 59.0645C208.801 59.0645 208.412 58.9805 208.092 58.8125C207.771 58.6445 207.516 58.418 207.324 58.1328ZM207.547 55.3379H210.453C210.453 54.7559 210.318 54.2734 210.049 53.8906C209.822 53.5703 209.5 53.4102 209.082 53.4102C208.398 53.4102 207.941 53.7266 207.711 54.3594C207.602 54.6562 207.547 54.9824 207.547 55.3379ZM212.164 55.9531C212.164 53.8203 212.994 52.7539 214.654 52.7539C215.064 52.7539 215.41 52.8516 215.691 53.0469C215.969 53.2422 216.152 53.418 216.242 53.5742C216.398 53.8398 216.506 54.0605 216.564 54.2363L215.943 54.5176C215.936 54.4395 215.893 54.3242 215.814 54.1719C215.74 54.0195 215.66 53.8945 215.574 53.7969C215.488 53.6992 215.363 53.6113 215.199 53.5332C215.039 53.4512 214.857 53.4102 214.654 53.4102C213.51 53.4102 212.938 54.2402 212.938 55.9004C212.938 56.7051 213.088 57.3242 213.389 57.7578C213.693 58.1914 214.115 58.4082 214.654 58.4082C215.025 58.4082 215.334 58.2656 215.58 57.9805C215.795 57.7344 215.939 57.5156 216.014 57.3242L216.066 57.1953L216.676 57.4883C216.539 57.8672 216.314 58.2109 216.002 58.5195C215.861 58.6562 215.67 58.7812 215.428 58.8945C215.186 59.0078 214.928 59.0645 214.654 59.0645C213.803 59.0645 213.174 58.793 212.768 58.25C212.365 57.7031 212.164 56.9375 212.164 55.9531ZM217.361 53.4746V52.8184H218.404V50.5625H219.178V52.8184H220.596V53.4746H219.178V57.3945C219.178 57.7891 219.238 58.0586 219.359 58.2031C219.48 58.3477 219.68 58.4199 219.957 58.4199C220.07 58.4199 220.205 58.4102 220.361 58.3906C220.518 58.3711 220.596 58.3594 220.596 58.3555V58.9355C220.338 59.0293 220.086 59.0762 219.84 59.0762C219.598 59.0762 219.432 59.0703 219.342 59.0586C219.252 59.0469 219.143 59.0098 219.014 58.9473C218.885 58.8848 218.779 58.7969 218.697 58.6836C218.502 58.4102 218.404 57.9805 218.404 57.3945V53.4746H217.361ZM221.404 52.0391V51.1602H222.283V52.0391H221.404ZM221.457 59V52.8184H222.23V59H221.457ZM223.59 55.8711C223.59 54.9258 223.801 54.1699 224.223 53.6035C224.648 53.0371 225.242 52.7539 226.004 52.7539C226.766 52.7539 227.355 53.0391 227.773 53.6094C228.195 54.1797 228.406 54.9414 228.406 55.8945C228.406 56.8477 228.193 57.6152 227.768 58.1973C227.346 58.7793 226.758 59.0703 226.004 59.0703C225.234 59.0703 224.637 58.7695 224.211 58.168C223.797 57.5781 223.59 56.8125 223.59 55.8711ZM224.363 55.9062C224.363 57.1445 224.686 57.9297 225.33 58.2617C225.525 58.3633 225.75 58.4141 226.004 58.4141C226.258 58.4141 226.482 58.3633 226.678 58.2617C226.877 58.1602 227.035 58.0293 227.152 57.8691C227.27 57.709 227.365 57.5156 227.439 57.2891C227.568 56.8945 227.633 56.4355 227.633 55.9121C227.633 54.2441 227.088 53.4102 225.998 53.4102C224.908 53.4102 224.363 54.2422 224.363 55.9062ZM229.549 59V52.8184H230.322V53.832C230.666 53.4922 230.992 53.2285 231.301 53.041C231.609 52.8496 231.973 52.7539 232.391 52.7539C232.809 52.7539 233.162 52.8906 233.451 53.1641C233.74 53.4375 233.885 53.8477 233.885 54.3945V59H233.111V54.3945C233.111 54.1016 233.006 53.8652 232.795 53.6855C232.588 53.502 232.363 53.4102 232.121 53.4102C231.543 53.4102 230.943 53.748 230.322 54.4238V59H229.549ZM237.969 55.8711C237.969 54.9258 238.18 54.1699 238.602 53.6035C239.027 53.0371 239.621 52.7539 240.383 52.7539C241.145 52.7539 241.734 53.0391 242.152 53.6094C242.574 54.1797 242.785 54.9414 242.785 55.8945C242.785 56.8477 242.572 57.6152 242.146 58.1973C241.725 58.7793 241.137 59.0703 240.383 59.0703C239.613 59.0703 239.016 58.7695 238.59 58.168C238.176 57.5781 237.969 56.8125 237.969 55.8711ZM238.742 55.9062C238.742 57.1445 239.064 57.9297 239.709 58.2617C239.904 58.3633 240.129 58.4141 240.383 58.4141C240.637 58.4141 240.861 58.3633 241.057 58.2617C241.256 58.1602 241.414 58.0293 241.531 57.8691C241.648 57.709 241.744 57.5156 241.818 57.2891C241.947 56.8945 242.012 56.4355 242.012 55.9121C242.012 54.2441 241.467 53.4102 240.377 53.4102C239.287 53.4102 238.742 54.2422 238.742 55.9062ZM246.371 50.123V50.7734H245.85C245.264 50.7734 244.971 51.0195 244.971 51.5117V52.8184H246.371V53.4746H244.971V59H244.197V53.4746H243.184V52.8184H244.197V51.5117C244.197 50.875 244.473 50.4453 245.023 50.2227C245.281 50.1211 245.561 50.0703 245.861 50.0703C246.166 50.0703 246.336 50.0879 246.371 50.123ZM249.916 57.8281L250.496 57.4531C250.703 57.7734 250.934 58.0137 251.188 58.1738C251.441 58.3301 251.752 58.4082 252.119 58.4082C252.502 58.4082 252.812 58.3047 253.051 58.0977C253.25 57.9258 253.35 57.7148 253.35 57.4648C253.35 57.2148 253.307 57.0156 253.221 56.8672C253.135 56.7188 253.014 56.5977 252.857 56.5039C252.596 56.3555 252.322 56.248 252.037 56.1816C251.756 56.1113 251.533 56.0488 251.369 55.9941C251.209 55.9355 251.043 55.8574 250.871 55.7598C250.699 55.6621 250.551 55.5527 250.426 55.4316C250.141 55.1543 249.998 54.7891 249.998 54.3359C249.998 53.8789 250.18 53.502 250.543 53.2051C250.91 52.9043 251.377 52.7539 251.943 52.7539C252.611 52.7539 253.176 52.9941 253.637 53.4746C253.723 53.5645 253.795 53.6523 253.854 53.7383L253.32 54.1367C253.293 54.1094 253.238 54.0527 253.156 53.9668C253.074 53.877 253.021 53.8203 252.998 53.7969L252.846 53.6738C252.775 53.6113 252.717 53.5703 252.67 53.5508L252.471 53.4805C252.346 53.4336 252.135 53.4102 251.838 53.4102C251.541 53.4102 251.285 53.4961 251.07 53.668C250.855 53.8359 250.748 54.0215 250.748 54.2246C250.748 54.4277 250.783 54.5918 250.854 54.7168C250.924 54.8379 251.029 54.9434 251.17 55.0332C251.396 55.1738 251.658 55.2891 251.955 55.3789C252.252 55.4688 252.447 55.5293 252.541 55.5605C252.639 55.5918 252.768 55.6406 252.928 55.707C253.092 55.7695 253.219 55.8301 253.309 55.8887C253.402 55.9473 253.508 56.0254 253.625 56.123C253.742 56.2168 253.832 56.3164 253.895 56.4219C254.047 56.6875 254.123 56.9766 254.123 57.2891C254.123 57.8086 253.926 58.2344 253.531 58.5664C253.137 58.8984 252.68 59.0645 252.16 59.0645C251.641 59.0645 251.203 58.9668 250.848 58.7715C250.496 58.5723 250.186 58.2578 249.916 57.8281ZM255.014 57.4941C255.014 57.2129 255.049 56.9688 255.119 56.7617C255.189 56.5508 255.299 56.3652 255.447 56.2051C255.6 56.041 255.771 55.8965 255.963 55.7715C256.154 55.6465 256.393 55.5332 256.678 55.4316C257.197 55.248 257.832 55.082 258.582 54.9336C258.582 54.3164 258.463 53.9043 258.225 53.6973C258.014 53.5137 257.707 53.4219 257.305 53.4219C256.812 53.4219 256.389 53.6094 256.033 53.9844C255.881 54.1367 255.775 54.2734 255.717 54.3945L255.16 54.0254C255.598 53.1855 256.342 52.7656 257.393 52.7656C258.334 52.7656 258.936 53.127 259.197 53.8496C259.303 54.1426 259.355 54.498 259.355 54.916V58.1328C259.355 58.2461 259.377 58.4004 259.42 58.5957C259.463 58.791 259.502 58.9258 259.537 59H258.758C258.641 58.9414 258.582 58.6133 258.582 58.0156C258.031 58.7227 257.424 59.0762 256.76 59.0762C256.025 59.0762 255.516 58.8184 255.23 58.3027C255.086 58.041 255.014 57.7715 255.014 57.4941ZM255.934 56.8203C255.836 57 255.787 57.2344 255.787 57.5234C255.787 57.8125 255.889 58.0352 256.092 58.1914C256.295 58.3438 256.52 58.4199 256.766 58.4199C257.016 58.4199 257.234 58.3828 257.422 58.3086C257.613 58.2344 257.787 58.1387 257.943 58.0215C258.229 57.8066 258.441 57.6152 258.582 57.4473V55.5898C257.84 55.7812 257.4 55.8984 257.264 55.9414C256.576 56.1641 256.133 56.457 255.934 56.8203ZM260.094 52.8184H260.902L262.531 58.1445H262.643L264.271 52.8184H265.08L263.182 59H261.992L260.094 52.8184ZM266.188 58.1328C265.996 57.8477 265.85 57.5293 265.748 57.1777C265.65 56.8262 265.602 56.457 265.602 56.0703C265.602 55.6836 265.629 55.332 265.684 55.0156C265.738 54.6953 265.811 54.4238 265.9 54.2012C265.99 53.9785 266.1 53.7812 266.229 53.6094C266.357 53.4336 266.49 53.293 266.627 53.1875C266.764 53.082 266.912 52.9961 267.072 52.9297C267.35 52.8125 267.613 52.7539 267.863 52.7539C268.113 52.7539 268.326 52.7773 268.502 52.8242C268.678 52.8672 268.865 52.959 269.064 53.0996C269.268 53.2363 269.441 53.418 269.586 53.6445C269.922 54.1758 270.09 54.959 270.09 55.9941H266.375C266.375 57.0371 266.639 57.748 267.166 58.127C267.428 58.3145 267.719 58.4082 268.039 58.4082C268.641 58.4082 269.152 58.0352 269.574 57.2891L270.107 57.6582C269.955 57.9395 269.756 58.1934 269.51 58.4199C269.041 58.8496 268.578 59.0645 268.121 59.0645C267.664 59.0645 267.275 58.9805 266.955 58.8125C266.635 58.6445 266.379 58.418 266.188 58.1328ZM266.41 55.3379H269.316C269.316 54.7559 269.182 54.2734 268.912 53.8906C268.686 53.5703 268.363 53.4102 267.945 53.4102C267.262 53.4102 266.805 53.7266 266.574 54.3594C266.465 54.6562 266.41 54.9824 266.41 55.3379ZM274.936 58.0273C274.537 58.7188 273.982 59.0645 273.271 59.0645C272.916 59.0645 272.592 58.9766 272.299 58.8008C272.006 58.6211 271.77 58.3848 271.59 58.0918C271.215 57.4785 271.027 56.7852 271.027 56.0117C271.027 55.4375 271.119 54.9043 271.303 54.4121C271.49 53.9199 271.764 53.5215 272.123 53.2168C272.482 52.9082 272.865 52.7539 273.271 52.7539C273.682 52.7539 274.043 52.8594 274.355 53.0703C274.668 53.2812 274.861 53.4668 274.936 53.627V50.123H275.709V58.1445C275.709 58.2617 275.725 58.416 275.756 58.6074C275.791 58.7949 275.826 58.9258 275.861 59H275.082C274.984 58.9531 274.936 58.6289 274.936 58.0273ZM271.801 56.0117C271.801 56.7031 271.924 57.2695 272.17 57.7109C272.428 58.1758 272.836 58.4082 273.395 58.4082C273.766 58.4082 274.07 58.3027 274.309 58.0918C274.5 57.9238 274.709 57.6836 274.936 57.3711V54.2949C274.521 53.7051 274.059 53.4102 273.547 53.4102C272.383 53.4102 271.801 54.2773 271.801 56.0117ZM300.822 57.8281L301.402 57.4531C301.609 57.7734 301.84 58.0137 302.094 58.1738C302.348 58.3301 302.658 58.4082 303.025 58.4082C303.408 58.4082 303.719 58.3047 303.957 58.0977C304.156 57.9258 304.256 57.7148 304.256 57.4648C304.256 57.2148 304.213 57.0156 304.127 56.8672C304.041 56.7188 303.92 56.5977 303.764 56.5039C303.502 56.3555 303.229 56.248 302.943 56.1816C302.662 56.1113 302.439 56.0488 302.275 55.9941C302.115 55.9355 301.949 55.8574 301.777 55.7598C301.605 55.6621 301.457 55.5527 301.332 55.4316C301.047 55.1543 300.904 54.7891 300.904 54.3359C300.904 53.8789 301.086 53.502 301.449 53.2051C301.816 52.9043 302.283 52.7539 302.85 52.7539C303.518 52.7539 304.082 52.9941 304.543 53.4746C304.629 53.5645 304.701 53.6523 304.76 53.7383L304.227 54.1367C304.199 54.1094 304.145 54.0527 304.062 53.9668C303.98 53.877 303.928 53.8203 303.904 53.7969L303.752 53.6738C303.682 53.6113 303.623 53.5703 303.576 53.5508L303.377 53.4805C303.252 53.4336 303.041 53.4102 302.744 53.4102C302.447 53.4102 302.191 53.4961 301.977 53.668C301.762 53.8359 301.654 54.0215 301.654 54.2246C301.654 54.4277 301.689 54.5918 301.76 54.7168C301.83 54.8379 301.936 54.9434 302.076 55.0332C302.303 55.1738 302.564 55.2891 302.861 55.3789C303.158 55.4688 303.354 55.5293 303.447 55.5605C303.545 55.5918 303.674 55.6406 303.834 55.707C303.998 55.7695 304.125 55.8301 304.215 55.8887C304.309 55.9473 304.414 56.0254 304.531 56.123C304.648 56.2168 304.738 56.3164 304.801 56.4219C304.953 56.6875 305.029 56.9766 305.029 57.2891C305.029 57.8086 304.832 58.2344 304.438 58.5664C304.043 58.8984 303.586 59.0645 303.066 59.0645C302.547 59.0645 302.109 58.9668 301.754 58.7715C301.402 58.5723 301.092 58.2578 300.822 57.8281ZM305.709 53.4746V52.8184H306.752V50.5625H307.525V52.8184H308.943V53.4746H307.525V57.3945C307.525 57.7891 307.586 58.0586 307.707 58.2031C307.828 58.3477 308.027 58.4199 308.305 58.4199C308.418 58.4199 308.553 58.4102 308.709 58.3906C308.865 58.3711 308.943 58.3594 308.943 58.3555V58.9355C308.686 59.0293 308.434 59.0762 308.188 59.0762C307.945 59.0762 307.779 59.0703 307.689 59.0586C307.6 59.0469 307.49 59.0098 307.361 58.9473C307.232 58.8848 307.127 58.7969 307.045 58.6836C306.85 58.4102 306.752 57.9805 306.752 57.3945V53.4746H305.709ZM309.441 55.8711C309.441 54.9258 309.652 54.1699 310.074 53.6035C310.5 53.0371 311.094 52.7539 311.855 52.7539C312.617 52.7539 313.207 53.0391 313.625 53.6094C314.047 54.1797 314.258 54.9414 314.258 55.8945C314.258 56.8477 314.045 57.6152 313.619 58.1973C313.197 58.7793 312.609 59.0703 311.855 59.0703C311.086 59.0703 310.488 58.7695 310.062 58.168C309.648 57.5781 309.441 56.8125 309.441 55.8711ZM310.215 55.9062C310.215 57.1445 310.537 57.9297 311.182 58.2617C311.377 58.3633 311.602 58.4141 311.855 58.4141C312.109 58.4141 312.334 58.3633 312.529 58.2617C312.729 58.1602 312.887 58.0293 313.004 57.8691C313.121 57.709 313.217 57.5156 313.291 57.2891C313.42 56.8945 313.484 56.4355 313.484 55.9121C313.484 54.2441 312.939 53.4102 311.85 53.4102C310.76 53.4102 310.215 54.2422 310.215 55.9062ZM315.4 59C315.4 59 315.4 56.9395 315.4 52.8184H316.174V54.4824C316.357 54.0762 316.498 53.7969 316.596 53.6445C316.979 53.0508 317.475 52.7539 318.084 52.7539C318.131 52.7539 318.201 52.7578 318.295 52.7656V53.4219C318.029 53.457 317.809 53.5078 317.633 53.5742C317.457 53.6367 317.285 53.7383 317.117 53.8789C316.824 54.1211 316.51 54.6035 316.174 55.3262V59H315.4ZM319.15 52.0391V51.1602H320.029V52.0391H319.15ZM319.203 59V52.8184H319.977V59H319.203ZM321.922 58.1328C321.73 57.8477 321.584 57.5293 321.482 57.1777C321.385 56.8262 321.336 56.457 321.336 56.0703C321.336 55.6836 321.363 55.332 321.418 55.0156C321.473 54.6953 321.545 54.4238 321.635 54.2012C321.725 53.9785 321.834 53.7812 321.963 53.6094C322.092 53.4336 322.225 53.293 322.361 53.1875C322.498 53.082 322.646 52.9961 322.807 52.9297C323.084 52.8125 323.348 52.7539 323.598 52.7539C323.848 52.7539 324.061 52.7773 324.236 52.8242C324.412 52.8672 324.6 52.959 324.799 53.0996C325.002 53.2363 325.176 53.418 325.32 53.6445C325.656 54.1758 325.824 54.959 325.824 55.9941H322.109C322.109 57.0371 322.373 57.748 322.9 58.127C323.162 58.3145 323.453 58.4082 323.773 58.4082C324.375 58.4082 324.887 58.0352 325.309 57.2891L325.842 57.6582C325.689 57.9395 325.49 58.1934 325.244 58.4199C324.775 58.8496 324.312 59.0645 323.855 59.0645C323.398 59.0645 323.01 58.9805 322.689 58.8125C322.369 58.6445 322.113 58.418 321.922 58.1328ZM322.145 55.3379H325.051C325.051 54.7559 324.916 54.2734 324.646 53.8906C324.42 53.5703 324.098 53.4102 323.68 53.4102C322.996 53.4102 322.539 53.7266 322.309 54.3594C322.199 54.6562 322.145 54.9824 322.145 55.3379ZM326.791 57.8281L327.371 57.4531C327.578 57.7734 327.809 58.0137 328.062 58.1738C328.316 58.3301 328.627 58.4082 328.994 58.4082C329.377 58.4082 329.688 58.3047 329.926 58.0977C330.125 57.9258 330.225 57.7148 330.225 57.4648C330.225 57.2148 330.182 57.0156 330.096 56.8672C330.01 56.7188 329.889 56.5977 329.732 56.5039C329.471 56.3555 329.197 56.248 328.912 56.1816C328.631 56.1113 328.408 56.0488 328.244 55.9941C328.084 55.9355 327.918 55.8574 327.746 55.7598C327.574 55.6621 327.426 55.5527 327.301 55.4316C327.016 55.1543 326.873 54.7891 326.873 54.3359C326.873 53.8789 327.055 53.502 327.418 53.2051C327.785 52.9043 328.252 52.7539 328.818 52.7539C329.486 52.7539 330.051 52.9941 330.512 53.4746C330.598 53.5645 330.67 53.6523 330.729 53.7383L330.195 54.1367C330.168 54.1094 330.113 54.0527 330.031 53.9668C329.949 53.877 329.896 53.8203 329.873 53.7969L329.721 53.6738C329.65 53.6113 329.592 53.5703 329.545 53.5508L329.346 53.4805C329.221 53.4336 329.01 53.4102 328.713 53.4102C328.416 53.4102 328.16 53.4961 327.945 53.668C327.73 53.8359 327.623 54.0215 327.623 54.2246C327.623 54.4277 327.658 54.5918 327.729 54.7168C327.799 54.8379 327.904 54.9434 328.045 55.0332C328.271 55.1738 328.533 55.2891 328.83 55.3789C329.127 55.4688 329.322 55.5293 329.416 55.5605C329.514 55.5918 329.643 55.6406 329.803 55.707C329.967 55.7695 330.094 55.8301 330.184 55.8887C330.277 55.9473 330.383 56.0254 330.5 56.123C330.617 56.2168 330.707 56.3164 330.77 56.4219C330.922 56.6875 330.998 56.9766 330.998 57.2891C330.998 57.8086 330.801 58.2344 330.406 58.5664C330.012 58.8984 329.555 59.0645 329.035 59.0645C328.516 59.0645 328.078 58.9668 327.723 58.7715C327.371 58.5723 327.061 58.2578 326.791 57.8281Z" fill="black"/>
</svg>
