<svg width="663" height="202" viewBox="0 0 663 202" fill="none" xmlns="http://www.w3.org/2000/svg">
<path d="M5.81278 130.526C3.56267 130.526 2.43762 129.379 2.43762 127.086C2.43762 124.92 3.18765 122.5 4.68773 119.824C6.31281 117.021 8.2504 114.218 10.5005 111.415C12.7506 108.485 15.0007 105.81 17.2508 103.389C19.626 100.968 21.5636 98.9934 23.0636 97.4645C21.3135 96.5727 19.1259 95.8083 16.5008 95.1712C14.0007 94.4068 11.4381 93.5787 8.81293 92.6868C6.31281 91.6676 4.1877 90.3936 2.43762 88.8647C0.812539 87.2084 0 85.0426 0 82.3671C0 79.5642 1.00005 76.3791 3.00015 72.8117C5.12525 69.2444 7.81288 65.8045 11.063 62.492C14.3132 59.052 17.6259 56.2491 21.001 54.0833C24.3762 51.79 27.3763 50.6433 30.0015 50.6433C31.6265 50.6433 33.1891 51.0892 34.6892 51.9811C36.3143 52.7455 37.1268 54.0832 37.1268 55.9943C37.1268 56.5039 37.0018 57.2047 36.7518 58.0965C36.5018 58.9883 36.0643 59.4342 35.4392 59.4342C34.5642 59.4342 33.8141 58.9883 33.1891 58.0965C32.6891 57.0773 32.0641 56.5676 31.314 56.5676C29.1889 56.5676 26.6263 57.4595 23.6262 59.2431C20.751 61.0268 17.9384 63.3201 15.1882 66.123C12.4381 68.7985 10.1255 71.6014 8.2504 74.5317C6.50032 77.462 5.62527 80.0738 5.62527 82.3671C5.62527 83.8959 6.50032 85.2337 8.2504 86.3803C10.0005 87.527 12.0631 88.4825 14.4382 89.2469C16.9383 90.0114 19.3759 90.7758 21.7511 91.5402C24.1262 92.1772 25.8763 92.878 27.0013 93.6424C27.6263 93.0054 28.6889 91.9861 30.189 90.5847C31.689 89.1832 33.3766 87.6544 35.2517 85.9981C37.1268 84.3418 38.8144 82.9404 40.3145 81.7937C41.9395 80.6471 43.0646 80.0738 43.6896 80.0738C44.1897 80.0738 44.4397 80.3286 44.4397 80.8382C44.4397 81.4752 43.8146 82.5582 42.5646 84.087C41.4395 85.4885 40.0019 87.0173 38.2519 88.6736C36.6268 90.3299 35.0642 91.9224 33.5641 93.4513C32.0641 94.8527 31.0015 95.872 30.3765 96.509C31.5015 98.4201 32.0641 100.459 32.0641 102.624C32.0641 104.79 31.1265 107.466 29.2514 110.651C27.3763 113.709 25.0012 116.766 22.1261 119.824C19.3759 122.882 16.5008 125.43 13.5007 127.468C10.5005 129.507 7.93789 130.526 5.81278 130.526ZM12.9381 120.78C14.0632 120.78 15.3757 120.143 16.8758 118.868C18.5009 117.594 20.0635 116.002 21.5636 114.091C23.0636 112.18 24.3137 110.332 25.3137 108.549C26.4388 106.638 27.0013 105.109 27.0013 103.962C27.0013 102.688 26.7513 101.733 26.2513 101.096C25.5012 101.86 24.3137 103.07 22.6886 104.727C21.1885 106.383 19.5635 108.23 17.8134 110.269C16.1883 112.18 14.7507 114.027 13.5007 115.811C12.3756 117.467 11.8131 118.741 11.8131 119.633C11.8131 120.397 12.1881 120.78 12.9381 120.78Z" fill="black"/>
<path d="M61.8956 126.704C59.1455 126.704 56.9578 125.748 55.3328 123.837C53.7077 121.799 52.4576 119.314 51.5826 116.384C50.8326 113.326 50.3325 110.332 50.0825 107.402C49.8325 104.344 49.7075 101.86 49.7075 99.9489C49.7075 93.0691 49.9575 86.1255 50.4575 79.1183C51.0826 72.111 51.7076 65.1674 52.3326 58.2876C50.2075 59.1794 48.1449 60.1987 46.1448 61.3453C44.2697 62.492 42.5196 63.9571 40.8946 65.7408C40.6446 65.9956 40.332 66.2504 39.957 66.5052C39.707 66.76 39.332 66.8874 38.832 66.8874C37.9569 66.8874 37.0819 66.4415 36.2068 65.5497C35.4568 64.6578 35.0818 63.766 35.0818 62.8742C35.0818 61.7275 35.8318 60.5809 37.3319 59.4342C38.832 58.1602 40.6446 57.0136 42.7697 55.9943C45.0198 54.8477 47.0824 53.8921 48.9575 53.1277C50.9576 52.3633 52.3326 51.8537 53.0827 51.5989C53.2077 50.5796 53.4577 48.6686 53.8327 45.8657C54.3327 42.9353 54.8952 39.6865 55.5203 36.1192C56.1453 32.4245 56.8328 28.9208 57.5829 25.6083C58.4579 22.1684 59.333 19.3655 60.208 17.1996C61.083 14.9063 61.9581 13.7597 62.8331 13.7597C63.7082 13.7597 64.5832 14.0782 65.4583 14.7152C66.3333 15.3522 66.7708 16.1167 66.7708 17.0085C66.7708 17.3907 66.4583 18.9833 65.8333 21.7862C65.2083 24.5891 64.3957 27.9016 63.3957 31.7237C62.5206 35.4185 61.7081 38.9221 60.958 42.2346C60.333 45.5471 59.8955 47.8404 59.6455 49.1145C65.1458 47.4582 70.396 46.1205 75.3962 45.1012C80.5215 44.082 85.8968 43.5724 91.522 43.5724C92.0221 43.5724 92.9596 43.5724 94.3347 43.5724C95.7097 43.5724 97.0223 43.6361 98.2724 43.7635C99.6474 43.8909 100.335 44.1457 100.335 44.5279C99.0849 45.0375 97.7098 45.4197 96.2098 45.6745C94.8347 45.9294 93.4596 46.1205 92.0846 46.2479C86.0843 46.7575 80.3965 47.9041 75.0212 49.6878C69.771 51.4715 64.3957 53.4462 58.8954 55.6121C58.0204 62.8742 57.2704 70.2636 56.6453 77.7805C56.0203 85.17 55.7078 92.4957 55.7078 99.7578C55.7078 101.159 55.7703 103.07 55.8953 105.491C56.0203 107.784 56.2703 110.141 56.6453 112.562C57.0204 114.855 57.6454 116.83 58.5204 118.486C59.3955 120.143 60.6455 120.971 62.2706 120.971C64.3957 120.971 66.5833 119.76 68.8334 117.34C71.0835 114.792 73.3336 111.734 75.5838 108.167C77.8339 104.472 79.8965 100.777 81.7716 97.0823C83.6466 93.3876 85.2717 90.2662 86.6468 87.7181C88.1469 85.17 89.1469 83.8322 89.6469 83.7048V84.2781C89.6469 86.1892 89.0219 88.8647 87.7718 92.3046C86.5218 95.7446 84.8342 99.4393 82.7091 103.389C80.709 107.211 78.4589 110.906 75.9588 114.473C73.5837 118.04 71.146 120.971 68.6459 123.264C66.2708 125.557 64.0207 126.704 61.8956 126.704Z" fill="black"/>
<path d="M103.392 133.01C101.017 133.01 99.017 132.119 97.3919 130.335C95.8919 128.551 94.7043 126.385 93.8293 123.837C92.9542 121.162 92.3292 118.486 91.9542 115.811C91.7042 113.135 91.5792 110.906 91.5792 109.122C91.5792 107.211 91.7667 104.153 92.1417 99.9489C92.6417 95.6171 93.3917 90.8395 94.3918 85.6159C95.3918 80.3923 96.6419 75.3598 98.142 70.5184C99.6421 65.5497 101.392 61.409 103.392 58.0965C105.517 54.784 107.955 53.0003 110.705 52.7455C111.08 51.5989 111.643 50.6433 112.393 49.8789C113.143 48.9871 114.143 48.5411 115.393 48.5411C117.893 48.5411 120.081 49.6241 121.956 51.79C123.831 53.9558 125.393 56.6313 126.643 59.8165C127.893 63.0016 128.831 66.123 129.456 69.1807C130.206 72.2384 130.581 74.7228 130.581 76.6339C130.581 82.4945 130.019 88.2914 128.893 94.0246L130.394 94.2157C134.019 94.2157 136.831 93.6424 138.831 92.4957C140.832 91.3491 142.394 90.2662 143.519 89.2469C144.644 88.1003 145.582 87.527 146.332 87.527C147.082 87.527 147.457 87.9729 147.457 88.8647C147.457 90.3936 146.644 91.795 145.019 93.0691C143.519 94.2157 141.644 95.2986 139.394 96.3179C137.144 97.2097 134.956 97.8467 132.831 98.2289C130.706 98.6112 129.081 98.6749 127.956 98.4201C127.331 101.096 126.268 104.408 124.768 108.358C123.393 112.18 121.643 116.002 119.518 119.824C117.518 123.519 115.143 126.64 112.393 129.188C109.643 131.736 106.642 133.01 103.392 133.01ZM123.831 90.2025C124.581 85.7433 124.956 81.2204 124.956 76.6339C124.956 75.6146 124.706 73.8947 124.206 71.474C123.831 68.9259 123.206 66.2504 122.331 63.4475C121.581 60.6446 120.643 58.2239 119.518 56.1854C118.393 54.147 117.205 53.1277 115.955 53.1277C115.33 53.1277 114.83 53.6373 114.455 54.6566C114.205 55.5484 114.018 56.5676 113.893 57.7143C113.893 58.8609 113.893 59.6253 113.893 60.0076C113.893 65.1037 114.643 70.4547 116.143 76.0605C117.768 81.5389 120.331 86.2529 123.831 90.2025ZM103.955 128.042C105.83 128.042 107.767 126.768 109.768 124.219C111.768 121.544 113.643 118.359 115.393 114.664C117.268 110.842 118.83 107.211 120.081 103.771C121.331 100.331 122.143 97.783 122.518 96.1268C117.768 92.8143 114.205 88.3551 111.83 82.7493C109.58 77.1435 108.455 71.4103 108.455 65.5497C108.455 63.0016 108.642 60.5809 109.018 58.2876C106.392 62.8742 104.205 68.2889 102.455 74.5317C100.705 80.7745 99.392 87.1447 98.517 93.6424C97.767 100.14 97.3919 106.064 97.3919 111.415C97.3919 112.689 97.5169 114.664 97.767 117.34C98.142 120.015 98.8295 122.5 99.8296 124.793C100.83 126.959 102.205 128.042 103.955 128.042Z" fill="black"/>
<path d="M152.309 129.379C151.434 129.379 150.746 129.061 150.246 128.424C149.746 127.787 149.496 127.022 149.496 126.131C149.496 121.289 149.684 116.448 150.059 111.606C150.559 106.638 150.809 101.733 150.809 96.8912C150.809 93.7061 150.684 89.6928 150.434 84.8515C150.309 79.8827 149.871 75.0413 149.121 70.3273C148.496 65.486 147.371 61.7912 145.746 59.2431C145.621 58.9883 145.496 58.7972 145.371 58.6698C145.246 58.415 145.183 58.1602 145.183 57.9054C145.183 57.141 145.558 56.6313 146.308 56.3765C147.058 55.9943 147.683 55.8032 148.183 55.8032C149.934 55.8032 151.309 56.8225 152.309 58.8609C153.309 60.8994 154.059 63.5112 154.559 66.6963C155.059 69.8814 155.371 73.1939 155.496 76.6339C155.746 79.9464 155.871 83.0041 155.871 85.807C155.871 88.4825 155.871 90.3299 155.871 91.3491C155.871 92.6231 155.871 93.8335 155.871 94.9801C155.996 96.1268 156.059 97.3371 156.059 98.6112C156.559 96.8275 157.434 94.0883 158.684 90.3936C159.934 86.6988 161.434 82.6219 163.184 78.1627C164.934 73.5761 166.809 69.2444 168.809 65.1674C170.935 60.9631 172.997 57.5232 174.997 54.8477C177.122 52.1722 179.122 50.8344 180.998 50.8344C182.873 50.8344 184.248 52.0448 185.123 54.4655C185.998 56.8862 186.56 59.4979 186.81 62.3008C187.185 65.1037 187.373 67.2059 187.373 68.6074C187.373 69.4992 187.31 71.0281 187.185 73.1939C187.06 75.2324 186.748 77.1435 186.248 78.9271C185.873 80.7108 185.123 81.6026 183.998 81.6026C182.998 81.6026 182.498 80.456 182.498 78.1627C182.498 77.1435 182.56 76.188 182.685 75.2961C182.81 74.4043 182.873 73.7036 182.873 73.1939C182.873 72.5569 182.81 71.0918 182.685 68.7985C182.56 66.3778 182.248 64.0845 181.748 61.9186C181.373 59.7528 180.81 58.6698 180.06 58.6698C179.31 58.6698 178.372 59.4342 177.247 60.9631C176.247 62.3645 175.185 64.0845 174.06 66.123C173.06 68.0341 172.122 69.9451 171.247 71.8562C170.497 73.6399 169.997 74.9139 169.747 75.6783C167.872 80.3923 165.872 85.7433 163.747 91.7313C161.747 97.7193 159.997 103.771 158.496 109.886C157.121 115.874 156.434 121.48 156.434 126.704C155.559 128.488 154.184 129.379 152.309 129.379Z" fill="black"/>
<path d="M187.185 199.707C184.185 199.707 181.998 198.624 180.623 196.458C179.247 194.419 178.372 191.935 177.997 189.005C177.497 186.074 177.247 183.526 177.247 181.36C177.247 176.137 177.935 170.149 179.31 163.396C180.56 156.771 182.56 150.21 185.31 143.712C188.06 137.342 191.561 131.8 195.811 127.086C200.061 122.245 205.061 119.123 210.812 117.722C211.187 117.594 211.749 117.531 212.499 117.531C214.999 117.531 216.624 118.614 217.374 120.78C218.249 122.945 218.687 125.048 218.687 127.086C218.687 127.851 218.562 129.252 218.312 131.29C218.062 133.456 217.562 135.431 216.812 137.215C216.187 138.998 215.312 139.89 214.187 139.89C213.687 139.89 213.249 139.635 212.874 139.126C212.624 138.744 212.499 138.298 212.499 137.788C212.499 136.004 212.812 134.221 213.437 132.437C214.062 130.653 214.374 128.87 214.374 127.086C214.374 125.685 214.187 124.602 213.812 123.837C213.562 123.073 212.687 122.691 211.187 122.691C210.187 122.691 208.749 123.328 206.874 124.602C204.999 125.748 203.686 126.64 202.936 127.277C198.436 131.099 194.623 135.813 191.498 141.419C188.498 147.152 186.185 153.14 184.56 159.383C183.06 165.753 182.31 171.933 182.31 177.921C182.31 179.067 182.373 180.915 182.498 183.463C182.623 186.011 182.998 188.368 183.623 190.534C184.373 192.827 185.56 193.973 187.185 193.973C189.435 193.973 191.873 192.699 194.498 190.151C197.123 187.603 199.686 184.482 202.186 180.787C204.686 177.22 206.874 173.652 208.749 170.085C210.624 166.645 211.937 163.906 212.687 161.868C216.812 150.274 220.187 138.744 222.812 127.277C225.437 115.811 226.75 103.898 226.75 91.5402C226.75 86.8262 226.562 82.1123 226.187 77.3983C225.437 79.4368 224.25 82.1123 222.625 85.4248C221.125 88.6099 219.312 92.0498 217.187 95.7446C215.187 99.4393 212.999 102.943 210.624 106.255C208.374 109.568 205.999 112.307 203.499 114.473C201.124 116.512 198.748 117.531 196.373 117.531C194.873 117.531 193.748 116.957 192.998 115.811C192.373 114.537 191.936 113.135 191.686 111.606C191.561 109.95 191.498 108.612 191.498 107.593C191.498 106.192 191.686 103.835 192.061 100.522C192.436 97.2097 192.936 93.4513 193.561 89.2469C194.186 85.0426 194.873 80.8382 195.623 76.6339C196.373 72.4295 197.061 68.6711 197.686 65.3586C198.436 61.9186 199.061 59.4979 199.561 58.0965C200.186 56.5676 201.124 55.8032 202.374 55.8032C203.249 55.8032 204.061 56.1217 204.811 56.7587C205.561 57.3958 205.936 58.2239 205.936 59.2431C205.936 63.5749 205.186 68.2889 203.686 73.385C202.311 78.4812 200.936 83.6411 199.561 88.8647C198.186 93.9609 197.498 98.9934 197.498 103.962C197.498 104.344 197.561 105.427 197.686 107.211C197.811 108.995 198.123 109.886 198.623 109.886C198.873 109.886 199.061 109.95 199.186 110.078C199.311 110.078 199.436 110.014 199.561 109.886C202.936 108.612 206.061 106.001 208.936 102.051C211.812 97.9741 214.374 93.3239 216.624 88.1003C218.999 82.8767 220.937 77.7168 222.437 72.6206C224.062 67.5244 225.25 63.3838 226 60.1987C226.125 59.6891 226.312 59.1794 226.562 58.6698C226.812 58.1602 227.25 57.9054 227.875 57.9054C229 57.9054 229.875 59.3068 230.5 62.1097C231.25 64.7852 231.75 68.034 232 71.8562C232.375 75.5509 232.625 78.9909 232.75 82.176C232.875 85.2337 232.938 87.081 232.938 87.7181C232.938 101.223 231.375 114.6 228.25 127.851C225.25 141.101 221.062 153.905 215.687 166.263C214.687 168.556 213.124 171.55 210.999 175.245C208.999 178.94 206.624 182.634 203.874 186.329C201.249 190.151 198.436 193.336 195.436 195.885C192.561 198.433 189.811 199.707 187.185 199.707Z" fill="black"/>
<path d="M296.768 128.615C295.268 128.615 294.143 127.532 293.393 125.366C292.643 123.073 292.081 120.397 291.706 117.34C291.331 114.155 291.081 111.224 290.956 108.549C290.956 105.746 290.956 103.898 290.956 103.007C290.956 95.2349 291.268 86.9536 291.893 78.1627C292.643 69.2444 293.768 60.2624 295.268 51.2166C296.893 42.0435 299.018 33.3163 301.644 25.035C304.269 16.6263 307.519 9.04572 311.394 2.29328C312.269 0.764425 313.582 0 315.332 0C316.082 0 316.769 0.254806 317.394 0.764418C318.019 1.14663 318.332 1.78366 318.332 2.6755C318.332 3.43992 318.082 4.33175 317.582 5.35099C313.957 13.8871 310.519 22.2321 307.269 30.386C304.019 38.4125 301.394 47.0123 299.393 56.1854C296.768 68.4163 295.456 80.8382 295.456 93.4513C295.456 99.5667 295.831 105.618 296.581 111.606C297.206 109.568 298.456 106.447 300.331 102.242C302.206 98.0378 304.394 93.3876 306.894 88.2914C309.519 83.1952 312.269 78.2901 315.144 73.5761C318.144 68.8622 321.02 65.04 323.77 62.1097C326.52 59.052 328.957 57.5232 331.083 57.5232C333.333 57.5232 334.77 58.6698 335.395 60.9631C336.145 63.129 336.52 65.1037 336.52 66.8874C336.52 71.9836 336.145 77.0798 335.395 82.176C334.645 87.2721 334.27 92.432 334.27 97.6556C334.27 98.1652 334.333 99.5667 334.458 101.86C334.583 104.026 334.833 106.128 335.208 108.167C335.708 110.205 336.333 111.224 337.083 111.224C338.208 111.224 339.333 110.523 340.458 109.122C341.583 107.593 342.583 105.937 343.458 104.153C344.458 102.242 345.333 100.586 346.083 99.1845C346.833 97.6556 347.396 96.8912 347.771 96.8912C348.146 96.8912 348.396 97.2097 348.521 97.8467C348.646 98.3563 348.708 98.7386 348.708 98.9934C348.708 100.65 348.083 102.943 346.833 105.873C345.708 108.676 344.208 111.288 342.333 113.709C340.458 116.002 338.583 117.149 336.708 117.149C334.958 117.149 333.52 116.384 332.395 114.855C331.395 113.326 330.645 111.479 330.145 109.313C329.645 107.147 329.27 105.045 329.02 103.007C328.895 100.968 328.832 99.3756 328.832 98.2289C328.832 93.6424 329.02 89.0558 329.395 84.4692C329.895 79.8827 330.145 75.2961 330.145 70.7096V69.1807C330.145 68.4163 330.082 67.7155 329.957 67.0785C329.832 66.3141 329.52 65.9319 329.02 65.9319C328.27 65.9319 327.207 66.8237 325.832 68.6074C324.457 70.2636 323.52 71.4103 323.02 72.0473C319.644 76.3791 316.394 81.5389 313.269 87.527C310.269 93.515 307.644 99.6941 305.394 106.064C303.144 112.307 301.519 118.168 300.519 123.646C300.393 124.665 300.018 125.748 299.393 126.895C298.893 128.042 298.018 128.615 296.768 128.615Z" fill="black"/>
<path d="M357.88 135.304C355.755 135.304 354.193 134.221 353.192 132.055C352.192 130.016 351.567 127.659 351.317 124.984C351.067 122.308 350.942 120.27 350.942 118.868C350.942 114.027 351.38 108.931 352.255 103.58C353.13 98.1015 354.255 93.0054 355.63 88.2914C356.255 86.1255 357.38 83.0041 359.005 78.9271C360.63 74.7228 362.568 70.4547 364.818 66.123C367.193 61.7912 369.693 58.1602 372.318 55.2299C375.069 52.1722 377.819 50.6433 380.569 50.6433C382.694 50.6433 385.007 51.5989 387.507 53.5099C390.007 55.421 391.257 57.5232 391.257 59.8165C391.257 60.7083 390.944 61.4727 390.319 62.1097C390.444 61.9823 390.757 61.9186 391.257 61.9186C393.632 61.9186 394.82 63.1927 394.82 65.7408C394.82 68.6711 394.382 72.1747 393.507 76.2516C392.757 80.3286 391.944 84.6604 391.069 89.2469C390.194 93.7061 389.757 98.0378 389.757 102.242C389.757 103.771 389.882 105.618 390.132 107.784C390.382 109.823 390.944 111.67 391.819 113.326C392.819 114.983 394.382 115.811 396.507 115.811C398.507 115.811 400.632 114.728 402.882 112.562C405.133 110.396 407.32 107.721 409.445 104.535C411.57 101.35 413.57 98.1652 415.445 94.9801C417.321 91.795 418.883 89.1195 420.133 86.9536C421.508 84.7878 422.446 83.7048 422.946 83.7048C423.821 83.7048 424.258 84.2781 424.258 85.4248C424.258 86.9536 423.571 89.1832 422.196 92.1135C420.946 94.9164 419.258 98.0378 417.133 101.478C415.008 104.79 412.633 108.039 410.008 111.224C407.508 114.282 404.945 116.83 402.32 118.868C399.82 120.78 397.57 121.735 395.57 121.735C392.319 121.735 389.819 120.397 388.069 117.722C386.444 114.919 385.319 111.606 384.694 107.784C384.194 103.962 383.944 100.395 383.944 97.0823C383.944 95.9357 383.944 94.8527 383.944 93.8335C383.944 92.8142 384.006 91.9224 384.131 91.158C383.381 92.9417 382.319 95.6172 380.944 99.1845C379.569 102.624 377.944 106.447 376.069 110.651C374.319 114.728 372.381 118.677 370.256 122.5C368.256 126.194 366.193 129.252 364.068 131.673C361.943 134.093 359.88 135.304 357.88 135.304ZM359.38 127.277C361.005 127.277 362.818 125.748 364.818 122.691C366.818 119.633 368.881 115.747 371.006 111.033C373.256 106.192 375.381 101.032 377.381 95.5535C379.381 90.0751 381.194 84.9152 382.819 80.0738C384.569 75.105 386.007 71.0281 387.132 67.8429C388.257 64.5304 389.007 62.7468 389.382 62.492L388.257 62.6831C387.382 62.6831 386.694 62.2371 386.194 61.3453C385.694 60.3261 385.069 59.3705 384.319 58.4787C383.569 57.5869 382.319 57.141 380.569 57.141C378.319 57.141 376.131 58.4787 374.006 61.1542C371.881 63.8297 369.818 67.0785 367.818 70.9007C365.943 74.5954 364.318 78.2264 362.943 81.7937C361.693 85.3611 360.818 88.0366 360.318 89.8202C357.818 98.6112 356.568 107.657 356.568 116.957C356.568 117.467 356.568 118.614 356.568 120.397C356.693 122.054 356.943 123.646 357.318 125.175C357.818 126.576 358.505 127.277 359.38 127.277Z" fill="black"/>
<path d="M420.68 130.717C419.805 130.717 419.117 130.399 418.617 129.762C418.242 128.997 418.055 128.169 418.055 127.277C418.055 120.143 418.43 113.008 419.18 105.873C420.055 98.6112 420.492 91.4128 420.492 84.2781C420.492 83.5137 420.43 82.0486 420.305 79.8827C420.305 77.5894 420.18 75.1687 419.93 72.6206C419.805 69.9451 419.555 67.5881 419.18 65.5497C418.93 63.3838 418.555 62.046 418.055 61.5364C417.554 61.1542 417.054 60.7083 416.554 60.1987C416.179 59.6891 415.992 59.052 415.992 58.2876C415.992 57.5232 416.304 56.9499 416.929 56.5676C417.68 56.058 418.43 55.8032 419.18 55.8032C421.305 55.8032 422.805 56.8225 423.68 58.8609C424.68 60.772 425.305 63.129 425.555 65.9319C425.93 68.7348 426.117 71.4103 426.117 73.9584C426.117 85.9344 425.742 97.9741 424.992 110.078C425.492 108.676 426.492 106.192 427.993 102.624C429.493 99.0571 431.305 95.0438 433.43 90.5847C435.555 86.1255 437.743 81.8575 439.993 77.7805C442.368 73.5762 444.556 70.1362 446.556 67.4607C448.556 64.6578 450.181 63.2564 451.431 63.2564C453.181 63.2564 454.431 64.403 455.181 66.6963C456.056 68.8622 456.494 70.6459 456.494 72.0473C456.494 77.9079 456.181 83.7685 455.556 89.6291C455.056 95.4897 454.806 101.414 454.806 107.402C454.806 108.167 454.869 109.632 454.994 111.798C455.244 113.836 455.619 115.811 456.119 117.722C456.744 119.506 457.681 120.397 458.932 120.397C459.932 120.397 461.244 119.251 462.869 116.957C464.494 114.664 466.182 111.989 467.932 108.931C469.682 105.746 471.245 102.752 472.62 99.9489C473.995 97.146 474.932 95.1712 475.432 94.0246C475.557 93.7698 475.682 93.515 475.807 93.2602C475.932 92.878 476.12 92.6868 476.37 92.6868C476.995 92.6868 477.37 93.1965 477.495 94.2157C477.62 95.1075 477.682 95.6809 477.682 95.9357C477.682 97.2097 476.995 99.4393 475.62 102.624C474.245 105.81 472.495 109.186 470.37 112.753C468.369 116.32 466.244 119.378 463.994 121.926C461.869 124.474 459.932 125.748 458.181 125.748C455.681 125.748 453.806 124.729 452.556 122.691C451.431 120.652 450.681 118.359 450.306 115.811C449.931 113.135 449.744 110.906 449.744 109.122C449.744 104.918 449.931 100.713 450.306 96.509C450.806 92.3046 451.056 88.1003 451.056 83.8959C451.056 83.5137 450.994 82.5582 450.869 81.0293C450.869 79.5005 450.806 78.0353 450.681 76.6339C450.556 75.2324 450.244 74.5317 449.744 74.5317C448.493 74.5317 446.868 76.1242 444.868 79.3094C442.993 82.4945 440.931 86.5077 438.681 91.3491C436.555 96.1905 434.43 101.223 432.305 106.447C430.18 111.543 428.305 116.129 426.68 120.206C425.18 124.283 424.117 127.022 423.492 128.424C423.242 128.933 422.867 129.443 422.367 129.953C421.992 130.462 421.43 130.717 420.68 130.717Z" fill="black"/>
<path d="M475.645 202C472.895 202 470.832 201.172 469.457 199.516C468.207 197.987 467.332 196.076 466.832 193.782C466.457 191.489 466.269 189.26 466.269 187.094C466.269 182.252 467.019 176.838 468.519 170.85C470.019 164.862 472.082 158.746 474.707 152.503C477.457 146.26 480.582 140.336 484.083 134.73C487.708 129.125 491.583 124.156 495.708 119.824C499.833 115.492 504.084 112.307 508.459 110.269L508.646 102.816C508.646 101.414 508.584 99.0571 508.459 95.7446C508.459 92.3046 508.334 88.6099 508.084 84.6604C507.834 80.7108 507.521 77.2072 507.146 74.1495C506.771 71.0918 506.396 69.2444 506.021 68.6074C504.896 70.391 503.521 73.5125 501.896 77.9716C500.271 82.4308 498.458 87.3996 496.458 92.878C494.458 98.2289 492.333 103.453 490.083 108.549C487.958 113.645 485.708 117.849 483.333 121.162C481.082 124.474 478.832 126.131 476.582 126.131C473.957 126.131 471.957 125.302 470.582 123.646C469.332 121.99 468.457 120.015 467.957 117.722C467.582 115.301 467.394 113.072 467.394 111.033C467.394 108.612 467.957 104.981 469.082 100.14C470.207 95.2986 471.707 90.0751 473.582 84.4692C475.582 78.736 477.832 73.3213 480.332 68.2252C482.958 63.0016 485.708 58.7335 488.583 55.421C491.458 52.1085 494.396 50.4522 497.396 50.4522C499.146 50.4522 500.583 51.0892 501.708 52.3633C502.959 53.6373 503.896 55.0388 504.521 56.5676C504.771 56.1854 505.209 55.9943 505.834 55.9943C507.709 55.9943 509.209 57.6506 510.334 60.9631C511.459 64.2756 512.271 68.4163 512.772 73.385C513.397 78.2264 513.834 83.2589 514.084 88.4825C514.334 93.7061 514.459 98.2289 514.459 102.051C514.459 103.58 514.397 104.981 514.272 106.255C514.272 107.402 514.272 108.294 514.272 108.931H514.834C515.709 108.931 516.522 109.186 517.272 109.695C518.147 110.205 518.584 110.969 518.584 111.989C518.584 113.9 517.584 114.855 515.584 114.855C514.834 114.855 514.272 114.792 513.897 114.664C512.771 125.494 511.021 136.323 508.646 147.152C506.396 158.109 502.896 168.556 498.146 178.494C497.396 180.15 496.146 182.252 494.396 184.8C492.771 187.476 490.895 190.088 488.77 192.636C486.645 195.311 484.395 197.541 482.02 199.324C479.77 201.108 477.645 202 475.645 202ZM476.582 119.824C478.207 119.824 479.957 118.295 481.833 115.237C483.833 112.052 485.833 108.103 487.833 103.389C489.833 98.6749 491.708 93.7698 493.458 88.6736C495.208 83.45 496.708 78.7997 497.958 74.7228C499.333 70.5184 500.271 67.5881 500.771 65.9319C500.521 65.4223 500.333 64.9763 500.208 64.5941C500.208 64.2119 500.208 63.8297 500.208 63.4475C500.208 62.9379 500.208 62.1734 500.208 61.1542C500.208 60.0076 500.021 58.9883 499.646 58.0965C499.271 57.0773 498.521 56.5676 497.396 56.5676C495.146 56.5676 492.833 58.1602 490.458 61.3453C488.208 64.5304 486.02 68.5437 483.895 73.385C481.895 78.2264 480.082 83.3226 478.457 88.6736C476.957 93.8972 475.707 98.6749 474.707 103.007C473.832 107.338 473.395 110.46 473.395 112.371C473.395 113.518 473.52 115.046 473.77 116.957C474.02 118.868 474.957 119.824 476.582 119.824ZM475.645 196.267C477.145 196.267 478.77 195.439 480.52 193.782C482.395 192.254 484.145 190.279 485.77 187.858C487.52 185.565 489.02 183.272 490.27 180.978C491.645 178.812 492.646 177.092 493.271 175.818C497.896 166.645 501.333 156.962 503.584 146.77C505.834 136.705 507.396 126.576 508.271 116.384C504.771 118.295 501.271 121.353 497.771 125.557C494.396 129.634 491.145 134.348 488.02 139.699C484.895 145.05 482.083 150.592 479.582 156.325C477.207 162.186 475.332 167.728 473.957 172.952C472.582 178.303 471.895 182.953 471.895 186.903C471.895 187.667 471.957 188.75 472.082 190.151C472.207 191.68 472.52 193.082 473.02 194.356C473.645 195.63 474.52 196.267 475.645 196.267Z" fill="black"/>
<path d="M541.38 129.953C538.005 129.953 535.38 128.424 533.504 125.366C531.754 122.308 530.567 118.614 529.942 114.282C529.317 109.823 529.004 105.682 529.004 101.86C529.004 100.076 529.004 98.4838 529.004 97.0823C529.129 95.5535 529.254 94.2794 529.379 93.2602H528.817C527.317 93.2602 526.567 92.6868 526.567 91.5402C526.817 90.9032 527.254 90.3936 527.879 90.0113C528.629 89.5017 529.317 89.1832 529.942 89.0558C530.567 83.45 531.754 77.7168 533.504 71.8562C535.255 65.9956 537.63 60.7083 540.63 55.9943V54.8477C540.63 53.5736 541.38 52.8092 542.88 52.5544C543.505 51.9174 544.13 51.2166 544.755 50.4522C545.505 49.5604 546.318 49.1145 547.193 49.1145C548.193 49.1145 548.943 49.5604 549.443 50.4522C550.068 51.2166 550.13 52.0448 549.63 52.9366C552.005 53.4462 554.13 54.4655 556.006 55.9943C558.006 57.3958 559.006 59.4979 559.006 62.3008C559.006 65.9956 557.631 69.8177 554.88 73.7673C552.255 77.5894 549.068 81.093 545.318 84.2781C541.692 87.3359 538.38 89.6291 535.38 91.158C535.005 94.2157 534.755 97.3371 534.63 100.522C534.63 103.58 534.63 106.638 534.63 109.695C534.63 111.224 534.692 113.135 534.817 115.429C535.067 117.722 535.63 119.76 536.505 121.544C537.505 123.328 539.13 124.219 541.38 124.219C543.755 124.219 546.068 123.137 548.318 120.971C550.693 118.805 552.943 116.066 555.068 112.753C557.318 109.313 559.381 105.746 561.256 102.051C563.131 98.3563 564.756 94.8527 566.131 91.5402C567.506 88.2277 568.506 85.6796 569.131 83.8959C569.381 83.2589 569.694 82.6856 570.069 82.176C570.444 81.5389 571.006 81.2204 571.756 81.2204C572.756 81.2204 573.256 81.8575 573.256 83.1315C573.256 85.17 572.569 88.1003 571.194 91.9224C569.819 95.6171 567.944 99.6304 565.569 103.962C563.318 108.294 560.756 112.435 557.881 116.384C555.13 120.334 552.318 123.582 549.443 126.131C546.568 128.679 543.88 129.953 541.38 129.953ZM536.317 85.2337C538.692 83.7048 541.067 81.7938 543.442 79.5005C545.818 77.2072 547.818 74.5954 549.443 71.6651C551.068 68.7348 551.88 65.8045 551.88 62.8742C551.88 61.3453 551.13 60.2624 549.63 59.6253C548.13 58.8609 546.818 58.415 545.693 58.2876C543.317 62.2371 541.317 66.5689 539.692 71.2829C538.192 75.9968 537.067 80.6471 536.317 85.2337Z" fill="black"/>
<path d="M577.683 129.379C576.808 129.379 576.121 129.061 575.621 128.424C575.121 127.787 574.871 127.022 574.871 126.131C574.871 121.289 575.058 116.448 575.433 111.606C575.933 106.638 576.183 101.733 576.183 96.8912C576.183 93.7061 576.058 89.6928 575.808 84.8515C575.683 79.8827 575.246 75.0413 574.496 70.3273C573.871 65.486 572.746 61.7912 571.121 59.2431C570.996 58.9883 570.871 58.7972 570.746 58.6698C570.621 58.415 570.558 58.1602 570.558 57.9054C570.558 57.141 570.933 56.6313 571.683 56.3765C572.433 55.9943 573.058 55.8032 573.558 55.8032C575.308 55.8032 576.683 56.8225 577.683 58.8609C578.683 60.8994 579.433 63.5112 579.933 66.6963C580.433 69.8814 580.746 73.1939 580.871 76.6339C581.121 79.9464 581.246 83.0041 581.246 85.807C581.246 88.4825 581.246 90.3299 581.246 91.3491C581.246 92.6231 581.246 93.8335 581.246 94.9801C581.371 96.1268 581.434 97.3371 581.434 98.6112C581.934 96.8275 582.809 94.0883 584.059 90.3936C585.309 86.6988 586.809 82.6219 588.559 78.1627C590.309 73.5761 592.184 69.2444 594.184 65.1674C596.309 60.9631 598.372 57.5232 600.372 54.8477C602.497 52.1722 604.497 50.8344 606.372 50.8344C608.247 50.8344 609.622 52.0448 610.497 54.4655C611.372 56.8862 611.935 59.4979 612.185 62.3008C612.56 65.1037 612.748 67.2059 612.748 68.6074C612.748 69.4992 612.685 71.0281 612.56 73.1939C612.435 75.2324 612.122 77.1435 611.622 78.9271C611.247 80.7108 610.497 81.6026 609.372 81.6026C608.372 81.6026 607.872 80.456 607.872 78.1627C607.872 77.1435 607.935 76.188 608.06 75.2961C608.185 74.4043 608.247 73.7036 608.247 73.1939C608.247 72.5569 608.185 71.0918 608.06 68.7985C607.935 66.3778 607.622 64.0845 607.122 61.9186C606.747 59.7528 606.185 58.6698 605.435 58.6698C604.685 58.6698 603.747 59.4342 602.622 60.9631C601.622 62.3645 600.559 64.0845 599.434 66.123C598.434 68.0341 597.497 69.9451 596.622 71.8562C595.872 73.6399 595.372 74.9139 595.122 75.6783C593.247 80.3923 591.247 85.7433 589.121 91.7313C587.121 97.7193 585.371 103.771 583.871 109.886C582.496 115.874 581.809 121.48 581.809 126.704C580.934 128.488 579.558 129.379 577.683 129.379Z" fill="black"/>
<path d="M624.373 130.526C622.123 130.526 620.998 129.379 620.998 127.086C620.998 124.92 621.748 122.5 623.248 119.824C624.873 117.021 626.811 114.218 629.061 111.415C631.311 108.485 633.561 105.81 635.811 103.389C638.186 100.968 640.124 98.9934 641.624 97.4645C639.874 96.5727 637.686 95.8083 635.061 95.1712C632.561 94.4068 629.998 93.5787 627.373 92.6868C624.873 91.6676 622.748 90.3936 620.998 88.8647C619.373 87.2084 618.56 85.0426 618.56 82.3671C618.56 79.5642 619.56 76.3791 621.56 72.8117C623.686 69.2444 626.373 65.8045 629.623 62.492C632.874 59.052 636.186 56.2491 639.561 54.0833C642.937 51.79 645.937 50.6433 648.562 50.6433C650.187 50.6433 651.749 51.0892 653.25 51.9811C654.875 52.7455 655.687 54.0832 655.687 55.9943C655.687 56.5039 655.562 57.2047 655.312 58.0965C655.062 58.9883 654.625 59.4342 654 59.4342C653.125 59.4342 652.375 58.9883 651.749 58.0965C651.249 57.0773 650.624 56.5676 649.874 56.5676C647.749 56.5676 645.187 57.4595 642.187 59.2431C639.311 61.0268 636.499 63.3201 633.749 66.123C630.998 68.7985 628.686 71.6014 626.811 74.5317C625.061 77.462 624.186 80.0738 624.186 82.3671C624.186 83.8959 625.061 85.2337 626.811 86.3803C628.561 87.527 630.623 88.4825 632.999 89.2469C635.499 90.0114 637.936 90.7758 640.311 91.5402C642.687 92.1772 644.437 92.878 645.562 93.6424C646.187 93.0054 647.249 91.9861 648.749 90.5847C650.249 89.1832 651.937 87.6544 653.812 85.9981C655.687 84.3418 657.375 82.9404 658.875 81.7937C660.5 80.6471 661.625 80.0738 662.25 80.0738C662.75 80.0738 663 80.3286 663 80.8382C663 81.4752 662.375 82.5582 661.125 84.087C660 85.4885 658.562 87.0173 656.812 88.6736C655.187 90.3299 653.625 91.9224 652.125 93.4513C650.624 94.8527 649.562 95.872 648.937 96.509C650.062 98.4201 650.624 100.459 650.624 102.624C650.624 104.79 649.687 107.466 647.812 110.651C645.937 113.709 643.562 116.766 640.686 119.824C637.936 122.882 635.061 125.43 632.061 127.468C629.061 129.507 626.498 130.526 624.373 130.526ZM631.498 120.78C632.624 120.78 633.936 120.143 635.436 118.868C637.061 117.594 638.624 116.002 640.124 114.091C641.624 112.18 642.874 110.332 643.874 108.549C644.999 106.638 645.562 105.109 645.562 103.962C645.562 102.688 645.312 101.733 644.812 101.096C644.062 101.86 642.874 103.07 641.249 104.727C639.749 106.383 638.124 108.23 636.374 110.269C634.749 112.18 633.311 114.027 632.061 115.811C630.936 117.467 630.373 118.741 630.373 119.633C630.373 120.397 630.748 120.78 631.498 120.78Z" fill="black"/>
</svg>
