<svg width="231" height="94" viewBox="0 0 231 94" fill="none" xmlns="http://www.w3.org/2000/svg">
<path d="M154.166 22.1511C174.847 4.60119 152.667 -3.56864 138.28 7.62702C124.145 18.6265 132.285 23.0591 135.282 27.5978C138.28 32.1365 167.954 50.5943 160.46 60.5796C152.967 70.5649 128.988 69.6572 122.694 62.0925C116.399 54.5279 132.447 49.0813 133.184 44.2399C133.784 40.3063 108.606 48.5083 106.808 48.7787C105.009 49.0491 90.622 53.015 90.622 53.015C86.4691 54.33 57.872 63.5181 57.872 63.5181C57.872 63.5181 11.8936 77.0174 6.42047 81.5508C0.947319 86.0841 1.44497 87.973 6.42047 89.8619C11.396 91.7508 223.524 92.0468 228.5 90.5356" stroke="black" stroke-width="5" stroke-linecap="round"/>
</svg>
